SplineFontDB: 3.0
FontName: Chivo-Bold
FullName: Chivo Bold
FamilyName: Chivo
Weight: Bold
Copyright: Copyright (c) 2011-2014 by Omnibus-Type (www.omnibus-type.com omnibus.type@gmail.com), with Reserved Font Name 'Chivo'
UComments: "Disclaimer+AAoA +AAoA-Omnibus-Type give no warranty in relation to this font, and you use this+AAoA-at your own risk.+AAoA +AAoA-Omnibus-Type shall not be liable for any direct, indirect, consequential, or incidental damages (including damages from loss of business profits, business interruption, loss of business information, and the like) arising out of the use of or inability to use the fonts.+AAoA +AAoA +AAoA-If you have further questions, please contact us:+AAoA-omnibus.type@gmail.com" 

StartChar: .notdef
Encoding: 0 -1 0
Width: 500
Flags: MW
HStem: 0 50<80 420 80 500> 650 50<80 80 80 420>
VStem: 0 50<95 605 95 700> 450 50<95 605 605 605>
LayerCount: 2
Fore
SplineSet
500 700 m 1
 500 0 l 1
 0 0 l 1
 0 700 l 1
 500 700 l 1
80 650 m 1
 250 395 l 1
 420 650 l 1
 80 650 l 1
220 350 m 1
 50 605 l 1
 50 95 l 1
 220 350 l 1
450 605 m 1
 280 350 l 1
 450 95 l 1
 450 605 l 1
250 305 m 1
 80 50 l 1
 420 50 l 1
 250 305 l 1
EndSplineSet
Validated: 2097153
EndChar

StartChar: A
Encoding: 1 65 1
Width: 686
GlyphClass: 2
Flags: MW
HStem: 0 21G<2 151 2 2 522 522 522 684> 135 117<199 431 241 431 241 472> 521 165<334 334 334 339> 666 20G<251 435 435 435>
VStem: 2 682<0 0>
LayerCount: 2
Fore
SplineSet
199 135 m 1xd8
 151 0 l 1
 2 0 l 1
 251 686 l 1
 435 686 l 1
 684 0 l 1
 522 0 l 1
 472 135 l 1
 199 135 l 1xd8
334 521 m 1xe8
 241 252 l 1
 431 252 l 1
 401 342 370 432 339 521 c 1
 334 521 l 1xe8
EndSplineSet
Validated: 1
Substitution2: "Single Substitution lookup 5 subtable" ordfeminine
Substitution2: "'aalt' Access All Alternates lookup 0 subtable" ordfeminine
Position2: "'cpsp' Capital Spacing lookup 0 subtable" dx=5 dy=0 dh=10 dv=0
EndChar

StartChar: Aacute
Encoding: 2 193 2
Width: 686
GlyphClass: 2
Flags: MW
HStem: 0 21G<2 151 2 2 522 522 522 684> 135 117<199 431 241 431 241 472> 521 165<334 334 334 339> 666 20G<251 435 435 435> 750 145<361 370 269 490>
VStem: 2 682<0 0>
LayerCount: 2
Fore
SplineSet
361 895 m 1xdc
 490 895 l 1
 491 892 l 1
 370 750 l 1
 269 750 l 1
 361 895 l 1xdc
199 135 m 1
 151 0 l 1
 2 0 l 1
 251 686 l 1
 435 686 l 1
 684 0 l 1
 522 0 l 1
 472 135 l 1
 199 135 l 1
334 521 m 1xec
 241 252 l 1
 431 252 l 1
 401 342 370 432 339 521 c 1
 334 521 l 1xec
EndSplineSet
Validated: 1
Position2: "'cpsp' Capital Spacing lookup 0 subtable" dx=5 dy=0 dh=10 dv=0
EndChar

StartChar: Abreve
Encoding: 3 258 3
Width: 686
GlyphClass: 2
Flags: MW
HStem: 0 21G<2 151 2 2 522 522 522 684> 135 117<199 431 241 431 241 472> 521 165<334 334 334 339> 666 20G<251 435 435 435> 788 74<313 370 313 395.5>
VStem: 2 682<0 0>
LayerCount: 2
Fore
SplineSet
342 788 m 0xdc
 236 788 150 855 150 912 c 1
 231 912 l 1
 237 888 284 862 342 862 c 0
 398 862 448 890 453 912 c 1
 535 912 l 1
 535 855 449 788 342 788 c 0xdc
199 135 m 1
 151 0 l 1
 2 0 l 1
 251 686 l 1
 435 686 l 1
 684 0 l 1
 522 0 l 1
 472 135 l 1
 199 135 l 1
334 521 m 1xec
 241 252 l 1
 431 252 l 1
 401 342 370 432 339 521 c 1
 334 521 l 1xec
EndSplineSet
Validated: 1
EndChar

StartChar: Acircumflex
Encoding: 4 194 4
Width: 686
GlyphClass: 2
Flags: MW
HStem: 0 21G<2 151 2 2 522 522 522 684> 135 117<199 431 241 431 241 472> 521 165<334 334 334 339> 666 20G<251 435 435 435> 750 145<154 395 154 395 292 532 292 427>
VStem: 2 682<0 0>
LayerCount: 2
Fore
SplineSet
292 895 m 1xdc
 395 895 l 1
 440 847 486 798 532 750 c 1
 427 750 l 1
 343 833 l 1
 258 750 l 1
 154 750 l 1
 292 895 l 1xdc
199 135 m 1
 151 0 l 1
 2 0 l 1
 251 686 l 1
 435 686 l 1
 684 0 l 1
 522 0 l 1
 472 135 l 1
 199 135 l 1
334 521 m 1xec
 241 252 l 1
 431 252 l 1
 401 342 370 432 339 521 c 1
 334 521 l 1xec
EndSplineSet
Validated: 1
Position2: "'cpsp' Capital Spacing lookup 0 subtable" dx=5 dy=0 dh=10 dv=0
EndChar

StartChar: Adieresis
Encoding: 5 196 5
Width: 686
GlyphClass: 2
Flags: MW
HStem: 0 21G<2 151 2 2 522 522 522 684> 135 117<199 431 241 431 241 472> 521 165<334 334 334 339> 666 20G<251 435 435 435> 749 122<176 297 176 297 176 380 380 501>
VStem: 176 121<749 871 749 871> 380 121<749 871 749 871>
LayerCount: 2
Fore
SplineSet
297 871 m 1xde
 297 749 l 1
 176 749 l 1
 176 871 l 1
 297 871 l 1xde
501 871 m 1
 501 749 l 1
 380 749 l 1
 380 871 l 1
 501 871 l 1
199 135 m 1
 151 0 l 1
 2 0 l 1
 251 686 l 1
 435 686 l 1
 684 0 l 1
 522 0 l 1
 472 135 l 1
 199 135 l 1
334 521 m 1xee
 241 252 l 1
 431 252 l 1
 401 342 370 432 339 521 c 1
 334 521 l 1xee
EndSplineSet
Validated: 1
Position2: "'cpsp' Capital Spacing lookup 0 subtable" dx=5 dy=0 dh=10 dv=0
EndChar

StartChar: Agrave
Encoding: 6 192 6
Width: 686
GlyphClass: 2
Flags: MW
HStem: 0 21G<2 151 2 2 522 522 522 684> 135 117<199 431 241 431 241 472> 521 165<334 334 334 339> 666 20G<251 435 435 435> 750 145<307 316 188 409 307 307>
VStem: 2 682<0 0>
LayerCount: 2
Fore
SplineSet
187 892 m 1xdc
 188 895 l 1
 316 895 l 1
 409 750 l 1
 307 750 l 1
 187 892 l 1xdc
199 135 m 1
 151 0 l 1
 2 0 l 1
 251 686 l 1
 435 686 l 1
 684 0 l 1
 522 0 l 1
 472 135 l 1
 199 135 l 1
334 521 m 1xec
 241 252 l 1
 431 252 l 1
 401 342 370 432 339 521 c 1
 334 521 l 1xec
EndSplineSet
Validated: 1
Position2: "'cpsp' Capital Spacing lookup 0 subtable" dx=5 dy=0 dh=10 dv=0
EndChar

StartChar: Amacron
Encoding: 7 256 7
Width: 686
GlyphClass: 2
Flags: MW
HStem: 0 21G<2 151 2 2 522 522 522 684> 135 117<199 431 241 431 241 472> 521 165<334 334 334 339> 666 20G<251 435 435 435> 837 74<184 502 184 502>
VStem: 2 682<0 0>
LayerCount: 2
Fore
SplineSet
184 911 m 1xdc
 502 911 l 1
 502 837 l 1
 184 837 l 1
 184 911 l 1xdc
199 135 m 1
 151 0 l 1
 2 0 l 1
 251 686 l 1
 435 686 l 1
 684 0 l 1
 522 0 l 1
 472 135 l 1
 199 135 l 1
334 521 m 1xec
 241 252 l 1
 431 252 l 1
 401 342 370 432 339 521 c 1
 334 521 l 1xec
EndSplineSet
Validated: 1
EndChar

StartChar: Aogonek
Encoding: 8 260 8
Width: 686
GlyphClass: 2
Flags: MW
HStem: -143 50<603.5 614.5> 0 21G<2 151 2 2 522 555 522 522 617 617 617 684> 135 117<241 431 241 472 199 431> 521 165<334 339 334 334> 666 20G<251 435 435 435>
VStem: 501 69<-71 -55>
LayerCount: 2
Fore
SplineSet
681 -79 m 1xec
 694 -119 l 1
 665 -135 631 -143 598 -143 c 0
 552 -143 501 -126 501 -71 c 0
 501 -39 531 -16 555 0 c 1
 522 0 l 1
 472 135 l 1
 199 135 l 1
 151 0 l 1
 2 0 l 1
 251 686 l 1
 435 686 l 1
 684 0 l 1
 617 0 l 1
 597 -11 570 -32 570 -57 c 0
 570 -85 593 -93 614 -93 c 0
 638 -93 660 -87 681 -79 c 1xec
241 252 m 1
 431 252 l 1
 401 342 370 432 339 521 c 1
 334 521 l 1xf4
 241 252 l 1
EndSplineSet
Validated: 1
EndChar

StartChar: Aring
Encoding: 9 197 9
Width: 686
GlyphClass: 2
Flags: MW
HStem: 0 21G<2 151 2 2 522 522 522 684> 135 117<199 431 241 431 241 472> 521 165<334 334 334 339> 666 20G<251 435 435 435> 729 57<335 359 335 375> 874 57<335 359>
VStem: 246 57<818 842 818 858> 391 57<818 842>
LayerCount: 2
Fore
SplineSet
246 830 m 0xdf
 246 886 291 931 347 931 c 0
 403 931 448 886 448 830 c 0
 448 774 403 729 347 729 c 0
 291 729 246 774 246 830 c 0xdf
303 830 m 0
 303 806 323 786 347 786 c 0
 371 786 391 806 391 830 c 0
 391 854 371 874 347 874 c 0
 323 874 303 854 303 830 c 0
199 135 m 1
 151 0 l 1
 2 0 l 1
 251 686 l 1
 435 686 l 1
 684 0 l 1
 522 0 l 1
 472 135 l 1
 199 135 l 1
334 521 m 1xef
 241 252 l 1
 431 252 l 1
 401 342 370 432 339 521 c 1
 334 521 l 1xef
EndSplineSet
Validated: 1
Position2: "'cpsp' Capital Spacing lookup 0 subtable" dx=5 dy=0 dh=10 dv=0
EndChar

StartChar: Atilde
Encoding: 10 195 10
Width: 686
GlyphClass: 2
Flags: MW
HStem: 0 21G<2 151 2 2 522 522 522 684> 135 117<199 431 241 431 241 472> 521 165<334 334 334 339> 666 20G<251 435 435 435> 749 86<401 442 401 459> 786 87<235 276>
VStem: 2 682<0 0>
LayerCount: 2
Fore
SplineSet
481 873 m 1xda
 546 873 l 1xda
 546 813 498 749 420 749 c 0
 356 749 303 786 249 786 c 0xd6
 221 786 204 772 197 749 c 1
 131 749 l 1
 131 808 180 873 258 873 c 0
 322 873 374 835 428 835 c 0
 456 835 474 850 481 873 c 1xda
199 135 m 1
 151 0 l 1
 2 0 l 1
 251 686 l 1
 435 686 l 1
 684 0 l 1
 522 0 l 1
 472 135 l 1
 199 135 l 1
334 521 m 1xea
 241 252 l 1
 431 252 l 1
 401 342 370 432 339 521 c 1
 334 521 l 1xea
EndSplineSet
Validated: 1
Position2: "'cpsp' Capital Spacing lookup 0 subtable" dx=5 dy=0 dh=10 dv=0
EndChar

StartChar: AE
Encoding: 11 198 11
Width: 1004
GlyphClass: 2
Flags: MW
HStem: 0 126<653 947 653 964> 135 117<273 464 273 488 215 464> 290 121<615 922 615 615> 562 124<555 944 555 555>
VStem: 0 964<0 0>
LayerCount: 2
Fore
SplineSet
488 135 m 1
 215 135 l 1xf8
 192 90 169 45 147 0 c 1
 0 0 l 1
 344 686 l 1
 960 686 l 1
 944 562 l 1
 555 562 l 1
 589 411 l 1
 922 411 l 1
 922 290 l 1
 615 290 l 1
 628 236 641 181 653 126 c 1
 947 126 l 1
 964 0 l 1
 518 0 l 1xb8
 488 135 l 1
409 521 m 1
 404 521 l 1
 360 432 317 342 273 252 c 1
 464 252 l 1
 445 342 428 432 409 521 c 1
EndSplineSet
Validated: 1
Position2: "'cpsp' Capital Spacing lookup 0 subtable" dx=5 dy=0 dh=10 dv=0
EndChar

StartChar: B
Encoding: 12 66 12
Width: 645
GlyphClass: 2
Flags: MW
HStem: 0 124<218 379 379 401 218 418> 291 117<218 368 368 379 218 368> 568 118<218 368 218 218>
VStem: 72 146<124 124 124 291 408 568> 444 148<467.5 520> 458 150<203 212 212 234>
LayerCount: 2
Fore
SplineSet
72 686 m 1xf4
 412 686 l 2
 511 686 592 611 592 518 c 0xf8
 592 417 534 374 475 358 c 1
 475 353 l 1
 534 341 608 299 608 183 c 0
 608 82 523 0 418 0 c 2
 72 0 l 1
 72 686 l 1xf4
218 408 m 1
 368 408 l 2
 407 408 444 441 444 489 c 0
 444 551 400 568 368 568 c 2
 218 568 l 1
 218 408 l 1
218 124 m 1
 379 124 l 2
 423 124 458 159 458 203 c 2
 458 212 l 2
 458 256 423 291 379 291 c 2xf4
 218 291 l 1
 218 124 l 1
EndSplineSet
Validated: 1
Position2: "'cpsp' Capital Spacing lookup 0 subtable" dx=5 dy=0 dh=10 dv=0
EndChar

StartChar: C
Encoding: 13 67 13
Width: 683
GlyphClass: 2
Flags: MW
HStem: -10 123<315 348 348 362> 573 123<344 358 358 397>
VStem: 48 162<294 392 392 414 219.5 489> 494 141<216.5 270>
AnchorPoint: "Bottom" 342 0 basechar 0
LayerCount: 2
Fore
SplineSet
210 414 m 2
 210 272 l 2
 210 167 275 113 355 113 c 0
 450 113 494 163 494 270 c 1
 635 270 l 1
 635 88 515 -10 362 -10 c 2
 348 -10 l 2
 178 -10 48 95 48 294 c 2
 48 392 l 2
 48 586 180 696 344 696 c 2
 358 696 l 2
 514 696 635 603 635 414 c 1
 488 414 l 1
 488 519 440 573 354 573 c 0
 274 573 210 519 210 414 c 2
EndSplineSet
Validated: 1
Position2: "'cpsp' Capital Spacing lookup 0 subtable" dx=5 dy=0 dh=10 dv=0
EndChar

StartChar: Cacute
Encoding: 14 262 14
Width: 683
GlyphClass: 2
Flags: MW
HStem: -10 123<315 348 348 362> 573 123<344 358 358 397> 750 145<353 362 261 482>
VStem: 48 162<294 392 392 414 219.5 489> 494 141<216.5 270>
AnchorPoint: "Bottom" 342 0 basechar 0
LayerCount: 2
Fore
SplineSet
353 895 m 1
 482 895 l 1
 483 892 l 1
 362 750 l 1
 261 750 l 1
 353 895 l 1
210 414 m 2
 210 272 l 2
 210 167 275 113 355 113 c 0
 450 113 494 163 494 270 c 1
 635 270 l 1
 635 88 515 -10 362 -10 c 2
 348 -10 l 2
 178 -10 48 95 48 294 c 2
 48 392 l 2
 48 586 180 696 344 696 c 2
 358 696 l 2
 514 696 635 603 635 414 c 1
 488 414 l 1
 488 519 440 573 354 573 c 0
 274 573 210 519 210 414 c 2
EndSplineSet
Validated: 1
EndChar

StartChar: Ccaron
Encoding: 15 268 15
Width: 683
GlyphClass: 2
Flags: MW
HStem: -10 123<315 348 348 362> 573 123<344 358 358 397> 750 145<153 394 153 291>
VStem: 48 162<294 392 392 414 219.5 489> 494 141<216.5 270>
AnchorPoint: "Bottom" 342 0 basechar 0
LayerCount: 2
Fore
SplineSet
258 895 m 1
 343 812 l 1
 427 895 l 1
 531 895 l 1
 485 847 439 798 394 750 c 1
 291 750 l 1
 153 895 l 1
 258 895 l 1
210 414 m 2
 210 272 l 2
 210 167 275 113 355 113 c 0
 450 113 494 163 494 270 c 1
 635 270 l 1
 635 88 515 -10 362 -10 c 2
 348 -10 l 2
 178 -10 48 95 48 294 c 2
 48 392 l 2
 48 586 180 696 344 696 c 2
 358 696 l 2
 514 696 635 603 635 414 c 1
 488 414 l 1
 488 519 440 573 354 573 c 0
 274 573 210 519 210 414 c 2
EndSplineSet
Validated: 1
EndChar

StartChar: Ccedilla
Encoding: 16 199 16
Width: 683
GlyphClass: 2
Flags: MW
HStem: -197 55<323.5 351.5 314.5 364> -68 51<322 342 322 345> -10 123<315 348 348 362> 573 123<344 358 358 397>
VStem: 48 162<294 392 392 414 219.5 489> 387 74<-117.5 -92.5> 494 141<216.5 270>
LayerCount: 2
Fore
SplineSet
210 414 m 2
 210 272 l 2
 210 167 275 113 355 113 c 0
 450 113 494 163 494 270 c 1
 635 270 l 1
 635 88 515 -10 362 -10 c 2
 348 -10 l 2
 178 -10 48 95 48 294 c 2
 48 392 l 2
 48 586 180 696 344 696 c 2
 358 696 l 2
 514 696 635 603 635 414 c 1
 488 414 l 1
 488 519 440 573 354 573 c 0
 274 573 210 519 210 414 c 2
234 -168 m 1
 255 -116 l 1
 261 -119 291 -142 338 -142 c 0
 365 -142 387 -131 387 -104 c 0
 387 -81 370 -68 342 -68 c 2
 322 -68 l 1
 322 -17 l 1
 345 -17 l 2xde
 402 -17 461 -34 461 -107 c 0
 461 -182 386 -197 342 -197 c 0
 305 -197 261 -187 234 -168 c 1
EndSplineSet
Validated: 1
Position2: "'cpsp' Capital Spacing lookup 0 subtable" dx=5 dy=0 dh=10 dv=0
EndChar

StartChar: D
Encoding: 17 68 17
Width: 686
GlyphClass: 2
Flags: MW
HStem: 0 123<227 332 227 332> 563 123<227 332 227 227>
VStem: 72 155<123 123 123 563> 476 162<282 304 304 382 206.5 404 206.5 456.5>
LayerCount: 2
Fore
SplineSet
72 686 m 1
 332 686 l 2
 499 686 638 577 638 382 c 2
 638 304 l 2
 638 109 499 0 332 0 c 2
 72 0 l 1
 72 686 l 1
227 123 m 1
 332 123 l 2
 414 123 476 177 476 282 c 2
 476 404 l 2
 476 509 414 563 332 563 c 2
 227 563 l 1
 227 123 l 1
EndSplineSet
Validated: 1
Position2: "'cpsp' Capital Spacing lookup 0 subtable" dx=5 dy=0 dh=10 dv=0
EndChar

StartChar: Eth
Encoding: 18 208 18
Width: 686
GlyphClass: 2
Flags: MW
HStem: 0 124<227 337 337 347> 303 80<-11 73 -11 73 227 339> 563 123<227 337 227 227>
VStem: 73 154<124 124 124 303 383 563> 480 158<317 382 210.5 387 210.5 443.5>
LayerCount: 2
Fore
SplineSet
73 383 m 1
 73 686 l 1
 347 686 l 2
 508 686 638 569 638 382 c 2
 638 304 l 2
 638 117 508 0 347 0 c 2
 73 0 l 1
 73 303 l 1
 -11 303 l 1
 -11 383 l 1
 73 383 l 1
227 124 m 1
 337 124 l 2
 437 124 480 193 480 317 c 2
 480 387 l 2
 480 500 429 563 337 563 c 2
 227 563 l 1
 227 383 l 1
 339 383 l 1
 339 303 l 1
 227 303 l 1
 227 124 l 1
EndSplineSet
Validated: 1
Position2: "'cpsp' Capital Spacing lookup 0 subtable" dx=5 dy=0 dh=10 dv=0
EndChar

StartChar: Dcaron
Encoding: 19 270 19
Width: 686
GlyphClass: 2
Flags: MW
HStem: 0 123<227 332 227 332> 563 123<227 332 227 227> 750 145<154 395 154 292>
VStem: 72 155<123 123 123 563> 476 162<282 304 304 382 206.5 404 206.5 456.5>
LayerCount: 2
Fore
SplineSet
259 895 m 1
 344 812 l 1
 428 895 l 1
 532 895 l 1
 486 847 440 798 395 750 c 1
 292 750 l 1
 154 895 l 1
 259 895 l 1
72 686 m 1
 332 686 l 2
 499 686 638 577 638 382 c 2
 638 304 l 2
 638 109 499 0 332 0 c 2
 72 0 l 1
 72 686 l 1
227 123 m 1
 332 123 l 2
 414 123 476 177 476 282 c 2
 476 404 l 2
 476 509 414 563 332 563 c 2
 227 563 l 1
 227 123 l 1
EndSplineSet
Validated: 1
EndChar

StartChar: Dcroat
Encoding: 20 272 20
Width: 686
GlyphClass: 2
Flags: MW
HStem: 0 124<227 337 337 347> 303 80<-11 73 -11 73 227 339> 563 123<227 337 227 227>
VStem: 73 154<124 124 124 303 383 563> 480 158<317 382 210.5 387 210.5 443.5>
LayerCount: 2
Fore
SplineSet
73 383 m 1
 73 686 l 1
 347 686 l 2
 508 686 638 569 638 382 c 2
 638 304 l 2
 638 117 508 0 347 0 c 2
 73 0 l 1
 73 303 l 1
 -11 303 l 1
 -11 383 l 1
 73 383 l 1
227 124 m 1
 337 124 l 2
 437 124 480 193 480 317 c 2
 480 387 l 2
 480 500 429 563 337 563 c 2
 227 563 l 1
 227 383 l 1
 339 383 l 1
 339 303 l 1
 227 303 l 1
 227 124 l 1
EndSplineSet
Validated: 1
EndChar

StartChar: E
Encoding: 21 69 21
Width: 598
GlyphClass: 2
Flags: MW
HStem: 0 123<224 541 224 558> 290 123<224 517 224 517> 563 123<224 538 224 224>
VStem: 72 152<123 290 413 563>
AnchorPoint: "Bottom" 299 0 basechar 0
LayerCount: 2
Fore
SplineSet
72 686 m 1
 555 686 l 1
 538 563 l 1
 224 563 l 1
 224 413 l 1
 517 413 l 1
 517 290 l 1
 224 290 l 1
 224 123 l 1
 541 123 l 1
 558 0 l 1
 72 0 l 1
 72 686 l 1
EndSplineSet
Validated: 1
Position2: "'cpsp' Capital Spacing lookup 0 subtable" dx=5 dy=0 dh=10 dv=0
EndChar

StartChar: Eacute
Encoding: 22 201 22
Width: 598
GlyphClass: 2
Flags: MW
HStem: 0 123<224 541 224 558> 290 123<224 517 224 517> 563 123<224 538 224 224> 750 145<355 364 263 484>
VStem: 72 152<123 290 413 563>
LayerCount: 2
Fore
SplineSet
355 895 m 1
 484 895 l 1
 485 892 l 1
 364 750 l 1
 263 750 l 1
 355 895 l 1
72 686 m 1
 555 686 l 1
 538 563 l 1
 224 563 l 1
 224 413 l 1
 517 413 l 1
 517 290 l 1
 224 290 l 1
 224 123 l 1
 541 123 l 1
 558 0 l 1
 72 0 l 1
 72 686 l 1
EndSplineSet
Validated: 1
Position2: "'cpsp' Capital Spacing lookup 0 subtable" dx=5 dy=0 dh=10 dv=0
EndChar

StartChar: Ecaron
Encoding: 23 282 23
Width: 598
GlyphClass: 2
Flags: MW
HStem: 0 123<224 541 224 558> 290 123<224 517 224 517> 563 123<224 538 224 224> 750 145<110 351 110 248>
VStem: 72 152<123 290 413 563>
AnchorPoint: "Bottom" 299 0 basechar 0
LayerCount: 2
Fore
SplineSet
215 895 m 1
 300 812 l 1
 384 895 l 1
 488 895 l 1
 442 847 396 798 351 750 c 1
 248 750 l 1
 110 895 l 1
 215 895 l 1
72 686 m 1
 555 686 l 1
 538 563 l 1
 224 563 l 1
 224 413 l 1
 517 413 l 1
 517 290 l 1
 224 290 l 1
 224 123 l 1
 541 123 l 1
 558 0 l 1
 72 0 l 1
 72 686 l 1
EndSplineSet
Validated: 1
EndChar

StartChar: Ecircumflex
Encoding: 24 202 24
Width: 598
GlyphClass: 2
Flags: MW
HStem: 0 123<224 541 224 558> 290 123<224 517 224 517> 563 123<224 538 224 224> 750 145<123 364 123 364 261 501 261 396>
VStem: 72 152<123 290 413 563>
LayerCount: 2
Fore
SplineSet
261 895 m 1
 364 895 l 1
 409 847 455 798 501 750 c 1
 396 750 l 1
 312 833 l 1
 227 750 l 1
 123 750 l 1
 261 895 l 1
72 686 m 1
 555 686 l 1
 538 563 l 1
 224 563 l 1
 224 413 l 1
 517 413 l 1
 517 290 l 1
 224 290 l 1
 224 123 l 1
 541 123 l 1
 558 0 l 1
 72 0 l 1
 72 686 l 1
EndSplineSet
Validated: 1
Position2: "'cpsp' Capital Spacing lookup 0 subtable" dx=5 dy=0 dh=10 dv=0
EndChar

StartChar: Edieresis
Encoding: 25 203 25
Width: 598
GlyphClass: 2
Flags: MW
HStem: 0 123<224 541 224 558> 290 123<224 517 224 517> 563 123<224 538 224 224> 750 122<152 273 152 273 152 356 356 477>
VStem: 72 152<123 290 413 563> 152 121<750 872 750 872> 356 121<750 872 750 872>
LayerCount: 2
Fore
SplineSet
273 872 m 1xf6
 273 750 l 1
 152 750 l 1
 152 872 l 1
 273 872 l 1xf6
477 872 m 1
 477 750 l 1
 356 750 l 1
 356 872 l 1
 477 872 l 1
72 686 m 1xfa
 555 686 l 1
 538 563 l 1
 224 563 l 1
 224 413 l 1
 517 413 l 1
 517 290 l 1
 224 290 l 1
 224 123 l 1
 541 123 l 1
 558 0 l 1
 72 0 l 1
 72 686 l 1xfa
EndSplineSet
Validated: 1
Position2: "'cpsp' Capital Spacing lookup 0 subtable" dx=5 dy=0 dh=10 dv=0
EndChar

StartChar: Edotaccent
Encoding: 26 278 26
Width: 598
GlyphClass: 2
Flags: MW
HStem: 0 123<224 541 224 558> 290 123<224 517 224 517> 563 123<224 538 224 224> 779 132<280.5 316.5>
VStem: 72 152<123 290 413 563> 233 132<827 863 826 863.5>
AnchorPoint: "Bottom" 299 0 basechar 0
LayerCount: 2
Fore
SplineSet
365 845 m 0
 365 807 335 779 298 779 c 0
 263 779 233 809 233 845 c 0
 233 882 262 911 299 911 c 0
 336 911 365 881 365 845 c 0
72 686 m 1xe8
 555 686 l 1
 538 563 l 1
 224 563 l 1
 224 413 l 1
 517 413 l 1
 517 290 l 1
 224 290 l 1
 224 123 l 1
 541 123 l 1
 558 0 l 1
 72 0 l 1
 72 686 l 1xe8
EndSplineSet
Validated: 1
EndChar

StartChar: Egrave
Encoding: 27 200 27
Width: 598
GlyphClass: 2
Flags: MW
HStem: 0 123<224 541 224 558> 290 123<224 517 224 517> 563 123<224 538 224 224> 750 145<277 286 158 379 277 277>
VStem: 72 152<123 290 413 563>
LayerCount: 2
Fore
SplineSet
157 892 m 1
 158 895 l 1
 286 895 l 1
 379 750 l 1
 277 750 l 1
 157 892 l 1
72 686 m 1
 555 686 l 1
 538 563 l 1
 224 563 l 1
 224 413 l 1
 517 413 l 1
 517 290 l 1
 224 290 l 1
 224 123 l 1
 541 123 l 1
 558 0 l 1
 72 0 l 1
 72 686 l 1
EndSplineSet
Validated: 1
Position2: "'cpsp' Capital Spacing lookup 0 subtable" dx=5 dy=0 dh=10 dv=0
EndChar

StartChar: Emacron
Encoding: 28 274 28
Width: 598
GlyphClass: 2
Flags: MW
HStem: 0 123<224 541 224 558> 290 123<224 517 224 517> 563 123<224 538 224 224> 837 74<140 458 140 458>
VStem: 72 152<123 290 413 563>
AnchorPoint: "Bottom" 299 0 basechar 0
LayerCount: 2
Fore
SplineSet
140 911 m 1
 458 911 l 1
 458 837 l 1
 140 837 l 1
 140 911 l 1
72 686 m 1
 555 686 l 1
 538 563 l 1
 224 563 l 1
 224 413 l 1
 517 413 l 1
 517 290 l 1
 224 290 l 1
 224 123 l 1
 541 123 l 1
 558 0 l 1
 72 0 l 1
 72 686 l 1
EndSplineSet
Validated: 1
EndChar

StartChar: Eogonek
Encoding: 29 280 29
Width: 598
GlyphClass: 2
Flags: MW
HStem: -143 50<514.5 525.5> 0 123<224 466 528 528 528 541 224 558> 290 123<224 517 224 517> 563 123<224 538 224 224>
VStem: 72 152<123 290 413 563> 412 69<-71 -55>
AnchorPoint: "Bottom" 299 0 basechar 0
LayerCount: 2
Fore
SplineSet
592 -79 m 1
 605 -119 l 1
 576 -135 542 -143 509 -143 c 0
 463 -143 412 -126 412 -71 c 0
 412 -39 442 -16 466 0 c 1
 72 0 l 1
 72 686 l 1
 555 686 l 1
 538 563 l 1
 224 563 l 1
 224 413 l 1
 517 413 l 1
 517 290 l 1
 224 290 l 1
 224 123 l 1
 541 123 l 1
 558 0 l 1
 528 0 l 1
 508 -11 481 -32 481 -57 c 0
 481 -85 504 -93 525 -93 c 0
 549 -93 571 -87 592 -79 c 1
EndSplineSet
Validated: 1
EndChar

StartChar: F
Encoding: 30 70 30
Width: 563
GlyphClass: 2
Flags: MW
HStem: 0 21G<72 224 72 72> 276 123<224 490 224 490> 563 123<224 224 224 520>
VStem: 72 152<0 276 399 563>
LayerCount: 2
Fore
SplineSet
224 563 m 1
 224 399 l 1
 490 399 l 1
 490 276 l 1
 224 276 l 1
 224 0 l 1
 72 0 l 1
 72 686 l 1
 536 686 l 1
 520 563 l 1
 224 563 l 1
EndSplineSet
Validated: 1
Position2: "'cpsp' Capital Spacing lookup 0 subtable" dx=5 dy=0 dh=10 dv=0
EndChar

StartChar: G
Encoding: 31 71 31
Width: 699
GlyphClass: 2
Flags: MW
HStem: -10 123<316 332 332 337> 0 21G<554 639 554 554> 261 112<333 488 333 633> 573 123<348 362 362 389>
VStem: 48 162<294 392 392 414 219.5 485.5> 488 145<210 261>
AnchorPoint: "Bottom" 350 0 basechar 0
LayerCount: 2
Fore
SplineSet
210 414 m 2xbc
 210 272 l 2
 210 167 276 113 356 113 c 0xbc
 436 113 488 159 488 261 c 1
 333 261 l 1
 333 373 l 1
 633 373 l 1
 633 136 l 2
 633 56 639 0 639 0 c 1
 554 0 l 1x7c
 548 16 539 42 530 77 c 1
 487 23 415 -10 337 -10 c 2
 332 -10 l 2
 167 -10 48 107 48 294 c 2
 48 392 l 2
 48 579 173 696 348 696 c 2
 362 696 l 2
 512 696 633 597 633 442 c 1
 487 442 l 1
 487 534 425 573 353 573 c 0
 272 573 210 519 210 414 c 2xbc
EndSplineSet
Validated: 1
Position2: "'cpsp' Capital Spacing lookup 0 subtable" dx=5 dy=0 dh=10 dv=0
EndChar

StartChar: Gbreve
Encoding: 32 286 32
Width: 699
GlyphClass: 2
Flags: MW
HStem: -10 123<316 332 332 337> 0 21G<554 639 554 554> 261 112<333 488 333 633> 573 123<348 362 362 389> 788 74<320 377 320 402.5>
VStem: 48 162<294 392 392 414 219.5 485.5> 488 145<210 261>
AnchorPoint: "Bottom" 350 0 basechar 0
LayerCount: 2
Fore
SplineSet
349 788 m 0xbe
 243 788 157 855 157 912 c 1
 238 912 l 1
 244 888 291 862 349 862 c 0
 405 862 455 890 460 912 c 1
 542 912 l 1
 542 855 456 788 349 788 c 0xbe
210 414 m 2
 210 272 l 2
 210 167 276 113 356 113 c 0xbe
 436 113 488 159 488 261 c 1
 333 261 l 1
 333 373 l 1
 633 373 l 1
 633 136 l 2
 633 56 639 0 639 0 c 1
 554 0 l 1x7e
 548 16 539 42 530 77 c 1
 487 23 415 -10 337 -10 c 2
 332 -10 l 2
 167 -10 48 107 48 294 c 2
 48 392 l 2
 48 579 173 696 348 696 c 2
 362 696 l 2
 512 696 633 597 633 442 c 1
 487 442 l 1
 487 534 425 573 353 573 c 0
 272 573 210 519 210 414 c 2
EndSplineSet
Validated: 1
EndChar

StartChar: Gcommaaccent
Encoding: 33 290 33
Width: 699
GlyphClass: 2
Flags: MW
HStem: -167 137<283 346 283 429> -10 123<316 332 332 337> 0 21G<554 639 554 554> 261 112<333 488 333 633> 573 123<348 362 362 389>
VStem: 48 162<294 392 392 414 219.5 485.5> 283 146<-143 -30 -143 -30 -143 -30> 488 145<210 261>
AnchorPoint: "Bottom" 350 0 basechar 0
LayerCount: 2
Fore
SplineSet
210 414 m 2x5f
 210 272 l 2
 210 167 276 113 356 113 c 0x5f
 436 113 488 159 488 261 c 1
 333 261 l 1
 333 373 l 1
 633 373 l 1
 633 136 l 2
 633 56 639 0 639 0 c 1
 554 0 l 1x3f
 548 16 539 42 530 77 c 1
 487 23 415 -10 337 -10 c 2
 332 -10 l 2
 167 -10 48 107 48 294 c 2
 48 392 l 2
 48 579 173 696 348 696 c 2
 362 696 l 2
 512 696 633 597 633 442 c 1
 487 442 l 1
 487 534 425 573 353 573 c 0
 272 573 210 519 210 414 c 2x5f
346 -167 m 1xdf
 283 -167 l 1
 283 -30 l 1
 429 -30 l 1
 429 -143 l 1
 404 -250 l 1
 330 -250 l 1
 346 -167 l 1xdf
EndSplineSet
Validated: 1
EndChar

StartChar: H
Encoding: 34 72 34
Width: 691
GlyphClass: 2
Flags: MW
HStem: 0 21G<72 227 72 72 464 464 464 618> 286 128<227 464 227 227> 666 20G<72 226 226 226 464 618 618 618>
VStem: 72 155<0 286 0 686> 464 154<0 286 286 286 414 686 0 686>
LayerCount: 2
Fore
SplineSet
464 286 m 1
 227 286 l 1
 227 0 l 1
 72 0 l 1
 72 686 l 1
 226 686 l 1
 226 414 l 1
 464 414 l 1
 464 686 l 1
 618 686 l 1
 618 0 l 1
 464 0 l 1
 464 286 l 1
EndSplineSet
Validated: 1
Position2: "'cpsp' Capital Spacing lookup 0 subtable" dx=5 dy=0 dh=10 dv=0
EndChar

StartChar: I
Encoding: 35 73 35
Width: 461
GlyphClass: 2
Flags: MW
HStem: 0 123<72 153 308 388 72 153> 563 123<72 153 72 388 308 388 308 308>
VStem: 153 155<123 563 123 563>
LayerCount: 2
Fore
SplineSet
388 686 m 1
 388 563 l 1
 308 563 l 1
 308 123 l 1
 388 123 l 1
 388 0 l 1
 72 0 l 1
 72 123 l 1
 153 123 l 1
 153 563 l 1
 72 563 l 1
 72 686 l 1
 388 686 l 1
EndSplineSet
Validated: 1
Position2: "'cpsp' Capital Spacing lookup 0 subtable" dx=5 dy=0 dh=10 dv=0
EndChar

StartChar: Iacute
Encoding: 36 205 36
Width: 461
GlyphClass: 2
Flags: MW
HStem: 0 123<72 153 308 388 72 153> 563 123<72 153 72 388 308 388 308 308> 750 145<261 270 169 390>
VStem: 153 155<123 563 123 563>
LayerCount: 2
Fore
SplineSet
261 895 m 1
 390 895 l 1
 391 892 l 1
 270 750 l 1
 169 750 l 1
 261 895 l 1
388 686 m 1
 388 563 l 1
 308 563 l 1
 308 123 l 1
 388 123 l 1
 388 0 l 1
 72 0 l 1
 72 123 l 1
 153 123 l 1
 153 563 l 1
 72 563 l 1
 72 686 l 1
 388 686 l 1
EndSplineSet
Validated: 1
Position2: "'cpsp' Capital Spacing lookup 0 subtable" dx=5 dy=0 dh=10 dv=0
EndChar

StartChar: Icircumflex
Encoding: 37 206 37
Width: 461
GlyphClass: 2
Flags: MW
HStem: 0 123<72 153 308 388 72 153> 563 123<72 153 72 388 308 388 308 308> 750 145<42 283 42 283 180 420 180 315>
VStem: 153 155<123 563 123 563>
LayerCount: 2
Fore
SplineSet
180 895 m 1
 283 895 l 1
 328 847 374 798 420 750 c 1
 315 750 l 1
 231 833 l 1
 146 750 l 1
 42 750 l 1
 180 895 l 1
388 686 m 1
 388 563 l 1
 308 563 l 1
 308 123 l 1
 388 123 l 1
 388 0 l 1
 72 0 l 1
 72 123 l 1
 153 123 l 1
 153 563 l 1
 72 563 l 1
 72 686 l 1
 388 686 l 1
EndSplineSet
Validated: 1
Position2: "'cpsp' Capital Spacing lookup 0 subtable" dx=5 dy=0 dh=10 dv=0
EndChar

StartChar: Idieresis
Encoding: 38 207 38
Width: 461
GlyphClass: 2
Flags: MW
HStem: 0 123<72 153 308 388 72 153> 563 123<72 153 72 388 308 388 308 308> 750 122<70 191 70 191 70 274 274 395>
VStem: 70 121<750 872 750 872> 153 155<123 563 123 563> 274 121<750 872 750 872>
LayerCount: 2
Fore
SplineSet
191 872 m 1xf4
 191 750 l 1
 70 750 l 1
 70 872 l 1
 191 872 l 1xf4
395 872 m 1
 395 750 l 1
 274 750 l 1
 274 872 l 1
 395 872 l 1
388 686 m 1
 388 563 l 1xe4
 308 563 l 1
 308 123 l 1
 388 123 l 1
 388 0 l 1
 72 0 l 1
 72 123 l 1
 153 123 l 1
 153 563 l 1xe8
 72 563 l 1
 72 686 l 1
 388 686 l 1
EndSplineSet
Validated: 1
Position2: "'cpsp' Capital Spacing lookup 0 subtable" dx=5 dy=0 dh=10 dv=0
EndChar

StartChar: Idotaccent
Encoding: 39 304 39
Width: 461
GlyphClass: 2
Flags: MW
HStem: 0 123<72 153 308 388 72 153> 563 123<72 153 72 388 308 388 308 308> 779 132<212.5 248.5>
VStem: 153 155<123 563 123 563> 165 132<827 863 826 863.5>
LayerCount: 2
Fore
SplineSet
297 845 m 0xe8
 297 807 267 779 230 779 c 0
 195 779 165 809 165 845 c 0
 165 882 194 911 231 911 c 0
 268 911 297 881 297 845 c 0xe8
388 686 m 1
 388 563 l 1
 308 563 l 1
 308 123 l 1
 388 123 l 1
 388 0 l 1
 72 0 l 1
 72 123 l 1
 153 123 l 1
 153 563 l 1
 72 563 l 1
 72 686 l 1xd0
 388 686 l 1
EndSplineSet
Validated: 1
EndChar

StartChar: Igrave
Encoding: 40 204 40
Width: 461
GlyphClass: 2
Flags: MW
HStem: 0 123<72 153 308 388 72 153> 563 123<72 153 72 388 308 388 308 308> 750 145<192 201 73 294 192 192>
VStem: 153 155<123 563 123 563>
LayerCount: 2
Fore
SplineSet
72 892 m 1
 73 895 l 1
 201 895 l 1
 294 750 l 1
 192 750 l 1
 72 892 l 1
388 686 m 1
 388 563 l 1
 308 563 l 1
 308 123 l 1
 388 123 l 1
 388 0 l 1
 72 0 l 1
 72 123 l 1
 153 123 l 1
 153 563 l 1
 72 563 l 1
 72 686 l 1
 388 686 l 1
EndSplineSet
Validated: 1
Position2: "'cpsp' Capital Spacing lookup 0 subtable" dx=5 dy=0 dh=10 dv=0
EndChar

StartChar: Imacron
Encoding: 41 298 41
Width: 461
GlyphClass: 2
Flags: MW
HStem: 0 123<72 153 308 388 72 153> 563 123<72 153 72 388 308 388 308 308> 837 74<72 390 72 390>
VStem: 153 155<123 563 123 563>
LayerCount: 2
Fore
SplineSet
72 911 m 1
 390 911 l 1
 390 837 l 1
 72 837 l 1
 72 911 l 1
388 686 m 1
 388 563 l 1
 308 563 l 1
 308 123 l 1
 388 123 l 1
 388 0 l 1
 72 0 l 1
 72 123 l 1
 153 123 l 1
 153 563 l 1
 72 563 l 1
 72 686 l 1
 388 686 l 1
EndSplineSet
Validated: 1
EndChar

StartChar: Iogonek
Encoding: 42 302 42
Width: 461
GlyphClass: 2
Flags: MW
HStem: -143 50<351.5 362.5> 0 123<72 153 72 303 72 153 365 365 365 388> 563 123<72 153 72 388 308 308 308 388>
VStem: 153 155<123 563 123 563> 249 69<-71 -55>
LayerCount: 2
Fore
SplineSet
429 -79 m 1xf0
 442 -119 l 1
 413 -135 379 -143 346 -143 c 0
 300 -143 249 -126 249 -71 c 0
 249 -39 279 -16 303 0 c 1xe8
 72 0 l 1
 72 123 l 1
 153 123 l 1
 153 563 l 1
 72 563 l 1
 72 686 l 1
 388 686 l 1
 388 563 l 1
 308 563 l 1
 308 123 l 1
 388 123 l 1
 388 0 l 1xf0
 365 0 l 1
 345 -11 318 -32 318 -57 c 0
 318 -85 341 -93 362 -93 c 0xe8
 386 -93 408 -87 429 -79 c 1xf0
EndSplineSet
Validated: 1
EndChar

StartChar: J
Encoding: 43 74 43
Width: 527
GlyphClass: 2
Flags: MW
HStem: -10 123<209 219 219 239> -10 238<10 219 10 239> 666 20G<304 455 455 455>
VStem: 10 145<183 187 187 228 167 228> 304 151<187 686>
LayerCount: 2
Fore
SplineSet
155 228 m 1x78
 155 187 l 2
 155 147 190 113 228 113 c 0
 272 113 304 142 304 187 c 2
 304 686 l 1
 455 686 l 1
 455 183 l 2
 455 56 363 -10 239 -10 c 2
 219 -10 l 2xb8
 94 -10 10 57 10 183 c 2
 10 228 l 1
 155 228 l 1x78
EndSplineSet
Validated: 1
Position2: "'cpsp' Capital Spacing lookup 0 subtable" dx=5 dy=0 dh=10 dv=0
EndChar

StartChar: K
Encoding: 44 75 44
Width: 660
GlyphClass: 2
Flags: MW
HStem: 0 21G<72 223 72 72 475 650 475 475> 666 20G<72 223 223 223 470 643 643 643>
VStem: 72 151<0 179 372 686>
AnchorPoint: "Bottom" 330 0 basechar 0
LayerCount: 2
Fore
SplineSet
223 686 m 1
 223 372 l 1
 305 476 388 581 470 686 c 1
 643 686 l 1
 566 589 489 493 412 397 c 1
 492 264 570 132 650 0 c 1
 475 0 l 1
 312 278 l 1
 223 179 l 1
 223 0 l 1
 72 0 l 1
 72 686 l 1
 223 686 l 1
EndSplineSet
Validated: 1
Position2: "'cpsp' Capital Spacing lookup 0 subtable" dx=5 dy=0 dh=10 dv=0
EndChar

StartChar: Kcommaaccent
Encoding: 45 310 45
Width: 660
GlyphClass: 2
Flags: MW
HStem: -167 137<263 326 263 409> 0 21G<72 223 72 72 475 650 475 475> 666 20G<72 223 223 223 470 643 643 643>
VStem: 72 151<0 179 372 686> 263 146<-143 -30 -143 -30 -143 -30>
AnchorPoint: "Bottom" 330 0 basechar 0
LayerCount: 2
Fore
SplineSet
223 686 m 1
 223 372 l 1
 305 476 388 581 470 686 c 1
 643 686 l 1
 566 589 489 493 412 397 c 1
 492 264 570 132 650 0 c 1
 475 0 l 1
 312 278 l 1
 223 179 l 1
 223 0 l 1
 72 0 l 1
 72 686 l 1
 223 686 l 1
326 -167 m 1xf8
 263 -167 l 1
 263 -30 l 1
 409 -30 l 1
 409 -143 l 1
 384 -250 l 1
 310 -250 l 1
 326 -167 l 1xf8
EndSplineSet
Validated: 1
EndChar

StartChar: L
Encoding: 46 76 46
Width: 533
GlyphClass: 2
Flags: MW
HStem: 0 128<227 509 227 526> 666 20G<72 227 227 227>
VStem: 72 155<128 686 128 686 128 686>
AnchorPoint: "Bottom" 267 0 basechar 0
LayerCount: 2
Fore
SplineSet
72 686 m 1
 227 686 l 1
 227 128 l 1
 509 128 l 1
 526 0 l 1
 72 0 l 1
 72 686 l 1
EndSplineSet
Validated: 1
Position2: "'cpsp' Capital Spacing lookup 0 subtable" dx=5 dy=0 dh=10 dv=0
EndChar

StartChar: Lacute
Encoding: 47 313 47
Width: 533
GlyphClass: 2
Flags: MW
HStem: 0 128<227 509 227 526> 666 20G<72 227 227 227> 750 145<188 197 96 317>
VStem: 72 155<128 686 128 686 128 686>
AnchorPoint: "Bottom" 267 0 basechar 0
LayerCount: 2
Fore
SplineSet
188 895 m 1
 317 895 l 1
 318 892 l 1
 197 750 l 1
 96 750 l 1
 188 895 l 1
72 686 m 1
 227 686 l 1
 227 128 l 1
 509 128 l 1
 526 0 l 1
 72 0 l 1
 72 686 l 1
EndSplineSet
Validated: 1
EndChar

StartChar: Lcaron
Encoding: 48 317 48
Width: 533
GlyphClass: 2
Flags: MW
HStem: 0 128<227 509 227 526> 539 147<352 415 72 352>
VStem: 72 155<128 686 128 686 128 686> 352 146<563 686 563 686 563 686>
AnchorPoint: "Bottom" 267 0 basechar 0
LayerCount: 2
Fore
SplineSet
72 686 m 1
 227 686 l 1
 227 128 l 1
 509 128 l 1
 526 0 l 1
 72 0 l 1
 72 686 l 1
456 395 m 1
 383 395 l 1
 393 443 404 491 415 539 c 1
 352 539 l 1
 352 686 l 1
 498 686 l 1
 498 563 l 1
 456 395 l 1
EndSplineSet
Validated: 1
EndChar

StartChar: Lcommaaccent
Encoding: 49 315 49
Width: 533
GlyphClass: 2
Flags: MW
HStem: -167 137<200 263 200 346> 0 128<227 509 227 526> 666 20G<72 227 227 227>
VStem: 72 155<128 686 128 686 128 686> 200 146<-143 -30 -143 -30 -143 -30>
AnchorPoint: "Bottom" 267 0 basechar 0
LayerCount: 2
Fore
SplineSet
72 686 m 1x70
 227 686 l 1
 227 128 l 1
 509 128 l 1
 526 0 l 1
 72 0 l 1
 72 686 l 1x70
263 -167 m 1xe8
 200 -167 l 1
 200 -30 l 1
 346 -30 l 1
 346 -143 l 1
 321 -250 l 1
 247 -250 l 1
 263 -167 l 1xe8
EndSplineSet
Validated: 1
EndChar

StartChar: Lslash
Encoding: 50 321 50
Width: 546
GlyphClass: 2
Flags: MW
HStem: 0 128<227 504 227 526> 666 20G<72 227 227 227>
VStem: 72 155<128 306 306 306 472 686>
LayerCount: 2
Fore
SplineSet
8 274 m 1
 8 362 l 1
 30 372 51 383 72 394 c 1
 72 686 l 1
 227 686 l 1
 227 472 l 1
 342 530 l 1
 342 442 l 1
 227 384 l 1
 227 128 l 1
 504 128 l 1
 512 85 519 43 526 0 c 1
 72 0 l 1
 72 306 l 1
 51 295 30 284 8 274 c 1
EndSplineSet
Validated: 1
Position2: "'cpsp' Capital Spacing lookup 0 subtable" dx=5 dy=0 dh=10 dv=0
EndChar

StartChar: M
Encoding: 51 77 51
Width: 967
GlyphClass: 2
Flags: MW
HStem: 0 21G<72 212 72 72 395 557 395 395 740 740 740 894> 505 181<212 217 212 212 735 740 735 735>
VStem: 72 140<0 505 0 686> 740 154<0 505 505 505>
LayerCount: 2
Fore
SplineSet
740 505 m 1
 735 505 l 1
 557 0 l 1
 395 0 l 1
 217 505 l 1
 212 505 l 1
 212 0 l 1
 72 0 l 1
 72 686 l 1
 321 686 l 1
 481 233 l 1
 485 233 l 1
 645 686 l 1
 894 686 l 1
 894 0 l 1
 740 0 l 1
 740 505 l 1
EndSplineSet
Validated: 1
Position2: "'cpsp' Capital Spacing lookup 0 subtable" dx=5 dy=0 dh=10 dv=0
EndChar

StartChar: N
Encoding: 52 78 52
Width: 691
GlyphClass: 2
Flags: MW
HStem: 0 21G<72 213 72 72 487 618 487 487> 666 20G<72 203 203 203 477 618 618 618>
VStem: 72 141<0 402 0 686> 477 141<283 686 0 686>
AnchorPoint: "Bottom" 346 0 basechar 0
LayerCount: 2
Fore
SplineSet
487 0 m 1
 272 316 l 2
 254 342 217 405 217 405 c 1
 213 402 l 1
 213 0 l 1
 72 0 l 1
 72 686 l 1
 203 686 l 1
 419 368 l 2
 438 340 455 309 474 280 c 1
 477 283 l 1
 477 686 l 1
 618 686 l 1
 618 0 l 1
 487 0 l 1
EndSplineSet
Validated: 1
Position2: "'cpsp' Capital Spacing lookup 0 subtable" dx=5 dy=0 dh=10 dv=0
EndChar

StartChar: Nacute
Encoding: 53 323 53
Width: 691
GlyphClass: 2
Flags: MW
HStem: 0 21G<72 213 72 72 487 618 487 487> 666 20G<72 203 203 203 477 618 618 618> 750 145<357 366 265 486>
VStem: 72 141<0 402 0 686> 477 141<283 686 0 686>
AnchorPoint: "Bottom" 346 0 basechar 0
LayerCount: 2
Fore
SplineSet
357 895 m 1
 486 895 l 1
 487 892 l 1
 366 750 l 1
 265 750 l 1
 357 895 l 1
487 0 m 1
 272 316 l 2
 254 342 217 405 217 405 c 1
 213 402 l 1
 213 0 l 1
 72 0 l 1
 72 686 l 1
 203 686 l 1
 419 368 l 2
 438 340 455 309 474 280 c 1
 477 283 l 1
 477 686 l 1
 618 686 l 1
 618 0 l 1
 487 0 l 1
EndSplineSet
Validated: 1
EndChar

StartChar: Ncaron
Encoding: 54 327 54
Width: 691
GlyphClass: 2
Flags: MW
HStem: 0 21G<72 213 72 72 487 618 487 487> 666 20G<72 203 203 203 477 618 618 618> 750 145<157 398 157 295>
VStem: 72 141<0 402 0 686> 477 141<283 686 0 686>
AnchorPoint: "Bottom" 346 0 basechar 0
LayerCount: 2
Fore
SplineSet
262 895 m 1
 347 812 l 1
 431 895 l 1
 535 895 l 1
 489 847 443 798 398 750 c 1
 295 750 l 1
 157 895 l 1
 262 895 l 1
487 0 m 1
 272 316 l 2
 254 342 217 405 217 405 c 1
 213 402 l 1
 213 0 l 1
 72 0 l 1
 72 686 l 1
 203 686 l 1
 419 368 l 2
 438 340 455 309 474 280 c 1
 477 283 l 1
 477 686 l 1
 618 686 l 1
 618 0 l 1
 487 0 l 1
EndSplineSet
Validated: 1
EndChar

StartChar: Ncommaaccent
Encoding: 55 325 55
Width: 691
GlyphClass: 2
Flags: MW
HStem: -167 137<279 342 279 425> 0 21G<72 213 72 72 487 618 487 487> 666 20G<72 203 203 203 477 618 618 618>
VStem: 72 141<0 402 0 686> 279 146<-143 -30 -143 -30 -143 -30> 477 141<283 686 0 686>
AnchorPoint: "Bottom" 346 0 basechar 0
LayerCount: 2
Fore
SplineSet
487 0 m 1
 272 316 l 2
 254 342 217 405 217 405 c 1
 213 402 l 1
 213 0 l 1
 72 0 l 1
 72 686 l 1
 203 686 l 1
 419 368 l 2
 438 340 455 309 474 280 c 1
 477 283 l 1
 477 686 l 1
 618 686 l 1
 618 0 l 1
 487 0 l 1
342 -167 m 1xfc
 279 -167 l 1
 279 -30 l 1
 425 -30 l 1
 425 -143 l 1
 400 -250 l 1
 326 -250 l 1
 342 -167 l 1xfc
EndSplineSet
Validated: 1
EndChar

StartChar: Ntilde
Encoding: 56 209 56
Width: 691
GlyphClass: 2
Flags: MW
HStem: 0 21G<72 213 72 72 487 618 487 487> 666 20G<72 203 203 203 477 618 618 618> 749 86<410 451 410 468> 786 87<244 285>
VStem: 72 141<0 402 0 686> 477 141<283 686 0 686>
LayerCount: 2
Fore
SplineSet
490 873 m 1xec
 555 873 l 1xec
 555 813 507 749 429 749 c 0
 365 749 312 786 258 786 c 0xdc
 230 786 213 772 206 749 c 1
 140 749 l 1
 140 808 189 873 267 873 c 0
 331 873 383 835 437 835 c 0
 465 835 483 850 490 873 c 1xec
487 0 m 1
 272 316 l 2
 254 342 217 405 217 405 c 1
 213 402 l 1
 213 0 l 1
 72 0 l 1
 72 686 l 1
 203 686 l 1
 419 368 l 2
 438 340 455 309 474 280 c 1
 477 283 l 1
 477 686 l 1
 618 686 l 1
 618 0 l 1
 487 0 l 1
EndSplineSet
Validated: 1
Position2: "'cpsp' Capital Spacing lookup 0 subtable" dx=5 dy=0 dh=10 dv=0
EndChar

StartChar: O
Encoding: 57 79 57
Width: 708
GlyphClass: 2
Flags: MW
HStem: -10 123<313 395 313 437.5> 573 123<313 395>
VStem: 48 162<294 392 392 414 219.5 489.5> 498 162<272 294 294 392 196.5 414 196.5 466.5>
LayerCount: 2
Fore
SplineSet
660 392 m 2
 660 294 l 2
 660 99 521 -10 354 -10 c 0
 187 -10 48 99 48 294 c 2
 48 392 l 2
 48 587 187 696 354 696 c 0
 521 696 660 587 660 392 c 2
498 272 m 2
 498 414 l 2
 498 519 436 573 354 573 c 0
 272 573 210 519 210 414 c 2
 210 272 l 2
 210 167 272 113 354 113 c 0
 436 113 498 167 498 272 c 2
EndSplineSet
Validated: 1
Substitution2: "Single Substitution lookup 5 subtable" ordmasculine
Substitution2: "'aalt' Access All Alternates lookup 0 subtable" ordmasculine
Position2: "'cpsp' Capital Spacing lookup 0 subtable" dx=5 dy=0 dh=10 dv=0
EndChar

StartChar: Oacute
Encoding: 58 211 58
Width: 708
GlyphClass: 2
Flags: MW
HStem: -10 123<313 395 313 437.5> 573 123<313 395> 750 145<396 405 304 525>
VStem: 48 162<294 392 392 414 219.5 489.5> 498 162<272 294 294 392 196.5 414 196.5 466.5>
LayerCount: 2
Fore
SplineSet
396 895 m 1
 525 895 l 1
 526 892 l 1
 405 750 l 1
 304 750 l 1
 396 895 l 1
660 392 m 2
 660 294 l 2
 660 99 521 -10 354 -10 c 0
 187 -10 48 99 48 294 c 2
 48 392 l 2
 48 587 187 696 354 696 c 0
 521 696 660 587 660 392 c 2
498 272 m 2
 498 414 l 2
 498 519 436 573 354 573 c 0
 272 573 210 519 210 414 c 2
 210 272 l 2
 210 167 272 113 354 113 c 0
 436 113 498 167 498 272 c 2
EndSplineSet
Validated: 1
Position2: "'cpsp' Capital Spacing lookup 0 subtable" dx=5 dy=0 dh=10 dv=0
EndChar

StartChar: Ocircumflex
Encoding: 59 212 59
Width: 708
GlyphClass: 2
Flags: MW
HStem: -10 123<313 395 313 437.5> 573 123<313 395> 750 145<162 403 162 403 300 540 300 435>
VStem: 48 162<294 392 392 414 219.5 489.5> 498 162<272 294 294 392 196.5 414 196.5 466.5>
LayerCount: 2
Fore
SplineSet
300 895 m 1
 403 895 l 1
 448 847 494 798 540 750 c 1
 435 750 l 1
 351 833 l 1
 266 750 l 1
 162 750 l 1
 300 895 l 1
660 392 m 2
 660 294 l 2
 660 99 521 -10 354 -10 c 0
 187 -10 48 99 48 294 c 2
 48 392 l 2
 48 587 187 696 354 696 c 0
 521 696 660 587 660 392 c 2
498 272 m 2
 498 414 l 2
 498 519 436 573 354 573 c 0
 272 573 210 519 210 414 c 2
 210 272 l 2
 210 167 272 113 354 113 c 0
 436 113 498 167 498 272 c 2
EndSplineSet
Validated: 1
Position2: "'cpsp' Capital Spacing lookup 0 subtable" dx=5 dy=0 dh=10 dv=0
EndChar

StartChar: Odieresis
Encoding: 60 214 60
Width: 708
GlyphClass: 2
Flags: MW
HStem: -10 123<313 395 313 437.5> 573 123<313 395> 750 122<194 315 194 315 194 398 398 519>
VStem: 48 162<294 392 392 414 219.5 489.5> 194 121<750 872 750 872> 398 121<750 872 750 872> 498 162<272 294 294 392 196.5 414 196.5 466.5>
LayerCount: 2
Fore
SplineSet
315 872 m 1xec
 315 750 l 1
 194 750 l 1
 194 872 l 1
 315 872 l 1xec
519 872 m 1
 519 750 l 1
 398 750 l 1
 398 872 l 1
 519 872 l 1
660 392 m 2xf2
 660 294 l 2
 660 99 521 -10 354 -10 c 0
 187 -10 48 99 48 294 c 2
 48 392 l 2
 48 587 187 696 354 696 c 0
 521 696 660 587 660 392 c 2xf2
498 272 m 2
 498 414 l 2
 498 519 436 573 354 573 c 0
 272 573 210 519 210 414 c 2
 210 272 l 2
 210 167 272 113 354 113 c 0
 436 113 498 167 498 272 c 2
EndSplineSet
Validated: 1
Position2: "'cpsp' Capital Spacing lookup 0 subtable" dx=5 dy=0 dh=10 dv=0
EndChar

StartChar: Ograve
Encoding: 61 210 61
Width: 708
GlyphClass: 2
Flags: MW
HStem: -10 123<313 395 313 437.5> 573 123<313 395> 750 145<307 316 188 409 307 307>
VStem: 48 162<294 392 392 414 219.5 489.5> 498 162<272 294 294 392 196.5 414 196.5 466.5>
LayerCount: 2
Fore
SplineSet
187 892 m 1
 188 895 l 1
 316 895 l 1
 409 750 l 1
 307 750 l 1
 187 892 l 1
660 392 m 2
 660 294 l 2
 660 99 521 -10 354 -10 c 0
 187 -10 48 99 48 294 c 2
 48 392 l 2
 48 587 187 696 354 696 c 0
 521 696 660 587 660 392 c 2
498 272 m 2
 498 414 l 2
 498 519 436 573 354 573 c 0
 272 573 210 519 210 414 c 2
 210 272 l 2
 210 167 272 113 354 113 c 0
 436 113 498 167 498 272 c 2
EndSplineSet
Validated: 1
Position2: "'cpsp' Capital Spacing lookup 0 subtable" dx=5 dy=0 dh=10 dv=0
EndChar

StartChar: Ohungarumlaut
Encoding: 62 336 62
Width: 708
GlyphClass: 2
Flags: MW
HStem: -10 123<313 395 313 437.5> 573 123<313 395> 750 145<270 279 177 398 368 368 368 398 461 470>
VStem: 48 162<294 392 392 414 219.5 489.5> 498 162<272 294 294 392 196.5 414 196.5 466.5>
LayerCount: 2
Fore
SplineSet
270 895 m 1
 398 895 l 1
 400 892 l 1
 279 750 l 1
 177 750 l 1
 270 895 l 1
461 895 m 1
 589 895 l 1
 591 892 l 1
 470 750 l 1
 368 750 l 1
 461 895 l 1
660 392 m 2
 660 294 l 2
 660 99 521 -10 354 -10 c 0
 187 -10 48 99 48 294 c 2
 48 392 l 2
 48 587 187 696 354 696 c 0
 521 696 660 587 660 392 c 2
498 272 m 2
 498 414 l 2
 498 519 436 573 354 573 c 0
 272 573 210 519 210 414 c 2
 210 272 l 2
 210 167 272 113 354 113 c 0
 436 113 498 167 498 272 c 2
EndSplineSet
Validated: 1
EndChar

StartChar: Omacron
Encoding: 63 332 63
Width: 708
GlyphClass: 2
Flags: MW
HStem: -10 123<313 395 313 437.5> 573 123<313 395> 837 74<195 513 195 513>
VStem: 48 162<294 392 392 414 219.5 489.5> 498 162<272 294 294 392 196.5 414 196.5 466.5>
LayerCount: 2
Fore
SplineSet
195 911 m 1
 513 911 l 1
 513 837 l 1
 195 837 l 1
 195 911 l 1
660 392 m 2
 660 294 l 2
 660 99 521 -10 354 -10 c 0
 187 -10 48 99 48 294 c 2
 48 392 l 2
 48 587 187 696 354 696 c 0
 521 696 660 587 660 392 c 2
498 272 m 2
 498 414 l 2
 498 519 436 573 354 573 c 0
 272 573 210 519 210 414 c 2
 210 272 l 2
 210 167 272 113 354 113 c 0
 436 113 498 167 498 272 c 2
EndSplineSet
Validated: 1
EndChar

StartChar: Oslash
Encoding: 64 216 64
Width: 708
GlyphClass: 2
Flags: MW
HStem: -10 123<338 395 338 437.5> 573 123<313 369>
VStem: 48 162<294 392 392 414 258 489.5> 498 162<272 294 294 392 196.5 414 196.5 428.5>
LayerCount: 2
Fore
SplineSet
660 392 m 2
 660 294 l 2
 660 99 521 -10 354 -10 c 0
 299 -10 248 1 203 24 c 1
 149 -65 l 1
 63 -65 l 1
 142 66 l 1
 84 117 48 194 48 294 c 2
 48 392 l 2
 48 587 187 696 354 696 c 0
 408 696 458 685 503 663 c 1
 558 754 l 1
 644 754 l 1
 564 622 l 1
 623 570 660 492 660 392 c 2
210 414 m 2
 210 272 l 2
 210 244 214 219 222 199 c 1
 435 550 l 1
 412 565 384 573 354 573 c 0
 272 573 210 519 210 414 c 2
498 272 m 2
 498 414 l 2
 498 443 493 468 484 490 c 1
 271 136 l 1
 294 121 322 113 354 113 c 0
 436 113 498 167 498 272 c 2
EndSplineSet
Validated: 1
Position2: "'cpsp' Capital Spacing lookup 0 subtable" dx=5 dy=0 dh=10 dv=0
EndChar

StartChar: Otilde
Encoding: 65 213 65
Width: 708
GlyphClass: 2
Flags: MW
HStem: -10 123<313 395 313 437.5> 573 123<313 395> 749 86<415 456 415 473> 786 87<249 290>
VStem: 48 162<294 392 392 414 219.5 489.5> 498 162<272 294 294 392 196.5 414 196.5 466.5>
LayerCount: 2
Fore
SplineSet
495 873 m 1xec
 560 873 l 1xec
 560 813 512 749 434 749 c 0
 370 749 317 786 263 786 c 0xdc
 235 786 218 772 211 749 c 1
 145 749 l 1
 145 808 194 873 272 873 c 0
 336 873 388 835 442 835 c 0
 470 835 488 850 495 873 c 1xec
660 392 m 2
 660 294 l 2
 660 99 521 -10 354 -10 c 0
 187 -10 48 99 48 294 c 2
 48 392 l 2
 48 587 187 696 354 696 c 0
 521 696 660 587 660 392 c 2
498 272 m 2
 498 414 l 2
 498 519 436 573 354 573 c 0
 272 573 210 519 210 414 c 2
 210 272 l 2
 210 167 272 113 354 113 c 0
 436 113 498 167 498 272 c 2
EndSplineSet
Validated: 1
Position2: "'cpsp' Capital Spacing lookup 0 subtable" dx=5 dy=0 dh=10 dv=0
EndChar

StartChar: OE
Encoding: 66 338 66
Width: 1024
GlyphClass: 2
Flags: MW
HStem: -10 123<313 369.5> 0 123<652 962 652 984> 286 121<652 928 652 928> 562 124<652 949 652 652> 573 122<313 370 259 395>
VStem: 48 162<294 391 391 414 219.5 484.5> 498 154<0 286 29 286 272 286 407 414 414 466.5>
LayerCount: 2
Fore
SplineSet
498 0 m 1x76
 498 29 l 1
 453 -1 399 -10 340 -10 c 0
 178 -10 48 107 48 294 c 2
 48 391 l 2
 48 578 178 695 340 695 c 0
 400 695 453 684 499 657 c 1xae
 499 686 l 1
 976 686 l 1
 949 562 l 1
 652 562 l 1
 652 407 l 1
 928 407 l 1
 928 286 l 1
 652 286 l 1
 652 123 l 1
 962 123 l 1
 970 82 977 41 984 0 c 1
 498 0 l 1x76
498 272 m 2
 498 414 l 2
 498 519 436 573 354 573 c 0
 272 573 210 519 210 414 c 2
 210 272 l 2
 210 167 272 113 354 113 c 0
 436 113 498 167 498 272 c 2
EndSplineSet
Validated: 1
Position2: "'cpsp' Capital Spacing lookup 0 subtable" dx=5 dy=0 dh=10 dv=0
EndChar

StartChar: P
Encoding: 67 80 67
Width: 629
GlyphClass: 2
Flags: MW
HStem: 0 21G<72 226 72 72> 265 121<226 367 367 393 226 403 226 367> 563 123<226 367 226 226>
VStem: 72 154<0 265 386 563> 455 155<471 475 475 477 477 481 417 499.5>
LayerCount: 2
Fore
SplineSet
226 0 m 1
 72 0 l 1
 72 686 l 1
 403 686 l 2
 517 686 610 599 610 481 c 2
 610 475 l 2
 610 359 520 265 403 265 c 2
 226 265 l 1
 226 0 l 1
226 386 m 1
 367 386 l 2
 419 386 455 427 455 471 c 2
 455 477 l 2
 455 522 420 563 367 563 c 2
 226 563 l 1
 226 386 l 1
EndSplineSet
Validated: 1
Position2: "'cpsp' Capital Spacing lookup 0 subtable" dx=5 dy=0 dh=10 dv=0
EndChar

StartChar: Thorn
Encoding: 68 222 68
Width: 634
GlyphClass: 2
Flags: MW
HStem: 0 21G<72 226 72 72> 154 118<226 372 372 399 226 403 226 372> 450 122<226 372 226 403> 666 20G<72 226 226 226>
VStem: 72 154<0 154 272 450 572 686> 455 155<343.5 359 359 367 299.5 391.5>
LayerCount: 2
Fore
SplineSet
226 0 m 1
 72 0 l 1
 72 686 l 1
 226 686 l 1
 226 572 l 1
 403 572 l 2
 517 572 610 486 610 367 c 2
 610 359 l 2
 610 240 517 154 403 154 c 2
 226 154 l 1
 226 0 l 1
226 272 m 1
 372 272 l 2
 426 272 455 318 455 369 c 0
 455 414 418 450 372 450 c 2
 226 450 l 1
 226 272 l 1
EndSplineSet
Validated: 1
Position2: "'cpsp' Capital Spacing lookup 0 subtable" dx=5 dy=0 dh=10 dv=0
EndChar

StartChar: Q
Encoding: 69 81 69
Width: 708
GlyphClass: 2
Flags: MW
HStem: -153 99<505.5 544> 1 21G 573 123<313 395>
VStem: 48 162<294 392 392 414 219.5 489.5> 498 162<272 294 294 392 214.5 414 214.5 466.5>
LayerCount: 2
Fore
SplineSet
660 392 m 2
 660 294 l 2
 660 135 568 34 443 1 c 1
 453 -25 478 -54 533 -54 c 0
 580 -54 655 -29 655 -28 c 2
 655 -116 l 1
 655 -116 590 -153 498 -153 c 0
 361 -153 304 -71 290 -4 c 1
 153 20 48 124 48 294 c 2
 48 392 l 2
 48 587 187 696 354 696 c 0
 521 696 660 587 660 392 c 2
498 272 m 2
 498 414 l 2
 498 519 436 573 354 573 c 0
 272 573 210 519 210 414 c 2
 210 272 l 2
 210 167 272 113 354 113 c 0
 436 113 498 167 498 272 c 2
EndSplineSet
Validated: 1
Position2: "'cpsp' Capital Spacing lookup 0 subtable" dx=5 dy=0 dh=10 dv=0
EndChar

StartChar: R
Encoding: 70 82 70
Width: 665
GlyphClass: 2
Flags: MW
HStem: -7 21G<532.5 576.5> 0 21G<72 224 72 72> 284 121<224 340 224 374> 563 123<224 374 224 224>
VStem: 72 152<0 284 405 563> 447 150<144 152> 454 156<480 487 487 508.5>
AnchorPoint: "Bottom" 333 0 basechar 0
LayerCount: 2
Fore
SplineSet
648 40 m 1x7c
 648 6 l 1
 625 -3 591 -7 562 -7 c 0
 503 -7 447 17 447 102 c 0xbc
 447 202 429 284 340 284 c 2
 224 284 l 1
 224 0 l 1
 72 0 l 1
 72 686 l 1
 379 686 l 2
 492 686 610 646 610 516 c 0x7a
 610 443 557 367 487 354 c 1
 487 349 l 1
 536 333 597 279 597 166 c 0
 597 122 603 54 648 40 c 1x7c
224 405 m 1
 374 405 l 2
 418 405 454 438 454 480 c 2
 454 487 l 2
 454 530 421 563 374 563 c 2x7a
 224 563 l 1
 224 405 l 1
EndSplineSet
Validated: 1
Position2: "'cpsp' Capital Spacing lookup 0 subtable" dx=5 dy=0 dh=10 dv=0
EndChar

StartChar: Racute
Encoding: 71 340 71
Width: 665
GlyphClass: 2
Flags: MW
HStem: -7 21G<532.5 576.5> 0 21G<72 224 72 72> 284 121<224 340 224 374> 563 123<224 374 224 224> 750 145<344 353 252 473>
VStem: 72 152<0 284 405 563> 447 150<144 152> 454 156<480 487 487 508.5>
AnchorPoint: "Bottom" 333 0 basechar 0
LayerCount: 2
Fore
SplineSet
344 895 m 1x7e
 473 895 l 1
 474 892 l 1
 353 750 l 1
 252 750 l 1
 344 895 l 1x7e
648 40 m 1
 648 6 l 1
 625 -3 591 -7 562 -7 c 0
 503 -7 447 17 447 102 c 0xbe
 447 202 429 284 340 284 c 2
 224 284 l 1
 224 0 l 1
 72 0 l 1
 72 686 l 1
 379 686 l 2
 492 686 610 646 610 516 c 0x7d
 610 443 557 367 487 354 c 1
 487 349 l 1
 536 333 597 279 597 166 c 0
 597 122 603 54 648 40 c 1
224 405 m 1
 374 405 l 2
 418 405 454 438 454 480 c 2
 454 487 l 2
 454 530 421 563 374 563 c 2x7d
 224 563 l 1
 224 405 l 1
EndSplineSet
Validated: 1
EndChar

StartChar: Rcaron
Encoding: 72 344 72
Width: 665
GlyphClass: 2
Flags: MW
HStem: -7 21G<532.5 576.5> 0 21G<72 224 72 72> 284 121<224 340 224 374> 563 123<224 374 224 224> 750 145<144 385 144 282>
VStem: 72 152<0 284 405 563> 447 150<144 152> 454 156<480 487 487 508.5>
AnchorPoint: "Bottom" 333 0 basechar 0
LayerCount: 2
Fore
SplineSet
249 895 m 1x7e
 334 812 l 1
 418 895 l 1
 522 895 l 1
 476 847 430 798 385 750 c 1
 282 750 l 1
 144 895 l 1
 249 895 l 1x7e
648 40 m 1
 648 6 l 1
 625 -3 591 -7 562 -7 c 0
 503 -7 447 17 447 102 c 0xbe
 447 202 429 284 340 284 c 2
 224 284 l 1
 224 0 l 1
 72 0 l 1
 72 686 l 1
 379 686 l 2
 492 686 610 646 610 516 c 0x7d
 610 443 557 367 487 354 c 1
 487 349 l 1
 536 333 597 279 597 166 c 0
 597 122 603 54 648 40 c 1
224 405 m 1
 374 405 l 2
 418 405 454 438 454 480 c 2
 454 487 l 2
 454 530 421 563 374 563 c 2x7d
 224 563 l 1
 224 405 l 1
EndSplineSet
Validated: 1
EndChar

StartChar: Rcommaaccent
Encoding: 73 342 73
Width: 665
GlyphClass: 2
Flags: MW
HStem: -167 137<266 329 266 412> -7 21G<532.5 576.5> 0 21G<72 224 72 72> 284 121<224 340 224 374> 563 123<224 374 224 224>
VStem: 72 152<0 284 405 563> 266 146<-143 -30 -143 -30 -143 -30> 447 150<144 152> 454 156<480 487 487 508.5>
AnchorPoint: "Bottom" 333 0 basechar 0
LayerCount: 2
Fore
SplineSet
648 40 m 1x3f
 648 6 l 1
 625 -3 591 -7 562 -7 c 0
 503 -7 447 17 447 102 c 0x5f
 447 202 429 284 340 284 c 2
 224 284 l 1
 224 0 l 1
 72 0 l 1
 72 686 l 1
 379 686 l 2
 492 686 610 646 610 516 c 0x3e80
 610 443 557 367 487 354 c 1
 487 349 l 1
 536 333 597 279 597 166 c 0
 597 122 603 54 648 40 c 1x3f
224 405 m 1
 374 405 l 2
 418 405 454 438 454 480 c 2
 454 487 l 2
 454 530 421 563 374 563 c 2xbe80
 224 563 l 1
 224 405 l 1
329 -167 m 1
 266 -167 l 1
 266 -30 l 1
 412 -30 l 1
 412 -143 l 1
 387 -250 l 1
 313 -250 l 1
 329 -167 l 1
EndSplineSet
Validated: 1
EndChar

StartChar: S
Encoding: 74 83 74
Width: 635
GlyphClass: 2
Flags: MW
HStem: -10 123<266 357.5 266 395> 573 123<285 357.5>
VStem: 35 146<179.5 206> 51 155<444 528 444 561.5> 435 145<483 492 492 495 483 517> 438 157<171.5 257>
AnchorPoint: "Bottom" 318 0 basechar 0
LayerCount: 2
Fore
SplineSet
435 483 m 1xd8
 435 492 l 2xd8
 435 542 393 573 322 573 c 0
 248 573 206 547 206 509 c 0xd4
 206 379 595 466 595 216 c 0
 595 53 478 -10 312 -10 c 0
 165 -10 35 51 35 202 c 0
 35 210 36 219 36 224 c 1
 182 224 l 2
 182 222 181 213 181 208 c 0xe4
 181 151 225 113 307 113 c 0
 408 113 438 152 438 191 c 0xd4
 438 323 51 231 51 493 c 0
 51 630 174 696 319 696 c 0
 462 696 580 635 580 495 c 2
 580 483 l 1
 435 483 l 1xd8
EndSplineSet
Validated: 1
Position2: "'cpsp' Capital Spacing lookup 0 subtable" dx=5 dy=0 dh=10 dv=0
EndChar

StartChar: Sacute
Encoding: 75 346 75
Width: 635
GlyphClass: 2
Flags: MW
HStem: -10 123<266 357.5 266 395> 573 123<285 357.5> 750 145<329 338 237 458>
VStem: 35 146<179.5 206> 51 155<444 528 444 561.5> 435 145<483 492 492 495 483 517> 438 157<171.5 257>
AnchorPoint: "Bottom" 318 0 basechar 0
LayerCount: 2
Fore
SplineSet
329 895 m 1xea
 458 895 l 1
 459 892 l 1
 338 750 l 1
 237 750 l 1
 329 895 l 1xea
435 483 m 1xec
 435 492 l 2xec
 435 542 393 573 322 573 c 0
 248 573 206 547 206 509 c 0xea
 206 379 595 466 595 216 c 0
 595 53 478 -10 312 -10 c 0
 165 -10 35 51 35 202 c 0
 35 210 36 219 36 224 c 1
 182 224 l 2
 182 222 181 213 181 208 c 0xf2
 181 151 225 113 307 113 c 0
 408 113 438 152 438 191 c 0xea
 438 323 51 231 51 493 c 0
 51 630 174 696 319 696 c 0
 462 696 580 635 580 495 c 2
 580 483 l 1
 435 483 l 1xec
EndSplineSet
Validated: 1
EndChar

StartChar: Scaron
Encoding: 76 352 76
Width: 635
GlyphClass: 2
Flags: MW
HStem: -10 123<266 357.5 266 395> 573 123<285 357.5> 750 145<129 370 129 267>
VStem: 35 146<179.5 206> 51 155<444 528 444 561.5> 435 145<483 492 492 495 483 517> 438 157<171.5 257>
LayerCount: 2
Fore
SplineSet
234 895 m 1xea
 319 812 l 1
 403 895 l 1
 507 895 l 1
 461 847 415 798 370 750 c 1
 267 750 l 1
 129 895 l 1
 234 895 l 1xea
435 483 m 1xec
 435 492 l 2xec
 435 542 393 573 322 573 c 0
 248 573 206 547 206 509 c 0xea
 206 379 595 466 595 216 c 0
 595 53 478 -10 312 -10 c 0
 165 -10 35 51 35 202 c 0
 35 210 36 219 36 224 c 1
 182 224 l 2
 182 222 181 213 181 208 c 0xf2
 181 151 225 113 307 113 c 0
 408 113 438 152 438 191 c 0xea
 438 323 51 231 51 493 c 0
 51 630 174 696 319 696 c 0
 462 696 580 635 580 495 c 2
 580 483 l 1
 435 483 l 1xec
EndSplineSet
Validated: 1
Position2: "'cpsp' Capital Spacing lookup 0 subtable" dx=5 dy=0 dh=10 dv=0
EndChar

StartChar: Scedilla
Encoding: 77 350 77
Width: 635
GlyphClass: 2
Flags: MW
HStem: -197 55<293.5 321.5 284.5 334> -68 51<292 312 292 315> -10 123<266 357.5 266 395> 573 123<285 357.5>
VStem: 35 146<179.5 206> 51 155<444 528 444 561.5> 357 74<-117.5 -92.5> 435 145<483 492 492 495 483 517> 438 157<171.5 257>
AnchorPoint: "Bottom" 318 0 basechar 0
LayerCount: 2
Fore
SplineSet
435 483 m 1xb5
 435 492 l 2xb5
 435 542 393 573 322 573 c 0
 248 573 206 547 206 509 c 0xb480
 206 379 595 466 595 216 c 0
 595 53 478 -10 312 -10 c 0
 165 -10 35 51 35 202 c 0
 35 210 36 219 36 224 c 1
 182 224 l 2
 182 222 181 213 181 208 c 0xb880
 181 151 225 113 307 113 c 0
 408 113 438 152 438 191 c 0xb480
 438 323 51 231 51 493 c 0
 51 630 174 696 319 696 c 0
 462 696 580 635 580 495 c 2
 580 483 l 1
 435 483 l 1xb5
204 -168 m 1
 225 -116 l 1
 231 -119 261 -142 308 -142 c 0
 335 -142 357 -131 357 -104 c 0
 357 -81 340 -68 312 -68 c 2
 292 -68 l 1
 292 -17 l 1
 315 -17 l 2
 372 -17 431 -34 431 -107 c 0xd6
 431 -182 356 -197 312 -197 c 0
 275 -197 231 -187 204 -168 c 1
EndSplineSet
Validated: 1
EndChar

StartChar: Scommaaccent
Encoding: 78 536 78
Width: 635
GlyphClass: 2
Flags: MW
HStem: -167 137<251 314 251 397> -10 123<266 357.5 266 395> 573 123<285 357.5>
VStem: 35 146<179.5 206> 51 155<444 528 444 561.5> 251 146<-143 -30 -143 -30 -143 -30> 435 145<483 492 492 495 483 517> 438 157<171.5 257>
AnchorPoint: "Bottom" 318 0 basechar 0
LayerCount: 2
Fore
SplineSet
435 483 m 1x6e
 435 492 l 2xee
 435 542 393 573 322 573 c 0
 248 573 206 547 206 509 c 0x6d
 206 379 595 466 595 216 c 0
 595 53 478 -10 312 -10 c 0
 165 -10 35 51 35 202 c 0
 35 210 36 219 36 224 c 1
 182 224 l 2
 182 222 181 213 181 208 c 0x75
 181 151 225 113 307 113 c 0
 408 113 438 152 438 191 c 0x6d
 438 323 51 231 51 493 c 0
 51 630 174 696 319 696 c 0
 462 696 580 635 580 495 c 2
 580 483 l 1
 435 483 l 1x6e
314 -167 m 1
 251 -167 l 1
 251 -30 l 1
 397 -30 l 1
 397 -143 l 1
 372 -250 l 1
 298 -250 l 1
 314 -167 l 1
EndSplineSet
Validated: 1
EndChar

StartChar: T
Encoding: 79 84 79
Width: 557
GlyphClass: 2
Flags: MW
HStem: 0 21G<202 355 202 202> 562 124<7 202 7 549 355 355 355 549>
VStem: 202 153<0 562>
AnchorPoint: "Bottom" 279 0 basechar 0
LayerCount: 2
Fore
SplineSet
355 0 m 1
 202 0 l 1
 202 562 l 1
 7 562 l 1
 7 686 l 1
 549 686 l 1
 549 562 l 1
 355 562 l 1
 355 0 l 1
EndSplineSet
Validated: 1
Position2: "'cpsp' Capital Spacing lookup 0 subtable" dx=5 dy=0 dh=10 dv=0
EndChar

StartChar: Tcaron
Encoding: 80 356 80
Width: 557
GlyphClass: 2
Flags: MW
HStem: 0 21G<202 355 202 202> 562 124<7 202 7 549 355 355 355 549> 750 145<90 331 90 228>
VStem: 202 153<0 562>
AnchorPoint: "Bottom" 279 0 basechar 0
LayerCount: 2
Fore
SplineSet
195 895 m 1
 280 812 l 1
 364 895 l 1
 468 895 l 1
 422 847 376 798 331 750 c 1
 228 750 l 1
 90 895 l 1
 195 895 l 1
355 0 m 1
 202 0 l 1
 202 562 l 1
 7 562 l 1
 7 686 l 1
 549 686 l 1
 549 562 l 1
 355 562 l 1
 355 0 l 1
EndSplineSet
Validated: 1
EndChar

StartChar: Tcedilla
Encoding: 81 354 81
Width: 557
GlyphClass: 2
Flags: MW
HStem: -197 55<254.5 282.5 245.5 295> -68 51<253 273 253 276> 0 21G<202 355 202 202> 562 124<7 202 7 549 355 355 355 549>
VStem: 202 153<0 562> 318 74<-117.5 -92.5>
AnchorPoint: "Bottom" 279 0 basechar 0
LayerCount: 2
Fore
SplineSet
355 0 m 1xb8
 202 0 l 1
 202 562 l 1
 7 562 l 1
 7 686 l 1
 549 686 l 1
 549 562 l 1
 355 562 l 1
 355 0 l 1xb8
165 -168 m 1
 186 -116 l 1
 192 -119 222 -142 269 -142 c 0
 296 -142 318 -131 318 -104 c 0
 318 -81 301 -68 273 -68 c 2xf4
 253 -68 l 1
 253 -17 l 1xf8
 276 -17 l 2
 333 -17 392 -34 392 -107 c 0xf4
 392 -182 317 -197 273 -197 c 0
 236 -197 192 -187 165 -168 c 1
EndSplineSet
Validated: 1
EndChar

StartChar: Tcommaaccent
Encoding: 82 538 82
Width: 557
GlyphClass: 2
Flags: MW
HStem: -167 137<212 275 212 358> 0 21G<202 355 202 202> 562 124<7 202 7 549 355 355 355 549>
VStem: 202 153<0 562>
AnchorPoint: "Bottom" 279 0 basechar 0
LayerCount: 2
Fore
SplineSet
355 0 m 1
 202 0 l 1
 202 562 l 1
 7 562 l 1
 7 686 l 1
 549 686 l 1
 549 562 l 1
 355 562 l 1
 355 0 l 1
275 -167 m 1xf0
 212 -167 l 1
 212 -30 l 1
 358 -30 l 1
 358 -143 l 1
 333 -250 l 1
 259 -250 l 1
 275 -167 l 1xf0
EndSplineSet
Validated: 1
EndChar

StartChar: U
Encoding: 83 85 83
Width: 673
GlyphClass: 2
Flags: MW
HStem: -10 122<302 322 322 350> 666 20G<64 218 218 218 455 609 609 609>
VStem: 64 154<218 221 221 686> 455 154<221 686>
LayerCount: 2
Fore
SplineSet
609 686 m 1
 609 218 l 2
 609 80 506 -10 350 -10 c 2
 322 -10 l 2
 166 -10 64 80 64 218 c 2
 64 686 l 1
 218 686 l 1
 218 221 l 2
 218 158 267 112 337 112 c 0
 408 112 455 157 455 221 c 2
 455 686 l 1
 609 686 l 1
EndSplineSet
Validated: 1
Position2: "'cpsp' Capital Spacing lookup 0 subtable" dx=5 dy=0 dh=10 dv=0
EndChar

StartChar: Uacute
Encoding: 84 218 84
Width: 673
GlyphClass: 2
Flags: MW
HStem: -10 122<302 322 322 350> 666 20G<64 218 218 218 455 609 609 609> 750 145<377 386 285 506>
VStem: 64 154<218 221 221 686> 455 154<221 686>
LayerCount: 2
Fore
SplineSet
377 895 m 1
 506 895 l 1
 507 892 l 1
 386 750 l 1
 285 750 l 1
 377 895 l 1
609 686 m 1
 609 218 l 2
 609 80 506 -10 350 -10 c 2
 322 -10 l 2
 166 -10 64 80 64 218 c 2
 64 686 l 1
 218 686 l 1
 218 221 l 2
 218 158 267 112 337 112 c 0
 408 112 455 157 455 221 c 2
 455 686 l 1
 609 686 l 1
EndSplineSet
Validated: 1
Position2: "'cpsp' Capital Spacing lookup 0 subtable" dx=5 dy=0 dh=10 dv=0
EndChar

StartChar: Ucircumflex
Encoding: 85 219 85
Width: 673
GlyphClass: 2
Flags: MW
HStem: -10 122<302 322 322 350> 666 20G<64 218 218 218 455 609 609 609> 750 145<149 390 149 390 287 527 287 422>
VStem: 64 154<218 221 221 686> 455 154<221 686>
LayerCount: 2
Fore
SplineSet
287 895 m 1
 390 895 l 1
 435 847 481 798 527 750 c 1
 422 750 l 1
 338 833 l 1
 253 750 l 1
 149 750 l 1
 287 895 l 1
609 686 m 1
 609 218 l 2
 609 80 506 -10 350 -10 c 2
 322 -10 l 2
 166 -10 64 80 64 218 c 2
 64 686 l 1
 218 686 l 1
 218 221 l 2
 218 158 267 112 337 112 c 0
 408 112 455 157 455 221 c 2
 455 686 l 1
 609 686 l 1
EndSplineSet
Validated: 1
Position2: "'cpsp' Capital Spacing lookup 0 subtable" dx=5 dy=0 dh=10 dv=0
EndChar

StartChar: Udieresis
Encoding: 86 220 86
Width: 673
GlyphClass: 2
Flags: MW
HStem: -10 122<302 322 322 350> 666 20G<64 218 218 218 455 609 609 609> 750 122<175 296 175 296 175 379 379 500>
VStem: 64 154<218 221 221 686> 175 121<750 872 750 872> 379 121<750 872 750 872> 455 154<221 686>
LayerCount: 2
Fore
SplineSet
296 872 m 1xea
 296 750 l 1xea
 175 750 l 1
 175 872 l 1xf2
 296 872 l 1xea
500 872 m 1
 500 750 l 1xf2
 379 750 l 1
 379 872 l 1xf4
 500 872 l 1
609 686 m 1
 609 218 l 2
 609 80 506 -10 350 -10 c 2
 322 -10 l 2
 166 -10 64 80 64 218 c 2
 64 686 l 1
 218 686 l 1
 218 221 l 2
 218 158 267 112 337 112 c 0
 408 112 455 157 455 221 c 2
 455 686 l 1
 609 686 l 1
EndSplineSet
Validated: 1
Position2: "'cpsp' Capital Spacing lookup 0 subtable" dx=5 dy=0 dh=10 dv=0
EndChar

StartChar: Ugrave
Encoding: 87 217 87
Width: 673
GlyphClass: 2
Flags: MW
HStem: -10 122<302 322 322 350> 666 20G<64 218 218 218 455 609 609 609> 750 145<290 299 171 392 290 290>
VStem: 64 154<218 221 221 686> 455 154<221 686>
LayerCount: 2
Fore
SplineSet
170 892 m 1
 171 895 l 1
 299 895 l 1
 392 750 l 1
 290 750 l 1
 170 892 l 1
609 686 m 1
 609 218 l 2
 609 80 506 -10 350 -10 c 2
 322 -10 l 2
 166 -10 64 80 64 218 c 2
 64 686 l 1
 218 686 l 1
 218 221 l 2
 218 158 267 112 337 112 c 0
 408 112 455 157 455 221 c 2
 455 686 l 1
 609 686 l 1
EndSplineSet
Validated: 1
Position2: "'cpsp' Capital Spacing lookup 0 subtable" dx=5 dy=0 dh=10 dv=0
EndChar

StartChar: Uhungarumlaut
Encoding: 88 368 88
Width: 673
GlyphClass: 2
Flags: MW
HStem: -10 122<302 322 322 350> 666 20G<64 218 218 218 455 609 609 609> 750 145<253 262 160 381 351 351 351 381 444 453>
VStem: 64 154<218 221 221 686> 455 154<221 686>
LayerCount: 2
Fore
SplineSet
253 895 m 1
 381 895 l 1
 383 892 l 1
 262 750 l 1
 160 750 l 1
 253 895 l 1
444 895 m 1
 572 895 l 1
 574 892 l 1
 453 750 l 1
 351 750 l 1
 444 895 l 1
609 686 m 1
 609 218 l 2
 609 80 506 -10 350 -10 c 2
 322 -10 l 2
 166 -10 64 80 64 218 c 2
 64 686 l 1
 218 686 l 1
 218 221 l 2
 218 158 267 112 337 112 c 0
 408 112 455 157 455 221 c 2
 455 686 l 1
 609 686 l 1
EndSplineSet
Validated: 1
EndChar

StartChar: Umacron
Encoding: 89 362 89
Width: 673
GlyphClass: 2
Flags: MW
HStem: -10 122<302 322 322 350> 666 20G<64 218 218 218 455 609 609 609> 837 74<178 496 178 496>
VStem: 64 154<218 221 221 686> 455 154<221 686>
LayerCount: 2
Fore
SplineSet
178 911 m 1
 496 911 l 1
 496 837 l 1
 178 837 l 1
 178 911 l 1
609 686 m 1
 609 218 l 2
 609 80 506 -10 350 -10 c 2
 322 -10 l 2
 166 -10 64 80 64 218 c 2
 64 686 l 1
 218 686 l 1
 218 221 l 2
 218 158 267 112 337 112 c 0
 408 112 455 157 455 221 c 2
 455 686 l 1
 609 686 l 1
EndSplineSet
Validated: 1
EndChar

StartChar: Uogonek
Encoding: 90 370 90
Width: 673
GlyphClass: 2
Flags: MW
HStem: -143 50<432.5 443.5> -10 122<302 322 322 350> 666 20G<64 218 218 218 455 609 609 609>
VStem: 64 154<218 221 221 686> 330 69<-71 -58> 455 154<221 686>
LayerCount: 2
Fore
SplineSet
609 686 m 1
 609 218 l 2
 609 107 542 27 435 0 c 1
 446 0 l 1
 426 -11 399 -32 399 -57 c 0
 399 -85 422 -93 443 -93 c 0
 467 -93 489 -87 510 -79 c 1
 523 -119 l 1
 494 -135 460 -143 427 -143 c 0
 381 -143 330 -126 330 -71 c 0
 330 -45 350 -25 370 -9 c 1
 350 -10 l 1
 322 -10 l 2
 166 -10 64 80 64 218 c 2
 64 686 l 1
 218 686 l 1
 218 221 l 2
 218 158 267 112 337 112 c 0
 408 112 455 157 455 221 c 2
 455 686 l 1
 609 686 l 1
EndSplineSet
Validated: 1
EndChar

StartChar: Uring
Encoding: 91 366 91
Width: 673
GlyphClass: 2
Flags: MW
HStem: -10 122<302 322 322 350> 666 20G<64 218 218 218 455 609 609 609> 719 57<325 349 325 365> 864 57<325 349>
VStem: 64 154<218 221 221 686> 236 57<808 832 808 848> 381 57<808 832> 455 154<221 686>
LayerCount: 2
Fore
SplineSet
236 820 m 0
 236 876 281 921 337 921 c 0
 393 921 438 876 438 820 c 0
 438 764 393 719 337 719 c 0
 281 719 236 764 236 820 c 0
293 820 m 0
 293 796 313 776 337 776 c 0
 361 776 381 796 381 820 c 0
 381 844 361 864 337 864 c 0
 313 864 293 844 293 820 c 0
609 686 m 1xf9
 609 218 l 2
 609 80 506 -10 350 -10 c 2
 322 -10 l 2
 166 -10 64 80 64 218 c 2
 64 686 l 1
 218 686 l 1
 218 221 l 2
 218 158 267 112 337 112 c 0
 408 112 455 157 455 221 c 2
 455 686 l 1
 609 686 l 1xf9
EndSplineSet
Validated: 1
EndChar

StartChar: V
Encoding: 92 86 92
Width: 643
GlyphClass: 2
Flags: MW
HStem: 0 21G<232 409 232 232> 666 20G<7 169 169 169 487 635 635 635>
VStem: 7 628<686 686>
LayerCount: 2
Fore
SplineSet
487 686 m 1
 635 686 l 1
 409 0 l 1
 232 0 l 1
 7 686 l 1
 169 686 l 1
 325 196 l 1
 330 196 l 1
 487 686 l 1
EndSplineSet
Validated: 1
Position2: "'cpsp' Capital Spacing lookup 0 subtable" dx=5 dy=0 dh=10 dv=0
EndChar

StartChar: W
Encoding: 93 87 93
Width: 972
GlyphClass: 2
Flags: MW
HStem: 0 21G<199 370 199 199 602 602 602 771> 666 20G<7 168 168 168 416 571 571 571 818 964 964 964>
VStem: 7 957<686 686>
LayerCount: 2
Fore
SplineSet
370 0 m 1
 199 0 l 1
 7 686 l 1
 168 686 l 1
 208 536 249 386 289 237 c 1
 294 237 l 1
 335 386 375 536 416 686 c 1
 571 686 l 1
 611 536 652 386 692 237 c 1
 697 237 l 1
 737 386 778 536 818 686 c 1
 964 686 l 1
 771 0 l 1
 602 0 l 1
 490 412 l 1
 484 412 l 1
 370 0 l 1
EndSplineSet
Validated: 1
Position2: "'cpsp' Capital Spacing lookup 0 subtable" dx=5 dy=0 dh=10 dv=0
EndChar

StartChar: X
Encoding: 94 88 94
Width: 658
GlyphClass: 2
Flags: MW
HStem: 0 21G<0 0 0 167 477 477 477 658> 666 20G<22 203 203 203 470 637 637 637>
VStem: 0 658<0 0>
LayerCount: 2
Fore
SplineSet
0 0 m 1
 232 360 l 1
 22 686 l 1
 203 686 l 1
 333 476 l 1
 337 476 l 1
 400 571 454 657 470 686 c 1
 637 686 l 1
 637 686 517 499 426 362 c 1
 504 242 658 0 658 0 c 1
 477 0 l 1
 325 245 l 1
 321 245 l 1
 251 137 186 35 167 0 c 1
 0 0 l 1
EndSplineSet
Validated: 1
Position2: "'cpsp' Capital Spacing lookup 0 subtable" dx=5 dy=0 dh=10 dv=0
EndChar

StartChar: Y
Encoding: 95 89 95
Width: 637
GlyphClass: 2
Flags: MW
HStem: 0 21G<242 396 242 242> 666 20G<7 181 181 181 472 630 630 630>
VStem: 242 154<0 263>
LayerCount: 2
Fore
SplineSet
396 0 m 1
 242 0 l 1
 242 263 l 1
 7 686 l 1
 181 686 l 1
 324 414 l 1
 329 414 l 1
 472 686 l 1
 630 686 l 1
 396 263 l 1
 396 0 l 1
EndSplineSet
Validated: 1
Position2: "'cpsp' Capital Spacing lookup 0 subtable" dx=5 dy=0 dh=10 dv=0
EndChar

StartChar: Yacute
Encoding: 96 221 96
Width: 637
GlyphClass: 2
Flags: MW
HStem: 0 21G<242 396 242 242> 666 20G<7 181 181 181 472 630 630 630> 750 145<367 376 275 496>
VStem: 242 154<0 263>
LayerCount: 2
Fore
SplineSet
367 895 m 1
 496 895 l 1
 497 892 l 1
 376 750 l 1
 275 750 l 1
 367 895 l 1
396 0 m 1
 242 0 l 1
 242 263 l 1
 7 686 l 1
 181 686 l 1
 324 414 l 1
 329 414 l 1
 472 686 l 1
 630 686 l 1
 396 263 l 1
 396 0 l 1
EndSplineSet
Validated: 1
Position2: "'cpsp' Capital Spacing lookup 0 subtable" dx=5 dy=0 dh=10 dv=0
EndChar

StartChar: Ydieresis
Encoding: 97 376 97
Width: 637
GlyphClass: 2
Flags: MW
HStem: 0 21G<242 396 242 242> 666 20G<7 181 181 181 472 630 630 630> 749 122<168 289 168 289 168 372 372 493>
VStem: 168 121<749 871 749 871> 242 154<0 263> 372 121<749 871 749 871>
LayerCount: 2
Fore
SplineSet
289 871 m 1xf4
 289 749 l 1
 168 749 l 1
 168 871 l 1
 289 871 l 1xf4
493 871 m 1
 493 749 l 1
 372 749 l 1
 372 871 l 1
 493 871 l 1
396 0 m 1xe8
 242 0 l 1
 242 263 l 1
 7 686 l 1
 181 686 l 1
 324 414 l 1
 329 414 l 1
 472 686 l 1
 630 686 l 1
 396 263 l 1
 396 0 l 1xe8
EndSplineSet
Validated: 1
Position2: "'cpsp' Capital Spacing lookup 0 subtable" dx=5 dy=0 dh=10 dv=0
EndChar

StartChar: Z
Encoding: 98 90 98
Width: 631
GlyphClass: 2
Flags: MW
HStem: 0 123<266 589 266 589> 563 123<66 358 66 581>
VStem: 42 547<0 49 49 49>
LayerCount: 2
Fore
SplineSet
42 49 m 1
 358 563 l 1
 66 563 l 1
 66 686 l 1
 581 686 l 1
 581 636 l 1
 266 123 l 1
 589 123 l 1
 589 0 l 1
 42 0 l 1
 42 49 l 1
EndSplineSet
Validated: 1
Position2: "'cpsp' Capital Spacing lookup 0 subtable" dx=5 dy=0 dh=10 dv=0
EndChar

StartChar: Zacute
Encoding: 99 377 99
Width: 631
GlyphClass: 2
Flags: MW
HStem: 0 123<266 589 266 589> 563 123<66 358 66 581> 750 145<327 336 235 456>
VStem: 42 547<0 49 49 49>
LayerCount: 2
Fore
SplineSet
327 895 m 1
 456 895 l 1
 457 892 l 1
 336 750 l 1
 235 750 l 1
 327 895 l 1
42 49 m 1
 358 563 l 1
 66 563 l 1
 66 686 l 1
 581 686 l 1
 581 636 l 1
 266 123 l 1
 589 123 l 1
 589 0 l 1
 42 0 l 1
 42 49 l 1
EndSplineSet
Validated: 1
EndChar

StartChar: Zcaron
Encoding: 100 381 100
Width: 631
GlyphClass: 2
Flags: MW
HStem: 0 123<266 589 266 589> 563 123<66 358 66 581> 750 145<133 374 133 271>
VStem: 42 547<0 49 49 49>
LayerCount: 2
Fore
SplineSet
238 895 m 1
 323 812 l 1
 407 895 l 1
 511 895 l 1
 465 847 419 798 374 750 c 1
 271 750 l 1
 133 895 l 1
 238 895 l 1
42 49 m 1
 358 563 l 1
 66 563 l 1
 66 686 l 1
 581 686 l 1
 581 636 l 1
 266 123 l 1
 589 123 l 1
 589 0 l 1
 42 0 l 1
 42 49 l 1
EndSplineSet
Validated: 1
Position2: "'cpsp' Capital Spacing lookup 0 subtable" dx=5 dy=0 dh=10 dv=0
EndChar

StartChar: Zdotaccent
Encoding: 101 379 101
Width: 631
GlyphClass: 2
Flags: MW
HStem: 0 123<266 589 266 589> 563 123<66 358 66 581> 779 132<297.5 333.5>
VStem: 250 132<827 863 826 863.5>
LayerCount: 2
Fore
SplineSet
382 845 m 0
 382 807 352 779 315 779 c 0
 280 779 250 809 250 845 c 0
 250 882 279 911 316 911 c 0
 353 911 382 881 382 845 c 0
42 49 m 1
 358 563 l 1
 66 563 l 1
 66 686 l 1
 581 686 l 1
 581 636 l 1
 266 123 l 1
 589 123 l 1
 589 0 l 1
 42 0 l 1
 42 49 l 1
EndSplineSet
Validated: 1
EndChar

StartChar: a
Encoding: 102 97 102
Width: 598
GlyphClass: 2
Flags: MW
HStem: -10 100<241.5 255> 229 82<317.5 379> 421 100<281 302 302 322>
VStem: 40 151<127.5 179 127.5 212.5> 56 143<354 415> 379 143<202 229 229 229 311 345 345 362>
LayerCount: 2
Fore
SplineSet
379 311 m 1xf4
 379 345 l 2
 379 387 356 421 288 421 c 0
 229 421 199 385 199 362 c 2
 199 354 l 1
 58 354 l 1
 57 360 56 365 56 372 c 0xec
 56 458 147 521 281 521 c 2
 302 521 l 2
 450 521 522 457 522 362 c 2
 522 126 l 2
 522 100 537 90 551 90 c 0
 566 90 586 98 592 101 c 1
 592 11 l 1
 585 7 554 -10 504 -10 c 0
 428 -10 392 24 386 76 c 1
 351 33 296 -10 214 -10 c 0
 132 -10 40 11 40 139 c 0
 40 286 174 311 379 311 c 1xf4
379 202 m 2
 379 229 l 1
 256 229 191 208 191 150 c 0xf4
 191 105 217 90 266 90 c 0
 316 90 379 134 379 202 c 2
EndSplineSet
Validated: 1
Substitution2: "Single Substitution lookup 5 subtable" ordfeminine
Substitution2: "'aalt' Access All Alternates lookup 0 subtable" ordfeminine
EndChar

StartChar: aacute
Encoding: 103 225 103
Width: 598
GlyphClass: 2
Flags: MW
HStem: -10 100<241.5 255> 229 82<317.5 379> 421 100<281 302 302 322> 575 145<338 347 246 467>
VStem: 40 151<127.5 179 127.5 212.5> 56 143<354 415> 379 143<202 229 229 229 311 345 345 362>
LayerCount: 2
Fore
SplineSet
338 720 m 1xfa
 467 720 l 1
 468 717 l 1
 347 575 l 1
 246 575 l 1
 338 720 l 1xfa
379 311 m 1
 379 345 l 2
 379 387 356 421 288 421 c 0
 229 421 199 385 199 362 c 2
 199 354 l 1
 58 354 l 1
 57 360 56 365 56 372 c 0xf6
 56 458 147 521 281 521 c 2
 302 521 l 2
 450 521 522 457 522 362 c 2
 522 126 l 2
 522 100 537 90 551 90 c 0
 566 90 586 98 592 101 c 1
 592 11 l 1
 585 7 554 -10 504 -10 c 0
 428 -10 392 24 386 76 c 1
 351 33 296 -10 214 -10 c 0
 132 -10 40 11 40 139 c 0
 40 286 174 311 379 311 c 1
379 202 m 2
 379 229 l 1
 256 229 191 208 191 150 c 0xfa
 191 105 217 90 266 90 c 0
 316 90 379 134 379 202 c 2
EndSplineSet
Validated: 1
EndChar

StartChar: abreve
Encoding: 104 259 104
Width: 598
GlyphClass: 2
Flags: MW
HStem: -10 100<241.5 255> 229 82<317.5 379> 421 100<281 302 302 322> 613 74<269 326 269 351.5>
VStem: 40 151<127.5 179 127.5 212.5> 56 143<354 415> 379 143<202 229 229 229 311 345 345 362>
LayerCount: 2
Fore
SplineSet
298 613 m 0xfa
 192 613 106 680 106 737 c 1
 187 737 l 1
 193 713 240 687 298 687 c 0
 354 687 404 715 409 737 c 1
 491 737 l 1
 491 680 405 613 298 613 c 0xfa
379 311 m 1
 379 345 l 2
 379 387 356 421 288 421 c 0
 229 421 199 385 199 362 c 2
 199 354 l 1
 58 354 l 1
 57 360 56 365 56 372 c 0xf6
 56 458 147 521 281 521 c 2
 302 521 l 2
 450 521 522 457 522 362 c 2
 522 126 l 2
 522 100 537 90 551 90 c 0
 566 90 586 98 592 101 c 1
 592 11 l 1
 585 7 554 -10 504 -10 c 0
 428 -10 392 24 386 76 c 1
 351 33 296 -10 214 -10 c 0
 132 -10 40 11 40 139 c 0
 40 286 174 311 379 311 c 1
379 202 m 2
 379 229 l 1
 256 229 191 208 191 150 c 0xfa
 191 105 217 90 266 90 c 0
 316 90 379 134 379 202 c 2
EndSplineSet
Validated: 1
EndChar

StartChar: acircumflex
Encoding: 105 226 105
Width: 598
GlyphClass: 2
Flags: MW
HStem: -10 100<241.5 255> 229 82<317.5 379> 421 100<281 302 302 322> 575 145<104 345 104 345 242 482 242 377>
VStem: 40 151<127.5 179 127.5 212.5> 56 143<354 415> 379 143<202 229 229 229 311 345 345 362>
LayerCount: 2
Fore
SplineSet
242 720 m 1xfa
 345 720 l 1
 390 672 436 623 482 575 c 1
 377 575 l 1
 293 658 l 1
 208 575 l 1
 104 575 l 1
 242 720 l 1xfa
379 311 m 1
 379 345 l 2
 379 387 356 421 288 421 c 0
 229 421 199 385 199 362 c 2
 199 354 l 1
 58 354 l 1
 57 360 56 365 56 372 c 0xf6
 56 458 147 521 281 521 c 2
 302 521 l 2
 450 521 522 457 522 362 c 2
 522 126 l 2
 522 100 537 90 551 90 c 0
 566 90 586 98 592 101 c 1
 592 11 l 1
 585 7 554 -10 504 -10 c 0
 428 -10 392 24 386 76 c 1
 351 33 296 -10 214 -10 c 0
 132 -10 40 11 40 139 c 0
 40 286 174 311 379 311 c 1
379 202 m 2
 379 229 l 1
 256 229 191 208 191 150 c 0xfa
 191 105 217 90 266 90 c 0
 316 90 379 134 379 202 c 2
EndSplineSet
Validated: 1
EndChar

StartChar: adieresis
Encoding: 106 228 106
Width: 598
GlyphClass: 2
Flags: MW
HStem: -10 100<241.5 255> 229 82<317.5 379> 421 100<281 302 302 322> 598 122<128 249 128 249 128 332 332 453>
VStem: 40 151<127.5 179 127.5 212.5> 56 143<354 415> 128 121<598 720 598 720> 332 121<598 720 598 720> 379 143<202 229 229 229 311 345 345 362>
LayerCount: 2
Fore
SplineSet
249 720 m 1xf280
 249 598 l 1
 128 598 l 1
 128 720 l 1
 249 720 l 1xf280
453 720 m 1xf3
 453 598 l 1
 332 598 l 1
 332 720 l 1
 453 720 l 1xf3
379 311 m 1xf880
 379 345 l 2
 379 387 356 421 288 421 c 0
 229 421 199 385 199 362 c 2
 199 354 l 1
 58 354 l 1
 57 360 56 365 56 372 c 0xf480
 56 458 147 521 281 521 c 2
 302 521 l 2
 450 521 522 457 522 362 c 2
 522 126 l 2
 522 100 537 90 551 90 c 0
 566 90 586 98 592 101 c 1
 592 11 l 1
 585 7 554 -10 504 -10 c 0
 428 -10 392 24 386 76 c 1
 351 33 296 -10 214 -10 c 0
 132 -10 40 11 40 139 c 0
 40 286 174 311 379 311 c 1xf880
379 202 m 2
 379 229 l 1
 256 229 191 208 191 150 c 0xf880
 191 105 217 90 266 90 c 0
 316 90 379 134 379 202 c 2
EndSplineSet
Validated: 1
EndChar

StartChar: agrave
Encoding: 107 224 107
Width: 598
GlyphClass: 2
Flags: MW
HStem: -10 100<241.5 255> 229 82<317.5 379> 421 100<281 302 302 322> 575 145<242 251 123 344 242 242>
VStem: 40 151<127.5 179 127.5 212.5> 56 143<354 415> 379 143<202 229 229 229 311 345 345 362>
LayerCount: 2
Fore
SplineSet
122 717 m 1xfa
 123 720 l 1
 251 720 l 1
 344 575 l 1
 242 575 l 1
 122 717 l 1xfa
379 311 m 1
 379 345 l 2
 379 387 356 421 288 421 c 0
 229 421 199 385 199 362 c 2
 199 354 l 1
 58 354 l 1
 57 360 56 365 56 372 c 0xf6
 56 458 147 521 281 521 c 2
 302 521 l 2
 450 521 522 457 522 362 c 2
 522 126 l 2
 522 100 537 90 551 90 c 0
 566 90 586 98 592 101 c 1
 592 11 l 1
 585 7 554 -10 504 -10 c 0
 428 -10 392 24 386 76 c 1
 351 33 296 -10 214 -10 c 0
 132 -10 40 11 40 139 c 0
 40 286 174 311 379 311 c 1
379 202 m 2
 379 229 l 1
 256 229 191 208 191 150 c 0xfa
 191 105 217 90 266 90 c 0
 316 90 379 134 379 202 c 2
EndSplineSet
Validated: 1
EndChar

StartChar: amacron
Encoding: 108 257 108
Width: 598
GlyphClass: 2
Flags: MW
HStem: -10 100<241.5 255> 229 82<317.5 379> 421 100<281 302 302 322> 662 74<140 458 140 458>
VStem: 40 151<127.5 179 127.5 212.5> 56 143<354 415> 379 143<202 229 229 229 311 345 345 362>
LayerCount: 2
Fore
SplineSet
140 736 m 1xfa
 458 736 l 1
 458 662 l 1
 140 662 l 1
 140 736 l 1xfa
379 311 m 1
 379 345 l 2
 379 387 356 421 288 421 c 0
 229 421 199 385 199 362 c 2
 199 354 l 1
 58 354 l 1
 57 360 56 365 56 372 c 0xf6
 56 458 147 521 281 521 c 2
 302 521 l 2
 450 521 522 457 522 362 c 2
 522 126 l 2
 522 100 537 90 551 90 c 0
 566 90 586 98 592 101 c 1
 592 11 l 1
 585 7 554 -10 504 -10 c 0
 428 -10 392 24 386 76 c 1
 351 33 296 -10 214 -10 c 0
 132 -10 40 11 40 139 c 0
 40 286 174 311 379 311 c 1
379 202 m 2
 379 229 l 1
 256 229 191 208 191 150 c 0xfa
 191 105 217 90 266 90 c 0
 316 90 379 134 379 202 c 2
EndSplineSet
Validated: 1
EndChar

StartChar: aogonek
Encoding: 109 261 109
Width: 598
GlyphClass: 2
Flags: MW
HStem: -143 50<524.5 535.5> -10 100<241.5 255> -7 21G 229 82<317.5 379> 421 100<281 302 302 322>
VStem: 40 151<127.5 179 127.5 212.5> 56 143<354 415> 379 143<202 229 229 229 311 345 345 362> 422 69<-71 -57>
LayerCount: 2
Fore
SplineSet
602 -79 m 1xbd
 615 -119 l 1
 586 -135 552 -143 519 -143 c 0
 473 -143 422 -126 422 -71 c 0
 422 -43 445 -22 466 -7 c 1xbc80
 416 3 391 34 386 76 c 1
 351 33 296 -10 214 -10 c 0
 132 -10 40 11 40 139 c 0xdc80
 40 286 174 311 379 311 c 1
 379 345 l 2
 379 387 356 421 288 421 c 0
 229 421 199 385 199 362 c 2
 199 354 l 1
 58 354 l 1
 57 360 56 365 56 372 c 0
 56 458 147 521 281 521 c 2
 302 521 l 2
 450 521 522 457 522 362 c 2
 522 126 l 2
 522 100 537 90 551 90 c 0xdb
 566 90 586 98 592 101 c 1
 592 11 l 1
 586 8 562 -6 523 -9 c 1
 507 -21 491 -38 491 -57 c 0
 491 -85 514 -93 535 -93 c 0xdc80
 559 -93 581 -87 602 -79 c 1xbd
379 202 m 2xdd
 379 229 l 1
 256 229 191 208 191 150 c 0
 191 105 217 90 266 90 c 0
 316 90 379 134 379 202 c 2xdd
EndSplineSet
Validated: 1
EndChar

StartChar: aring
Encoding: 110 229 110
Width: 598
GlyphClass: 2
Flags: MW
HStem: -10 100<241.5 255> 229 82<317.5 379> 421 100<281 302 302 322> 556 57<279 303 279 319> 701 57<279 303>
VStem: 40 151<127.5 179 127.5 212.5> 56 143<354 415> 190 57<645 669 645 685> 335 57<645 669> 379 143<202 229 229 229 311 345 345 362>
LayerCount: 2
Fore
SplineSet
190 657 m 0xf940
 190 713 235 758 291 758 c 0
 347 758 392 713 392 657 c 0xf980
 392 601 347 556 291 556 c 0
 235 556 190 601 190 657 c 0xf940
247 657 m 0
 247 633 267 613 291 613 c 0
 315 613 335 633 335 657 c 0xf980
 335 681 315 701 291 701 c 0
 267 701 247 681 247 657 c 0
379 311 m 1
 379 345 l 2
 379 387 356 421 288 421 c 0
 229 421 199 385 199 362 c 2
 199 354 l 1
 58 354 l 1
 57 360 56 365 56 372 c 0xfa40
 56 458 147 521 281 521 c 2
 302 521 l 2
 450 521 522 457 522 362 c 2
 522 126 l 2
 522 100 537 90 551 90 c 0
 566 90 586 98 592 101 c 1
 592 11 l 1
 585 7 554 -10 504 -10 c 0
 428 -10 392 24 386 76 c 1
 351 33 296 -10 214 -10 c 0
 132 -10 40 11 40 139 c 0xfc40
 40 286 174 311 379 311 c 1
379 202 m 2
 379 229 l 1
 256 229 191 208 191 150 c 0xfc40
 191 105 217 90 266 90 c 0
 316 90 379 134 379 202 c 2
EndSplineSet
Validated: 1
EndChar

StartChar: atilde
Encoding: 111 227 111
Width: 598
GlyphClass: 2
Flags: MW
HStem: -10 100<241.5 255> 229 82<317.5 379> 421 100<281 302 302 322> 596 86<356 397 356 414> 633 87<190 231>
VStem: 40 151<127.5 179 127.5 212.5> 56 143<354 415> 379 143<202 229 229 229 311 345 345 362>
LayerCount: 2
Fore
SplineSet
436 720 m 1xf5
 501 720 l 1xf5
 501 660 453 596 375 596 c 0
 311 596 258 633 204 633 c 0xed
 176 633 159 619 152 596 c 1
 86 596 l 1
 86 655 135 720 213 720 c 0
 277 720 329 682 383 682 c 0
 411 682 429 697 436 720 c 1xf5
379 311 m 1
 379 345 l 2
 379 387 356 421 288 421 c 0
 229 421 199 385 199 362 c 2
 199 354 l 1
 58 354 l 1
 57 360 56 365 56 372 c 0xf3
 56 458 147 521 281 521 c 2
 302 521 l 2
 450 521 522 457 522 362 c 2
 522 126 l 2
 522 100 537 90 551 90 c 0
 566 90 586 98 592 101 c 1
 592 11 l 1
 585 7 554 -10 504 -10 c 0
 428 -10 392 24 386 76 c 1
 351 33 296 -10 214 -10 c 0
 132 -10 40 11 40 139 c 0
 40 286 174 311 379 311 c 1
379 202 m 2
 379 229 l 1
 256 229 191 208 191 150 c 0xf5
 191 105 217 90 266 90 c 0
 316 90 379 134 379 202 c 2
EndSplineSet
Validated: 1
EndChar

StartChar: ae
Encoding: 112 230 112
Width: 918
GlyphClass: 2
Flags: MW
HStem: -10 98<248.5 262.5 596 631 631 641> 231 80<529 729> 425 96<281 302 302 324>
VStem: 40 151<126 179 126 212.5> 56 143<354 415> 379 149<197 229 229 229 188.5 349 188.5 368> 729 144<231 324 231 354.5> 736 136<170.5 191>
LayerCount: 2
Fore
SplineSet
873 231 m 1xf6
 528 231 l 1
 528 146 555 88 637 88 c 0
 717 88 736 150 736 191 c 1
 872 191 l 1
 872 73 782 -10 641 -10 c 2
 631 -10 l 2
 546 -10 475 21 430 79 c 1
 385 23 304 -10 221 -10 c 0
 139 -10 40 11 40 139 c 0xf5
 40 286 174 311 379 311 c 1
 379 349 l 2
 379 387 360 425 288 425 c 0
 219 425 199 383 199 362 c 2
 199 354 l 1
 58 354 l 1
 57 360 56 365 56 372 c 0xee
 56 458 147 521 281 521 c 2
 302 521 l 2
 379 521 434 503 469 472 c 1
 510 504 565 521 626 521 c 2
 642 521 l 2
 784 521 873 431 873 298 c 2
 873 231 l 1xf6
632 423 m 0xf6
 569 423 534 378 529 311 c 1
 729 311 l 1
 729 324 l 2
 729 385 685 423 632 423 c 0xf6
379 197 m 2
 379 229 l 1
 256 229 191 208 191 150 c 0
 191 102 224 88 273 88 c 0
 327 88 379 129 379 197 c 2
EndSplineSet
Validated: 1
EndChar

StartChar: b
Encoding: 113 98 113
Width: 595
GlyphClass: 2
Flags: MW
HStem: -10 100<303 335 281 398.5> 0 21G<66 119 66 66> 415 106<320 335>
VStem: 66 146<170.5 211 211 294 452 720> 404 148<211 253 253 264 163 294 163 334.5>
LayerCount: 2
Fore
SplineSet
212 720 m 1xb8
 212 452 l 1
 237 485 285 521 355 521 c 0
 464 521 552 435 552 264 c 2
 552 253 l 2
 552 73 457 -10 340 -10 c 0
 266 -10 208 21 170 78 c 1xb8
 153 52 136 25 119 0 c 1
 66 0 l 1x78
 66 720 l 1
 212 720 l 1xb8
404 211 m 2
 404 294 l 2
 404 375 362 415 308 415 c 0
 254 415 212 375 212 294 c 2
 212 211 l 2
 212 130 254 90 308 90 c 0
 362 90 404 130 404 211 c 2
EndSplineSet
Validated: 1
EndChar

StartChar: c
Encoding: 114 99 114
Width: 567
GlyphClass: 2
Flags: MW
HStem: -10 100<256.5 287 287 303> 421 100<287 303 303 319>
VStem: 43 148<241 270 270 296 174.5 349.5> 386 138<165 203>
AnchorPoint: "Bottom" 284 0 basechar 0
LayerCount: 2
Fore
SplineSet
191 296 m 2
 191 207 l 2
 191 142 226 90 287 90 c 0
 347 90 386 127 386 203 c 1
 524 203 l 1
 524 55 418 -10 303 -10 c 2
 287 -10 l 2
 139 -10 43 82 43 241 c 2
 43 270 l 2
 43 429 146 521 287 521 c 2
 303 521 l 2
 419 521 524 444 524 307 c 1
 379 307 l 1
 379 373 350 421 288 421 c 0
 226 421 191 365 191 296 c 2
EndSplineSet
Validated: 1
EndChar

StartChar: cacute
Encoding: 115 263 115
Width: 567
GlyphClass: 2
Flags: MW
HStem: -10 100<256.5 287 287 303> 421 100<287 303 303 319> 575 145<295 304 203 424>
VStem: 43 148<241 270 270 296 174.5 349.5> 386 138<165 203>
AnchorPoint: "Bottom" 284 0 basechar 0
LayerCount: 2
Fore
SplineSet
295 720 m 1
 424 720 l 1
 425 717 l 1
 304 575 l 1
 203 575 l 1
 295 720 l 1
191 296 m 2
 191 207 l 2
 191 142 226 90 287 90 c 0
 347 90 386 127 386 203 c 1
 524 203 l 1
 524 55 418 -10 303 -10 c 2
 287 -10 l 2
 139 -10 43 82 43 241 c 2
 43 270 l 2
 43 429 146 521 287 521 c 2
 303 521 l 2
 419 521 524 444 524 307 c 1
 379 307 l 1
 379 373 350 421 288 421 c 0
 226 421 191 365 191 296 c 2
EndSplineSet
Validated: 1
EndChar

StartChar: ccaron
Encoding: 116 269 116
Width: 567
GlyphClass: 2
Flags: MW
HStem: -10 100<256.5 287 287 303> 421 100<287 303 303 319> 575 145<95 336 95 233>
VStem: 43 148<241 270 270 296 174.5 349.5> 386 138<165 203>
AnchorPoint: "Bottom" 284 0 basechar 0
LayerCount: 2
Fore
SplineSet
200 720 m 1
 285 637 l 1
 369 720 l 1
 473 720 l 1
 427 672 381 623 336 575 c 1
 233 575 l 1
 95 720 l 1
 200 720 l 1
191 296 m 2
 191 207 l 2
 191 142 226 90 287 90 c 0
 347 90 386 127 386 203 c 1
 524 203 l 1
 524 55 418 -10 303 -10 c 2
 287 -10 l 2
 139 -10 43 82 43 241 c 2
 43 270 l 2
 43 429 146 521 287 521 c 2
 303 521 l 2
 419 521 524 444 524 307 c 1
 379 307 l 1
 379 373 350 421 288 421 c 0
 226 421 191 365 191 296 c 2
EndSplineSet
Validated: 1
EndChar

StartChar: ccedilla
Encoding: 117 231 117
Width: 571
GlyphClass: 2
Flags: MW
HStem: -197 55<264.5 292.5 255.5 305> -68 51<263 283 263 286> -10 100<258.5 289 289 305> 421 100<289 305 305 321>
VStem: 45 148<241 270 270 296 174.5 349.5> 328 74<-117.5 -92.5> 388 138<165 203>
LayerCount: 2
Fore
SplineSet
193 296 m 2xbc
 193 207 l 2
 193 142 228 90 289 90 c 0
 349 90 388 127 388 203 c 1
 526 203 l 1
 526 55 420 -10 305 -10 c 2
 289 -10 l 2
 141 -10 45 82 45 241 c 2
 45 270 l 2
 45 429 148 521 289 521 c 2
 305 521 l 2
 421 521 526 444 526 307 c 1
 381 307 l 1xba
 381 373 352 421 290 421 c 0
 228 421 193 365 193 296 c 2xbc
175 -168 m 1
 196 -116 l 1
 202 -119 232 -142 279 -142 c 0
 306 -142 328 -131 328 -104 c 0
 328 -81 311 -68 283 -68 c 2
 263 -68 l 1
 263 -17 l 1
 286 -17 l 2
 343 -17 402 -34 402 -107 c 0xdc
 402 -182 327 -197 283 -197 c 0
 246 -197 202 -187 175 -168 c 1
EndSplineSet
Validated: 1
EndChar

StartChar: d
Encoding: 118 100 118
Width: 595
GlyphClass: 2
Flags: MW
HStem: -10 100<260 288.5> 0 21G<414 414 414 529> 415 106<260 275 185.5 314>
VStem: 43 148<253 264 264 294 170.5 349.5> 383 146<211 294 294 334.5 452 720 0 720>
LayerCount: 2
Fore
SplineSet
414 0 m 1x78
 399 64 l 1
 367 22 322 -10 255 -10 c 0xb8
 138 -10 43 73 43 253 c 2
 43 264 l 2
 43 435 131 521 240 521 c 0
 310 521 358 485 383 452 c 1
 383 720 l 1
 529 720 l 1
 529 0 l 1
 414 0 l 1x78
191 294 m 2
 191 211 l 2
 191 130 233 90 287 90 c 0
 341 90 383 130 383 211 c 2
 383 294 l 2
 383 375 341 415 287 415 c 0
 233 415 191 375 191 294 c 2
EndSplineSet
Validated: 1
EndChar

StartChar: eth
Encoding: 119 240 119
Width: 614
GlyphClass: 2
Flags: MW
HStem: -10 100<272 295 295 311> 421 93<272 297 227.5 334>
VStem: 45 148<241 270 270 296 173 349.5> 413 148<215 241 241 270 161 296 161 338>
LayerCount: 2
Fore
SplineSet
561 270 m 2
 561 241 l 2
 561 81 452 -10 311 -10 c 2
 295 -10 l 2
 154 -10 45 82 45 241 c 2
 45 270 l 2
 45 429 158 514 297 514 c 1
 283 536 262 564 237 592 c 1
 158 555 l 1
 111 597 l 1
 195 637 l 1
 168 660 136 680 110 692 c 1
 110 698 183 727 197 734 c 1
 228 720 260 703 291 684 c 1
 374 722 l 1
 417 680 l 1
 393 669 369 657 344 646 c 1
 462 552 561 416 561 270 c 2
413 215 m 2
 413 296 l 2
 413 380 365 421 303 421 c 0
 241 421 193 380 193 296 c 2
 193 215 l 2
 193 131 241 90 303 90 c 0
 365 90 413 131 413 215 c 2
EndSplineSet
Validated: 1
EndChar

StartChar: dcaron
Encoding: 120 271 120
Width: 595
GlyphClass: 2
Flags: MW
HStem: -10 100<260 288.5> 0 21G<414 414 414 529> 415 106<260 275 185.5 314> 539 147<584 647 584 730> 539 181<383 647 383 584>
VStem: 43 148<253 264 264 294 170.5 349.5> 383 146<211 294 294 334.5 452 720 0 720> 584 146<563 686 563 686 563 686>
LayerCount: 2
Fore
SplineSet
414 0 m 1x4f
 399 64 l 1
 367 22 322 -10 255 -10 c 0
 138 -10 43 73 43 253 c 2
 43 264 l 2
 43 435 131 521 240 521 c 0
 310 521 358 485 383 452 c 1xb7
 383 720 l 1
 529 720 l 1
 529 0 l 1
 414 0 l 1x4f
688 395 m 1
 615 395 l 1
 625 443 636 491 647 539 c 1
 584 539 l 1
 584 686 l 1
 730 686 l 1x97
 730 563 l 1
 688 395 l 1
191 294 m 2
 191 211 l 2
 191 130 233 90 287 90 c 0
 341 90 383 130 383 211 c 2
 383 294 l 2
 383 375 341 415 287 415 c 0xb7
 233 415 191 375 191 294 c 2
EndSplineSet
Validated: 1
EndChar

StartChar: dcroat
Encoding: 121 273 121
Width: 595
GlyphClass: 2
Flags: MW
HStem: -10 100<260 288.5> 0 21G<414 529 414 414> 415 106<260 275 185.5 314> 592 74<215 383 215 383 529 597>
VStem: 43 148<253 264 264 294 170.5 349.5> 383 146<211 294 294 334.5 452 592 0 592 666 720 0 720>
LayerCount: 2
Fore
SplineSet
597 592 m 1xbc
 529 592 l 1
 529 0 l 1
 414 0 l 1x7c
 399 64 l 1
 367 22 322 -10 255 -10 c 0
 138 -10 43 73 43 253 c 2
 43 264 l 2
 43 435 131 521 240 521 c 0
 310 521 358 485 383 452 c 1
 383 592 l 1
 215 592 l 1
 215 666 l 1
 383 666 l 1
 383 720 l 1
 529 720 l 1
 529 666 l 1
 597 666 l 1
 597 592 l 1xbc
383 211 m 2
 383 294 l 2
 383 375 341 415 287 415 c 0
 233 415 191 375 191 294 c 2
 191 211 l 2
 191 130 233 90 287 90 c 0xbc
 341 90 383 130 383 211 c 2
EndSplineSet
Validated: 1
EndChar

StartChar: e
Encoding: 122 101 122
Width: 584
GlyphClass: 2
Flags: MW
HStem: -10 100<266 293 293 309> 231 80<191 393 191 541 191 393> 421 100<293 309 309 330.5>
VStem: 43 148<174.5 270 174.5 311 174.5 349.5> 393 148<231 342.5> 400 140<157 191>
AnchorPoint: "Bottom" 292 0 basechar 0
LayerCount: 2
Fore
SplineSet
400 191 m 1xf4
 540 191 l 1xf4
 540 50 427 -10 309 -10 c 2
 293 -10 l 2
 151 -10 43 82 43 241 c 2
 43 270 l 2
 43 429 153 521 293 521 c 2
 309 521 l 2
 431 521 541 444 541 307 c 2
 541 231 l 1xf8
 191 231 l 1
 191 207 l 2
 191 142 231 90 301 90 c 0
 361 90 400 123 400 191 c 1xf4
294 421 m 0xf8
 234 421 196 373 191 311 c 1
 393 311 l 1
 393 374 367 421 294 421 c 0xf8
EndSplineSet
Validated: 1
EndChar

StartChar: eacute
Encoding: 123 233 123
Width: 588
GlyphClass: 2
Flags: MW
HStem: -10 100<268 295 295 311> 231 80<193 395 193 543 193 395> 421 100<295 311 311 332.5> 575 145<339 348 247 468>
VStem: 45 148<174.5 270 174.5 311 174.5 349.5> 395 148<231 342.5> 402 140<157 191>
LayerCount: 2
Fore
SplineSet
339 720 m 1xfc
 468 720 l 1
 469 717 l 1
 348 575 l 1
 247 575 l 1
 339 720 l 1xfc
402 191 m 1xfa
 542 191 l 1xfa
 542 50 429 -10 311 -10 c 2
 295 -10 l 2
 153 -10 45 82 45 241 c 2
 45 270 l 2
 45 429 155 521 295 521 c 2
 311 521 l 2
 433 521 543 444 543 307 c 2
 543 231 l 1xfc
 193 231 l 1
 193 207 l 2
 193 142 233 90 303 90 c 0
 363 90 402 123 402 191 c 1xfa
296 421 m 0xfc
 236 421 198 373 193 311 c 1
 395 311 l 1
 395 374 369 421 296 421 c 0xfc
EndSplineSet
Validated: 1
EndChar

StartChar: ecaron
Encoding: 124 283 124
Width: 584
GlyphClass: 2
Flags: MW
HStem: -10 100<266 293 293 309> 231 80<191 393 191 541 191 393> 421 100<293 309 309 330.5> 575 145<103 344 103 241>
VStem: 43 148<174.5 270 174.5 311 174.5 349.5> 393 148<231 342.5> 400 140<157 191>
AnchorPoint: "Bottom" 292 0 basechar 0
LayerCount: 2
Fore
SplineSet
208 720 m 1xfc
 293 637 l 1
 377 720 l 1
 481 720 l 1
 435 672 389 623 344 575 c 1
 241 575 l 1
 103 720 l 1
 208 720 l 1xfc
400 191 m 1xfa
 540 191 l 1xfa
 540 50 427 -10 309 -10 c 2
 293 -10 l 2
 151 -10 43 82 43 241 c 2
 43 270 l 2
 43 429 153 521 293 521 c 2
 309 521 l 2
 431 521 541 444 541 307 c 2
 541 231 l 1xfc
 191 231 l 1
 191 207 l 2
 191 142 231 90 301 90 c 0
 361 90 400 123 400 191 c 1xfa
294 421 m 0xfc
 234 421 196 373 191 311 c 1
 393 311 l 1
 393 374 367 421 294 421 c 0xfc
EndSplineSet
Validated: 1
EndChar

StartChar: ecircumflex
Encoding: 125 234 125
Width: 588
GlyphClass: 2
Flags: MW
HStem: -10 100<268 295 295 311> 231 80<193 395 193 543 193 395> 421 100<295 311 311 332.5> 575 145<112 353 112 353 250 490 250 385>
VStem: 45 148<174.5 270 174.5 311 174.5 349.5> 395 148<231 342.5> 402 140<157 191>
LayerCount: 2
Fore
SplineSet
250 720 m 1xfc
 353 720 l 1
 398 672 444 623 490 575 c 1
 385 575 l 1
 301 658 l 1
 216 575 l 1
 112 575 l 1
 250 720 l 1xfc
402 191 m 1xfa
 542 191 l 1xfa
 542 50 429 -10 311 -10 c 2
 295 -10 l 2
 153 -10 45 82 45 241 c 2
 45 270 l 2
 45 429 155 521 295 521 c 2
 311 521 l 2
 433 521 543 444 543 307 c 2
 543 231 l 1xfc
 193 231 l 1
 193 207 l 2
 193 142 233 90 303 90 c 0
 363 90 402 123 402 191 c 1xfa
296 421 m 0xfc
 236 421 198 373 193 311 c 1
 395 311 l 1
 395 374 369 421 296 421 c 0xfc
EndSplineSet
Validated: 1
EndChar

StartChar: edieresis
Encoding: 126 235 126
Width: 588
GlyphClass: 2
Flags: MW
HStem: -10 100<268 295 295 311> 231 80<193 395 193 543 193 395> 421 100<295 311 311 332.5> 598 122<138 259 138 259 138 342 342 463>
VStem: 45 148<174.5 270 174.5 311 174.5 349.5> 138 121<598 720 598 720> 342 121<598 720 598 720> 395 148<231 342.5> 402 140<157 191>
LayerCount: 2
Fore
SplineSet
259 720 m 1xf6
 259 598 l 1
 138 598 l 1
 138 720 l 1
 259 720 l 1xf6
463 720 m 1
 463 598 l 1
 342 598 l 1
 342 720 l 1
 463 720 l 1
402 191 m 1xf880
 542 191 l 1xf480
 542 50 429 -10 311 -10 c 2
 295 -10 l 2
 153 -10 45 82 45 241 c 2
 45 270 l 2
 45 429 155 521 295 521 c 2
 311 521 l 2
 433 521 543 444 543 307 c 2
 543 231 l 1xf9
 193 231 l 1
 193 207 l 2
 193 142 233 90 303 90 c 0
 363 90 402 123 402 191 c 1xf880
296 421 m 0xf9
 236 421 198 373 193 311 c 1
 395 311 l 1
 395 374 369 421 296 421 c 0xf9
EndSplineSet
Validated: 1
EndChar

StartChar: edotaccent
Encoding: 127 279 127
Width: 584
GlyphClass: 2
Flags: MW
HStem: -10 100<266 293 293 309> 231 80<191 393 191 541 191 393> 421 100<293 309 309 330.5> 604 132<273.5 309.5>
VStem: 43 148<174.5 270 174.5 311 174.5 349.5> 226 132<652 688 651 688.5> 393 148<231 342.5> 400 140<157 191>
AnchorPoint: "Bottom" 292 0 basechar 0
LayerCount: 2
Fore
SplineSet
358 670 m 0xfe
 358 632 328 604 291 604 c 0
 256 604 226 634 226 670 c 0
 226 707 255 736 292 736 c 0
 329 736 358 706 358 670 c 0xfe
400 191 m 1xfd
 540 191 l 1xfd
 540 50 427 -10 309 -10 c 2
 293 -10 l 2
 151 -10 43 82 43 241 c 2
 43 270 l 2
 43 429 153 521 293 521 c 2
 309 521 l 2
 431 521 541 444 541 307 c 2
 541 231 l 1xfe
 191 231 l 1
 191 207 l 2
 191 142 231 90 301 90 c 0
 361 90 400 123 400 191 c 1xfd
294 421 m 0xfe
 234 421 196 373 191 311 c 1
 393 311 l 1
 393 374 367 421 294 421 c 0xfe
EndSplineSet
Validated: 1
EndChar

StartChar: egrave
Encoding: 128 232 128
Width: 588
GlyphClass: 2
Flags: MW
HStem: -10 100<268 295 295 311> 231 80<193 395 193 543 193 395> 421 100<295 311 311 332.5> 575 145<250 259 131 352 250 250>
VStem: 45 148<174.5 270 174.5 311 174.5 349.5> 395 148<231 342.5> 402 140<157 191>
LayerCount: 2
Fore
SplineSet
130 717 m 1xfc
 131 720 l 1
 259 720 l 1
 352 575 l 1
 250 575 l 1
 130 717 l 1xfc
402 191 m 1xfa
 542 191 l 1xfa
 542 50 429 -10 311 -10 c 2
 295 -10 l 2
 153 -10 45 82 45 241 c 2
 45 270 l 2
 45 429 155 521 295 521 c 2
 311 521 l 2
 433 521 543 444 543 307 c 2
 543 231 l 1xfc
 193 231 l 1
 193 207 l 2
 193 142 233 90 303 90 c 0
 363 90 402 123 402 191 c 1xfa
296 421 m 0xfc
 236 421 198 373 193 311 c 1
 395 311 l 1
 395 374 369 421 296 421 c 0xfc
EndSplineSet
Validated: 1
EndChar

StartChar: emacron
Encoding: 129 275 129
Width: 584
GlyphClass: 2
Flags: MW
HStem: -10 100<266 293 293 309> 231 80<191 393 191 541 191 393> 421 100<293 309 309 330.5> 662 74<133 451 133 451>
VStem: 43 148<174.5 270 174.5 311 174.5 349.5> 393 148<231 342.5> 400 140<157 191>
AnchorPoint: "Bottom" 292 0 basechar 0
LayerCount: 2
Fore
SplineSet
133 736 m 1xfc
 451 736 l 1
 451 662 l 1
 133 662 l 1
 133 736 l 1xfc
400 191 m 1xfa
 540 191 l 1xfa
 540 50 427 -10 309 -10 c 2
 293 -10 l 2
 151 -10 43 82 43 241 c 2
 43 270 l 2
 43 429 153 521 293 521 c 2
 309 521 l 2
 431 521 541 444 541 307 c 2
 541 231 l 1xfc
 191 231 l 1
 191 207 l 2
 191 142 231 90 301 90 c 0
 361 90 400 123 400 191 c 1xfa
294 421 m 0xfc
 234 421 196 373 191 311 c 1
 393 311 l 1
 393 374 367 421 294 421 c 0xfc
EndSplineSet
Validated: 1
EndChar

StartChar: eogonek
Encoding: 130 281 130
Width: 584
GlyphClass: 2
Flags: MW
HStem: -143 50<382.5 393.5> -10 100<266 293 293 309 309 320> 231 80<191 393 191 393 191 541> 421 100<293 309 309 330.5>
VStem: 43 148<174.5 270 174.5 311 174.5 349.5> 280 69<-71 -58> 393 148<231 342.5> 400 140<157 191>
AnchorPoint: "Bottom" 292 0 basechar 0
LayerCount: 2
Fore
SplineSet
191 231 m 1xfe
 191 207 l 2
 191 142 231 90 301 90 c 0
 361 90 400 123 400 191 c 1xfe
 540 191 l 1xfd
 540 83 473 22 389 0 c 1
 396 0 l 1
 376 -11 349 -32 349 -57 c 0
 349 -85 372 -93 393 -93 c 0
 417 -93 439 -87 460 -79 c 1
 473 -119 l 1
 444 -135 410 -143 377 -143 c 0
 331 -143 280 -126 280 -71 c 0
 280 -45 300 -25 320 -10 c 1
 309 -10 l 1
 293 -10 l 2
 151 -10 43 82 43 241 c 2
 43 270 l 2
 43 429 153 521 293 521 c 2
 309 521 l 2
 431 521 541 444 541 307 c 2
 541 231 l 1
 191 231 l 1xfe
294 421 m 0
 234 421 196 373 191 311 c 1
 393 311 l 1
 393 374 367 421 294 421 c 0
EndSplineSet
Validated: 1
EndChar

StartChar: f
Encoding: 131 102 131
Width: 363
GlyphClass: 2
Flags: MW
HStem: 0 21G<85 231 85 85> 411 100<25 85 25 85 231 350> 629 99<190.5 295.5>
VStem: 85 146<0 411 0 411 511 569>
LayerCount: 2
Fore
SplineSet
350 707 m 1
 350 618 l 1
 334 623 303 629 288 629 c 0
 264 629 231 623 231 569 c 2
 231 511 l 1
 350 511 l 1
 350 411 l 1
 231 411 l 1
 231 0 l 1
 85 0 l 1
 85 411 l 1
 25 411 l 1
 25 511 l 1
 85 511 l 1
 85 578 l 2
 85 684 142 728 239 728 c 0
 270 728 322 720 350 707 c 1
EndSplineSet
Validated: 1
EndChar

StartChar: g
Encoding: 132 103 132
Width: 572
GlyphClass: 2
Flags: MW
HStem: -188 90<117 363 195 363 363 367> 1 115<180 417 239 369> 200 86<217.5 307.5 258.5 307.5 258.5 308> 434 87<273 289 289 304 273 307.5>
VStem: 12 129<-61.5 -37.5> 41 135<145.5 158> 55 140<335.5 384.5> 372 136<335.5 381.5 316 384.5> 427 135<-60 -33> 448 114<603 603>
LayerCount: 2
Fore
SplineSet
239 116 m 2xf5
 417 116 l 2
 513 116 562 55 562 -27 c 0
 562 -121 475 -188 367 -188 c 2
 156 -188 l 2
 78 -188 12 -144 12 -62 c 0xf880
 12 -13 46 29 88 48 c 1
 58 68 41 98 41 133 c 0xf5
 41 183 77 222 127 237 c 1
 82 265 55 310 55 360 c 0
 55 449 124 521 273 521 c 2
 289 521 l 2
 319 521 348 517 373 509 c 1
 435 546 446 585 448 603 c 1
 562 603 l 1xf240
 562 529 522 487 456 471 c 1
 455 468 l 1
 488 440 508 403 508 360 c 0
 508 272 430 200 308 200 c 2
 239 200 l 2
 196 200 176 177 176 158 c 0
 176 133 195 116 239 116 c 2xf5
195 360 m 0xf3
 195 311 234 286 283 286 c 0
 332 286 372 311 372 360 c 0
 372 409 332 434 283 434 c 0
 234 434 195 409 195 360 c 0xf3
195 -98 m 2xf880
 363 -98 l 2
 398 -98 427 -74 427 -46 c 0
 427 -20 405 1 369 1 c 2
 195 1 l 2
 165 1 141 -21 141 -48 c 0
 141 -75 165 -98 195 -98 c 2xf880
EndSplineSet
Validated: 1
EndChar

StartChar: gbreve
Encoding: 133 287 133
Width: 572
GlyphClass: 2
Flags: MW
HStem: -188 90<117 363 195 363 363 367> 1 115<180 417 239 369> 200 86<217.5 307.5 258.5 307.5 258.5 308> 434 87<273 289 289 304 273 307.5> 613 74<256 313 256 338.5>
VStem: 12 129<-61.5 -37.5> 41 135<145.5 158> 55 140<335.5 384.5> 372 136<335.5 381.5 316 384.5> 427 135<-60 -33> 448 114<603 603>
LayerCount: 2
Fore
SplineSet
285 613 m 0xf980
 179 613 93 680 93 737 c 1
 174 737 l 1
 180 713 227 687 285 687 c 0
 341 687 391 715 396 737 c 1
 478 737 l 1
 478 680 392 613 285 613 c 0xf980
239 116 m 2xfa80
 417 116 l 2
 513 116 562 55 562 -27 c 0
 562 -121 475 -188 367 -188 c 2
 156 -188 l 2
 78 -188 12 -144 12 -62 c 0xfc40
 12 -13 46 29 88 48 c 1
 58 68 41 98 41 133 c 0xfa80
 41 183 77 222 127 237 c 1
 82 265 55 310 55 360 c 0
 55 449 124 521 273 521 c 2
 289 521 l 2
 319 521 348 517 373 509 c 1
 435 546 446 585 448 603 c 1
 562 603 l 1xf920
 562 529 522 487 456 471 c 1
 455 468 l 1
 488 440 508 403 508 360 c 0
 508 272 430 200 308 200 c 2
 239 200 l 2
 196 200 176 177 176 158 c 0
 176 133 195 116 239 116 c 2xfa80
195 360 m 0xf980
 195 311 234 286 283 286 c 0
 332 286 372 311 372 360 c 0
 372 409 332 434 283 434 c 0
 234 434 195 409 195 360 c 0xf980
195 -98 m 2xfc40
 363 -98 l 2
 398 -98 427 -74 427 -46 c 0
 427 -20 405 1 369 1 c 2
 195 1 l 2
 165 1 141 -21 141 -48 c 0
 141 -75 165 -98 195 -98 c 2xfc40
EndSplineSet
Validated: 1
EndChar

StartChar: gcommaaccent
Encoding: 134 291 134
Width: 572
GlyphClass: 2
Flags: MW
HStem: -188 90<117 363 195 363 363 367> 1 115<180 417 239 369> 200 86<217.5 307.5 258.5 307.5 258.5 308> 434 87<273 289 289 304 273 307.5> 571 137<290 353 290 353 207 353>
VStem: 12 129<-61.5 -37.5> 41 135<145.5 158> 55 140<335.5 384.5> 207 146<571 684 684 684> 372 136<335.5 381.5 316 384.5> 427 135<-60 -33> 448 114<603 603>
LayerCount: 2
Fore
SplineSet
290 708 m 1xfca0
 353 708 l 1
 353 571 l 1
 207 571 l 1
 207 684 l 1
 232 791 l 1
 306 791 l 1
 290 708 l 1xfca0
239 116 m 2xfaa0
 417 116 l 2
 513 116 562 55 562 -27 c 0
 562 -121 475 -188 367 -188 c 2
 156 -188 l 2
 78 -188 12 -144 12 -62 c 0xfca0
 12 -13 46 29 88 48 c 1
 58 68 41 98 41 133 c 0xfaa0
 41 183 77 222 127 237 c 1
 82 265 55 310 55 360 c 0
 55 449 124 521 273 521 c 2
 289 521 l 2
 319 521 348 517 373 509 c 1
 435 546 446 585 448 603 c 1
 562 603 l 1xf990
 562 529 522 487 456 471 c 1
 455 468 l 1
 488 440 508 403 508 360 c 0xfcc0
 508 272 430 200 308 200 c 2
 239 200 l 2
 196 200 176 177 176 158 c 0
 176 133 195 116 239 116 c 2xfaa0
195 360 m 0xf9c0
 195 311 234 286 283 286 c 0
 332 286 372 311 372 360 c 0
 372 409 332 434 283 434 c 0
 234 434 195 409 195 360 c 0xf9c0
195 -98 m 2xfca0
 363 -98 l 2
 398 -98 427 -74 427 -46 c 0
 427 -20 405 1 369 1 c 2
 195 1 l 2
 165 1 141 -21 141 -48 c 0
 141 -75 165 -98 195 -98 c 2xfca0
EndSplineSet
Validated: 1
EndChar

StartChar: h
Encoding: 135 104 135
Width: 598
GlyphClass: 2
Flags: MW
HStem: 0 21G<66 212 66 66 387 533 387 387> 415 106<322 330.5>
VStem: 66 146<0 314 461 720> 387 146<0 325 325 351>
LayerCount: 2
Fore
SplineSet
212 720 m 1
 212 461 l 1
 244 494 290 521 354 521 c 0
 452 521 533 468 533 357 c 2
 533 0 l 1
 387 0 l 1
 387 325 l 2
 387 377 354 415 307 415 c 0
 256 415 212 371 212 314 c 2
 212 0 l 1
 66 0 l 1
 66 720 l 1
 212 720 l 1
EndSplineSet
Validated: 1
EndChar

StartChar: i
Encoding: 136 105 136
Width: 278
GlyphClass: 2
Flags: MW
HStem: 0 21G<66 212 66 66> 491 20G<66 212 212 212> 605 115<65 213 65 213>
VStem: 66 146<0 511 0 511>
LayerCount: 2
Fore
SplineSet
213 720 m 1
 213 605 l 1
 65 605 l 1
 65 720 l 1
 213 720 l 1
66 511 m 1
 212 511 l 1
 212 0 l 1
 66 0 l 1
 66 511 l 1
EndSplineSet
Validated: 1
EndChar

StartChar: dotlessi
Encoding: 137 305 137
Width: 278
GlyphClass: 2
Flags: MW
HStem: 0 21G<66 212 66 66> 491 20G<66 212 212 212>
VStem: 66 146<0 511 0 511>
LayerCount: 2
Fore
SplineSet
66 511 m 1
 212 511 l 1
 212 0 l 1
 66 0 l 1
 66 511 l 1
EndSplineSet
Validated: 1
EndChar

StartChar: iacute
Encoding: 138 237 138
Width: 278
GlyphClass: 2
Flags: MW
HStem: 0 21G<66 212 66 66> 491 20G<66 212 212 212> 575 145<162 171 70 291>
VStem: 66 146<0 511 0 511>
LayerCount: 2
Fore
SplineSet
162 720 m 1
 291 720 l 1
 292 717 l 1
 171 575 l 1
 70 575 l 1
 162 720 l 1
66 511 m 1
 212 511 l 1
 212 0 l 1
 66 0 l 1
 66 511 l 1
EndSplineSet
Validated: 1
EndChar

StartChar: icircumflex
Encoding: 139 238 139
Width: 278
GlyphClass: 2
Flags: MW
HStem: 0 21G<66 212 66 66> 491 20G<66 212 212 212> 575 145<-49 192 -49 192 89 329 89 224>
VStem: 66 146<0 511 0 511>
LayerCount: 2
Fore
SplineSet
89 720 m 1
 192 720 l 1
 237 672 283 623 329 575 c 1
 224 575 l 1
 140 658 l 1
 55 575 l 1
 -49 575 l 1
 89 720 l 1
66 511 m 1
 212 511 l 1
 212 0 l 1
 66 0 l 1
 66 511 l 1
EndSplineSet
Validated: 1
EndChar

StartChar: idieresis
Encoding: 140 239 140
Width: 278
GlyphClass: 2
Flags: MW
HStem: 0 21G<66 212 66 66> 491 20G<66 212 212 212> 598 122<-23 98 -23 98 -23 181 181 302>
VStem: -23 121<598 720 598 720> 66 146<0 511 0 511> 181 121<598 720 598 720>
LayerCount: 2
Fore
SplineSet
98 720 m 1xf4
 98 598 l 1
 -23 598 l 1
 -23 720 l 1
 98 720 l 1xf4
302 720 m 1
 302 598 l 1
 181 598 l 1
 181 720 l 1
 302 720 l 1
66 511 m 1xe8
 212 511 l 1
 212 0 l 1
 66 0 l 1
 66 511 l 1xe8
EndSplineSet
Validated: 1
EndChar

StartChar: igrave
Encoding: 141 236 141
Width: 278
GlyphClass: 2
Flags: MW
HStem: 0 21G<66 212 66 66> 491 20G<66 212 212 212> 575 145<104 113 -15 206 104 104>
VStem: 66 146<0 511 0 511>
LayerCount: 2
Fore
SplineSet
-16 717 m 1
 -15 720 l 1
 113 720 l 1
 206 575 l 1
 104 575 l 1
 -16 717 l 1
66 511 m 1
 212 511 l 1
 212 0 l 1
 66 0 l 1
 66 511 l 1
EndSplineSet
Validated: 1
EndChar

StartChar: imacron
Encoding: 142 299 142
Width: 278
GlyphClass: 2
Flags: MW
HStem: 0 21G<66 212 66 66> 491 20G<66 212 212 212> 662 74<-20 298 -20 298>
VStem: 66 146<0 511 0 511>
LayerCount: 2
Fore
SplineSet
-20 736 m 1
 298 736 l 1
 298 662 l 1
 -20 662 l 1
 -20 736 l 1
66 511 m 1
 212 511 l 1
 212 0 l 1
 66 0 l 1
 66 511 l 1
EndSplineSet
Validated: 1
EndChar

StartChar: iogonek
Encoding: 143 303 143
Width: 278
GlyphClass: 2
Flags: MW
HStem: -143 50<186.5 197.5> 0 21G<66 138 66 66 200 200 200 212> 491 20G<66 212 212 212> 605 115<65 213 65 213>
VStem: 66 146<0 511 0 511>
LayerCount: 2
Fore
SplineSet
213 605 m 1
 65 605 l 1
 65 720 l 1
 213 720 l 1
 213 605 l 1
264 -79 m 1
 277 -119 l 1
 248 -135 214 -143 181 -143 c 0
 135 -143 84 -126 84 -71 c 0
 84 -39 114 -16 138 0 c 1
 66 0 l 1
 66 511 l 1
 212 511 l 1
 212 0 l 1
 200 0 l 1
 180 -11 153 -32 153 -57 c 0
 153 -85 176 -93 197 -93 c 0
 221 -93 243 -87 264 -79 c 1
EndSplineSet
Validated: 1
EndChar

StartChar: j
Encoding: 144 106 144
Width: 280
GlyphClass: 2
Flags: MW
HStem: -186 100<3.5 109.5> 490 20G<67 213 213 213> 605 115<66 214 66 214>
VStem: 67 146<-18 510>
LayerCount: 2
Fore
SplineSet
214 720 m 1
 214 605 l 1
 66 605 l 1
 66 720 l 1
 214 720 l 1
213 510 m 1
 213 -20 l 2
 213 -133 160 -186 59 -186 c 0
 28 -186 -23 -179 -50 -166 c 1
 -50 -73 l 1
 -35 -80 -4 -86 11 -86 c 0
 39 -86 67 -77 67 -18 c 2
 67 510 l 1
 213 510 l 1
EndSplineSet
Validated: 1
EndChar

StartChar: k
Encoding: 145 107 145
Width: 562
GlyphClass: 2
Flags: MW
HStem: 0 21G<66 212 66 66 390 390 390 564> 491 20G<391 556 556 556>
VStem: 66 146<0 112 273 720>
AnchorPoint: "Bottom" 281 0 basechar 0
LayerCount: 2
Fore
SplineSet
269 167 m 1
 212 112 l 1
 212 0 l 1
 66 0 l 1
 66 720 l 1
 212 720 l 1
 212 273 l 1
 391 511 l 1
 556 511 l 1
 368 271 l 1
 564 0 l 1
 390 0 l 1
 269 167 l 1
EndSplineSet
Validated: 1
EndChar

StartChar: kcommaaccent
Encoding: 146 311 146
Width: 562
GlyphClass: 2
Flags: MW
HStem: -167 137<214 277 214 360> 0 21G<66 212 66 66 390 390 390 564> 491 20G<391 556 556 556>
VStem: 66 146<0 112 273 720> 214 146<-143 -30 -143 -30 -143 -30>
AnchorPoint: "Bottom" 281 0 basechar 0
LayerCount: 2
Fore
SplineSet
269 167 m 1
 212 112 l 1
 212 0 l 1
 66 0 l 1
 66 720 l 1
 212 720 l 1
 212 273 l 1
 391 511 l 1
 556 511 l 1
 368 271 l 1
 564 0 l 1
 390 0 l 1
 269 167 l 1
277 -167 m 1xe8
 214 -167 l 1
 214 -30 l 1
 360 -30 l 1
 360 -143 l 1
 335 -250 l 1
 261 -250 l 1
 277 -167 l 1xe8
EndSplineSet
Validated: 1
EndChar

StartChar: l
Encoding: 147 108 147
Width: 279
GlyphClass: 2
Flags: MW
HStem: 0 21G<66 212 66 66>
VStem: 66 146<0 720 0 720>
AnchorPoint: "Bottom" 140 0 basechar 0
LayerCount: 2
Fore
SplineSet
66 720 m 1
 212 720 l 1
 212 0 l 1
 66 0 l 1
 66 720 l 1
EndSplineSet
Validated: 1
EndChar

StartChar: lacute
Encoding: 148 314 148
Width: 279
GlyphClass: 2
Flags: MW
HStem: 0 21G<66 212 66 66> 750 145<151 160 59 280>
VStem: 66 146<0 720 0 720>
AnchorPoint: "Bottom" 140 0 basechar 0
LayerCount: 2
Fore
SplineSet
151 895 m 1
 280 895 l 1
 281 892 l 1
 160 750 l 1
 59 750 l 1
 151 895 l 1
66 720 m 1
 212 720 l 1
 212 0 l 1
 66 0 l 1
 66 720 l 1
EndSplineSet
Validated: 1
EndChar

StartChar: lcaron
Encoding: 149 318 149
Width: 279
GlyphClass: 2
Flags: MW
HStem: 0 21G<66 212 66 66> 539 147<258 321 258 404> 539 181<66 321 66 258>
VStem: 66 146<0 720 0 720> 258 146<563 686 563 686 563 686>
AnchorPoint: "Bottom" 140 0 basechar 0
LayerCount: 2
Fore
SplineSet
66 720 m 1xb8
 212 720 l 1
 212 0 l 1
 66 0 l 1
 66 720 l 1xb8
362 395 m 1
 289 395 l 1
 299 443 310 491 321 539 c 1
 258 539 l 1
 258 686 l 1
 404 686 l 1xd8
 404 563 l 1
 362 395 l 1
EndSplineSet
Validated: 1
EndChar

StartChar: lcommaaccent
Encoding: 150 316 150
Width: 279
GlyphClass: 2
Flags: MW
HStem: -167 137<73 136 73 219> 0 21G<66 212 66 66>
VStem: 66 146<0 720 0 720>
AnchorPoint: "Bottom" 140 0 basechar 0
LayerCount: 2
Fore
SplineSet
66 720 m 1
 212 720 l 1
 212 0 l 1
 66 0 l 1
 66 720 l 1
136 -167 m 1xe0
 73 -167 l 1
 73 -30 l 1
 219 -30 l 1
 219 -143 l 1
 194 -250 l 1
 120 -250 l 1
 136 -167 l 1xe0
EndSplineSet
Validated: 1
EndChar

StartChar: lslash
Encoding: 151 322 151
Width: 279
GlyphClass: 2
Flags: MW
HStem: 0 21G<66 212 66 66>
VStem: 66 146<0 303 303 303 464 720>
LayerCount: 2
Fore
SplineSet
-4 268 m 1
 -4 355 l 1
 19 367 42 378 66 390 c 1
 66 720 l 1
 212 720 l 1
 212 464 l 1
 283 500 l 1
 283 412 l 1
 212 377 l 1
 212 0 l 1
 66 0 l 1
 66 303 l 1
 42 291 19 280 -4 268 c 1
EndSplineSet
Validated: 1
EndChar

StartChar: m
Encoding: 152 109 152
Width: 870
GlyphClass: 2
Flags: MW
HStem: 0 21G<66 212 66 66 363 509 363 363 660 806 660 660> 415 106<312 315 609 613> 491 20G<66 176 176 176>
VStem: 66 146<0 317 0 511> 363 146<0 317 0 328 0 356> 660 146<0 328 328 356>
LayerCount: 2
Fore
SplineSet
342 521 m 0xdc
 406 521 462 493 490 439 c 1
 527 497 579 521 639 521 c 0
 731 521 806 464 806 357 c 2
 806 0 l 1
 660 0 l 1
 660 328 l 2
 660 384 634 415 592 415 c 0
 546 415 509 374 509 317 c 2
 509 0 l 1
 363 0 l 1
 363 328 l 2
 363 384 336 415 294 415 c 0
 248 415 212 374 212 317 c 2xdc
 212 0 l 1
 66 0 l 1
 66 511 l 1
 176 511 l 1xbc
 182 486 187 461 192 436 c 1
 229 494 282 521 342 521 c 0xdc
EndSplineSet
Validated: 1
EndChar

StartChar: n
Encoding: 153 110 153
Width: 597
GlyphClass: 2
Flags: MW
HStem: 0 21G<66 212 66 66 387 533 387 387> 415 106<314.5 330.5> 491 20G<66 175 175 175>
VStem: 66 146<0 314 0 511> 387 146<0 325 325 351>
AnchorPoint: "Bottom" 299 0 basechar 0
LayerCount: 2
Fore
SplineSet
175 511 m 1xb8
 191 436 l 1
 223 479 275 521 354 521 c 0
 452 521 533 468 533 357 c 2
 533 0 l 1
 387 0 l 1
 387 325 l 2
 387 377 354 415 307 415 c 0xd8
 256 415 212 371 212 314 c 2
 212 0 l 1
 66 0 l 1
 66 511 l 1
 175 511 l 1xb8
EndSplineSet
Validated: 1
EndChar

StartChar: nacute
Encoding: 154 324 154
Width: 597
GlyphClass: 2
Flags: MW
HStem: 0 21G<66 212 66 66 387 533 387 387> 415 106<314.5 330.5> 491 20G<66 175 175 175> 575 145<310 319 218 439>
VStem: 66 146<0 314 0 511> 387 146<0 325 325 351>
AnchorPoint: "Bottom" 299 0 basechar 0
LayerCount: 2
Fore
SplineSet
310 720 m 1xbc
 439 720 l 1
 440 717 l 1
 319 575 l 1
 218 575 l 1
 310 720 l 1xbc
175 511 m 1
 191 436 l 1
 223 479 275 521 354 521 c 0
 452 521 533 468 533 357 c 2
 533 0 l 1
 387 0 l 1
 387 325 l 2
 387 377 354 415 307 415 c 0xdc
 256 415 212 371 212 314 c 2
 212 0 l 1
 66 0 l 1
 66 511 l 1
 175 511 l 1
EndSplineSet
Validated: 1
EndChar

StartChar: ncaron
Encoding: 155 328 155
Width: 597
GlyphClass: 2
Flags: MW
HStem: 0 21G<66 212 66 66 387 533 387 387> 415 106<314.5 330.5> 491 20G<66 175 175 175> 575 145<110 351 110 248>
VStem: 66 146<0 314 0 511> 387 146<0 325 325 351>
AnchorPoint: "Bottom" 299 0 basechar 0
LayerCount: 2
Fore
SplineSet
215 720 m 1xbc
 300 637 l 1
 384 720 l 1
 488 720 l 1
 442 672 396 623 351 575 c 1
 248 575 l 1
 110 720 l 1
 215 720 l 1xbc
175 511 m 1
 191 436 l 1
 223 479 275 521 354 521 c 0
 452 521 533 468 533 357 c 2
 533 0 l 1
 387 0 l 1
 387 325 l 2
 387 377 354 415 307 415 c 0xdc
 256 415 212 371 212 314 c 2
 212 0 l 1
 66 0 l 1
 66 511 l 1
 175 511 l 1
EndSplineSet
Validated: 1
EndChar

StartChar: ncommaaccent
Encoding: 156 326 156
Width: 597
GlyphClass: 2
Flags: MW
HStem: -167 137<232 295 232 378> 0 21G<66 212 66 66 387 533 387 387> 415 106<314.5 330.5> 491 20G<66 175 175 175>
VStem: 66 146<0 314 0 511> 232 146<-143 -30 -143 -30 -143 -30> 387 146<0 325 325 351>
AnchorPoint: "Bottom" 299 0 basechar 0
LayerCount: 2
Fore
SplineSet
175 511 m 1x5a
 191 436 l 1
 223 479 275 521 354 521 c 0
 452 521 533 468 533 357 c 2
 533 0 l 1
 387 0 l 1
 387 325 l 2
 387 377 354 415 307 415 c 0x6a
 256 415 212 371 212 314 c 2
 212 0 l 1
 66 0 l 1
 66 511 l 1
 175 511 l 1x5a
295 -167 m 1xde
 232 -167 l 1
 232 -30 l 1
 378 -30 l 1
 378 -143 l 1
 353 -250 l 1
 279 -250 l 1
 295 -167 l 1xde
EndSplineSet
Validated: 1
EndChar

StartChar: ntilde
Encoding: 157 241 157
Width: 598
GlyphClass: 2
Flags: MW
HStem: 0 21G<66 212 66 66 387 533 387 387> 415 106<314.5 330.5> 491 20G<66 175 175 175> 596 86<370 411 370 428> 633 87<204 245>
VStem: 66 146<0 314 0 511> 387 146<0 325 325 351>
LayerCount: 2
Fore
SplineSet
450 720 m 1xb6
 515 720 l 1xb6
 515 660 467 596 389 596 c 0
 325 596 272 633 218 633 c 0xae
 190 633 173 619 166 596 c 1
 100 596 l 1
 100 655 149 720 227 720 c 0
 291 720 343 682 397 682 c 0
 425 682 443 697 450 720 c 1xb6
175 511 m 1
 191 436 l 1
 223 479 275 521 354 521 c 0
 452 521 533 468 533 357 c 2
 533 0 l 1
 387 0 l 1
 387 325 l 2
 387 377 354 415 307 415 c 0xd6
 256 415 212 371 212 314 c 2
 212 0 l 1
 66 0 l 1
 66 511 l 1
 175 511 l 1
EndSplineSet
Validated: 1
EndChar

StartChar: o
Encoding: 158 111 158
Width: 602
GlyphClass: 2
Flags: MW
HStem: -10 100<270 293 293 309> 421 100<293 309 309 332>
VStem: 43 148<241 270 270 296 173 349.5> 411 148<215 241 241 270 161.5 296 161.5 338>
LayerCount: 2
Fore
SplineSet
559 270 m 2
 559 241 l 2
 559 82 450 -10 309 -10 c 2
 293 -10 l 2
 152 -10 43 82 43 241 c 2
 43 270 l 2
 43 429 152 521 293 521 c 2
 309 521 l 2
 450 521 559 429 559 270 c 2
411 215 m 2
 411 296 l 2
 411 380 363 421 301 421 c 0
 239 421 191 380 191 296 c 2
 191 215 l 2
 191 131 239 90 301 90 c 0
 363 90 411 131 411 215 c 2
EndSplineSet
Validated: 1
Substitution2: "Single Substitution lookup 5 subtable" ordmasculine
Substitution2: "'aalt' Access All Alternates lookup 0 subtable" ordmasculine
EndChar

StartChar: oacute
Encoding: 159 243 159
Width: 606
GlyphClass: 2
Flags: MW
HStem: -10 100<272 295 295 311> 421 100<295 311 311 334> 575 145<346 355 254 475>
VStem: 45 148<241 270 270 296 173 349.5> 413 148<215 241 241 270 161.5 296 161.5 338>
LayerCount: 2
Fore
SplineSet
346 720 m 1
 475 720 l 1
 476 717 l 1
 355 575 l 1
 254 575 l 1
 346 720 l 1
561 270 m 2
 561 241 l 2
 561 82 452 -10 311 -10 c 2
 295 -10 l 2
 154 -10 45 82 45 241 c 2
 45 270 l 2
 45 429 154 521 295 521 c 2
 311 521 l 2
 452 521 561 429 561 270 c 2
413 215 m 2
 413 296 l 2
 413 380 365 421 303 421 c 0
 241 421 193 380 193 296 c 2
 193 215 l 2
 193 131 241 90 303 90 c 0
 365 90 413 131 413 215 c 2
EndSplineSet
Validated: 1
EndChar

StartChar: ocircumflex
Encoding: 160 244 160
Width: 606
GlyphClass: 2
Flags: MW
HStem: -10 100<272 295 295 311> 421 100<295 311 311 334> 575 145<112 353 112 353 250 490 250 385>
VStem: 45 148<241 270 270 296 173 349.5> 413 148<215 241 241 270 161.5 296 161.5 338>
LayerCount: 2
Fore
SplineSet
250 720 m 1
 353 720 l 1
 398 672 444 623 490 575 c 1
 385 575 l 1
 301 658 l 1
 216 575 l 1
 112 575 l 1
 250 720 l 1
561 270 m 2
 561 241 l 2
 561 82 452 -10 311 -10 c 2
 295 -10 l 2
 154 -10 45 82 45 241 c 2
 45 270 l 2
 45 429 154 521 295 521 c 2
 311 521 l 2
 452 521 561 429 561 270 c 2
413 215 m 2
 413 296 l 2
 413 380 365 421 303 421 c 0
 241 421 193 380 193 296 c 2
 193 215 l 2
 193 131 241 90 303 90 c 0
 365 90 413 131 413 215 c 2
EndSplineSet
Validated: 1
EndChar

StartChar: odieresis
Encoding: 161 246 161
Width: 606
GlyphClass: 2
Flags: MW
HStem: -10 100<272 295 295 311> 421 100<295 311 311 334> 598 122<139 260 139 260 139 343 343 464>
VStem: 45 148<241 270 270 296 173 349.5> 139 121<598 720 598 720> 343 121<598 720 598 720> 413 148<215 241 241 270 161.5 296 161.5 338>
LayerCount: 2
Fore
SplineSet
260 720 m 1xec
 260 598 l 1
 139 598 l 1
 139 720 l 1
 260 720 l 1xec
464 720 m 1
 464 598 l 1
 343 598 l 1
 343 720 l 1
 464 720 l 1
561 270 m 2xf2
 561 241 l 2
 561 82 452 -10 311 -10 c 2
 295 -10 l 2
 154 -10 45 82 45 241 c 2
 45 270 l 2
 45 429 154 521 295 521 c 2
 311 521 l 2
 452 521 561 429 561 270 c 2xf2
413 215 m 2
 413 296 l 2
 413 380 365 421 303 421 c 0
 241 421 193 380 193 296 c 2
 193 215 l 2
 193 131 241 90 303 90 c 0
 365 90 413 131 413 215 c 2
EndSplineSet
Validated: 1
EndChar

StartChar: ograve
Encoding: 162 242 162
Width: 606
GlyphClass: 2
Flags: MW
HStem: -10 100<272 295 295 311> 421 100<295 311 311 334> 575 145<251 260 132 353 251 251>
VStem: 45 148<241 270 270 296 173 349.5> 413 148<215 241 241 270 161.5 296 161.5 338>
LayerCount: 2
Fore
SplineSet
131 717 m 1
 132 720 l 1
 260 720 l 1
 353 575 l 1
 251 575 l 1
 131 717 l 1
561 270 m 2
 561 241 l 2
 561 82 452 -10 311 -10 c 2
 295 -10 l 2
 154 -10 45 82 45 241 c 2
 45 270 l 2
 45 429 154 521 295 521 c 2
 311 521 l 2
 452 521 561 429 561 270 c 2
413 215 m 2
 413 296 l 2
 413 380 365 421 303 421 c 0
 241 421 193 380 193 296 c 2
 193 215 l 2
 193 131 241 90 303 90 c 0
 365 90 413 131 413 215 c 2
EndSplineSet
Validated: 1
EndChar

StartChar: ohungarumlaut
Encoding: 163 337 163
Width: 602
GlyphClass: 2
Flags: MW
HStem: -10 100<270 293 293 309> 421 100<293 309 309 332> 575 145<217 226 124 345 315 315 315 345 408 417>
VStem: 43 148<241 270 270 296 173 349.5> 411 148<215 241 241 270 161.5 296 161.5 338>
LayerCount: 2
Fore
SplineSet
217 720 m 1
 345 720 l 1
 347 717 l 1
 226 575 l 1
 124 575 l 1
 217 720 l 1
408 720 m 1
 536 720 l 1
 538 717 l 1
 417 575 l 1
 315 575 l 1
 408 720 l 1
559 270 m 2
 559 241 l 2
 559 82 450 -10 309 -10 c 2
 293 -10 l 2
 152 -10 43 82 43 241 c 2
 43 270 l 2
 43 429 152 521 293 521 c 2
 309 521 l 2
 450 521 559 429 559 270 c 2
411 215 m 2
 411 296 l 2
 411 380 363 421 301 421 c 0
 239 421 191 380 191 296 c 2
 191 215 l 2
 191 131 239 90 301 90 c 0
 363 90 411 131 411 215 c 2
EndSplineSet
Validated: 1
EndChar

StartChar: omacron
Encoding: 164 333 164
Width: 602
GlyphClass: 2
Flags: MW
HStem: -10 100<270 293 293 309> 421 100<293 309 309 332> 662 74<142 460 142 460>
VStem: 43 148<241 270 270 296 173 349.5> 411 148<215 241 241 270 161.5 296 161.5 338>
LayerCount: 2
Fore
SplineSet
142 736 m 1
 460 736 l 1
 460 662 l 1
 142 662 l 1
 142 736 l 1
559 270 m 2
 559 241 l 2
 559 82 450 -10 309 -10 c 2
 293 -10 l 2
 152 -10 43 82 43 241 c 2
 43 270 l 2
 43 429 152 521 293 521 c 2
 309 521 l 2
 450 521 559 429 559 270 c 2
411 215 m 2
 411 296 l 2
 411 380 363 421 301 421 c 0
 239 421 191 380 191 296 c 2
 191 215 l 2
 191 131 239 90 301 90 c 0
 363 90 411 131 411 215 c 2
EndSplineSet
Validated: 1
EndChar

StartChar: oslash
Encoding: 165 248 165
Width: 606
GlyphClass: 2
Flags: MW
HStem: -10 100<292 295 295 311> 421 100<295 311 311 313.5>
VStem: 45 148<241 270 270 296 203.5 349.5> 413 148<215 241 241 270 161.5 296 161.5 307.5>
LayerCount: 2
Fore
SplineSet
561 270 m 2
 561 241 l 2
 561 82 452 -10 311 -10 c 2
 295 -10 l 2
 255 -10 218 -3 186 11 c 1
 144 -55 l 1
 69 -55 l 1
 79 -39 101 -3 131 43 c 1
 78 86 45 153 45 241 c 2
 45 270 l 2
 45 429 154 521 295 521 c 2
 311 521 l 2
 350 521 387 513 419 500 c 1
 437 528 453 553 462 568 c 1
 537 568 l 1
 474 468 l 1
 527 425 561 358 561 270 c 2
203 156 m 1
 254 237 311 329 360 406 c 1
 344 416 324 421 303 421 c 0
 241 421 193 380 193 296 c 2
 193 215 l 2
 193 192 196 172 203 156 c 1
413 215 m 2
 413 296 l 2
 413 319 409 339 403 355 c 1
 245 104 l 1
 261 94 281 90 303 90 c 0
 365 90 413 131 413 215 c 2
EndSplineSet
Validated: 1
EndChar

StartChar: otilde
Encoding: 166 245 166
Width: 606
GlyphClass: 2
Flags: MW
HStem: -10 100<272 295 295 311> 421 100<295 311 311 334> 596 86<365 406 365 423> 633 87<199 240>
VStem: 45 148<241 270 270 296 173 349.5> 413 148<215 241 241 270 161.5 296 161.5 338>
LayerCount: 2
Fore
SplineSet
445 720 m 1xec
 510 720 l 1xec
 510 660 462 596 384 596 c 0
 320 596 267 633 213 633 c 0xdc
 185 633 168 619 161 596 c 1
 95 596 l 1
 95 655 144 720 222 720 c 0
 286 720 338 682 392 682 c 0
 420 682 438 697 445 720 c 1xec
561 270 m 2
 561 241 l 2
 561 82 452 -10 311 -10 c 2
 295 -10 l 2
 154 -10 45 82 45 241 c 2
 45 270 l 2
 45 429 154 521 295 521 c 2
 311 521 l 2
 452 521 561 429 561 270 c 2
413 215 m 2
 413 296 l 2
 413 380 365 421 303 421 c 0
 241 421 193 380 193 296 c 2
 193 215 l 2
 193 131 241 90 303 90 c 0
 365 90 413 131 413 215 c 2
EndSplineSet
Validated: 1
EndChar

StartChar: oe
Encoding: 167 339 167
Width: 946
GlyphClass: 2
Flags: MW
HStem: -10 100<270 293 293 309 628 655 655 671> 231 80<553 755 553 903 553 755> 421 100<293 309 309 332 655 671 671 692.5>
VStem: 43 148<241 270 270 296 173 349.5> 411 142<215 231 174.5 296 174.5 311 174.5 338> 755 148<231 342.5> 762 140<157 191>
LayerCount: 2
Fore
SplineSet
293 521 m 2xfc
 309 521 l 2
 377 521 437 499 482 459 c 1
 526 499 587 521 655 521 c 2
 671 521 l 2
 793 521 903 444 903 307 c 2
 903 231 l 1xfc
 553 231 l 1
 553 207 l 2
 553 142 593 90 663 90 c 0
 723 90 762 123 762 191 c 1
 902 191 l 1xfa
 902 50 789 -10 671 -10 c 2
 655 -10 l 2
 586 -10 526 11 482 51 c 1
 437 11 377 -10 309 -10 c 2
 293 -10 l 2
 152 -10 43 82 43 241 c 2
 43 270 l 2
 43 429 152 521 293 521 c 2xfc
411 215 m 2
 411 296 l 2
 411 380 363 421 301 421 c 0
 239 421 191 380 191 296 c 2
 191 215 l 2
 191 131 239 90 301 90 c 0
 363 90 411 131 411 215 c 2
656 421 m 0
 596 421 558 373 553 311 c 1
 755 311 l 1
 755 374 729 421 656 421 c 0
EndSplineSet
Validated: 1
EndChar

StartChar: p
Encoding: 168 112 168
Width: 595
GlyphClass: 2
Flags: MW
HStem: -181 21G<66 212 66 66> -10 106<320 335 281 409.5> 421 100<306.5 335> 491 20G<66 181 181 181>
VStem: 66 146<-181 59 176.5 217 217 300> 404 148<217 247 247 258 161.5 300 161.5 340.5>
LayerCount: 2
Fore
SplineSet
181 511 m 1xdc
 196 447 l 1
 228 489 273 521 340 521 c 0xec
 457 521 552 438 552 258 c 2
 552 247 l 2
 552 76 464 -10 355 -10 c 0
 285 -10 237 26 212 59 c 1
 212 -181 l 1
 66 -181 l 1
 66 511 l 1
 181 511 l 1xdc
404 217 m 2
 404 300 l 2
 404 381 362 421 308 421 c 0
 254 421 212 381 212 300 c 2
 212 217 l 2
 212 136 254 96 308 96 c 0
 362 96 404 136 404 217 c 2
EndSplineSet
Validated: 1
EndChar

StartChar: thorn
Encoding: 169 254 169
Width: 597
GlyphClass: 2
Flags: MW
HStem: -181 21G<66 212 66 66> -10 106<320 335 281 409.5> 421 100<311.5 335>
VStem: 66 146<-181 59 176.5 217 217 300 466 720> 404 148<217 247 247 258 161.5 300 161.5 340.5>
LayerCount: 2
Fore
SplineSet
212 720 m 1
 212 466 l 1
 242 498 283 521 340 521 c 0
 457 521 552 438 552 258 c 2
 552 247 l 2
 552 76 464 -10 355 -10 c 0
 285 -10 237 26 212 59 c 1
 212 -181 l 1
 66 -181 l 1
 66 720 l 1
 212 720 l 1
404 217 m 2
 404 300 l 2
 404 381 362 421 308 421 c 0
 254 421 212 381 212 300 c 2
 212 217 l 2
 212 136 254 96 308 96 c 0
 362 96 404 136 404 217 c 2
EndSplineSet
Validated: 1
EndChar

StartChar: q
Encoding: 170 113 170
Width: 595
GlyphClass: 2
Flags: MW
HStem: -180 21G<382 382 382 528> -10 106<259 274> 421 100<259 291 195.5 313> 491 20G<475 528 528 528>
VStem: 42 148<247 258 258 300 176.5 348> 382 146<-180 59 59 59 217 300 300 340.5>
LayerCount: 2
Fore
SplineSet
382 -180 m 1xec
 382 59 l 1
 357 26 309 -10 239 -10 c 0
 130 -10 42 76 42 247 c 2
 42 258 l 2
 42 438 137 521 254 521 c 0
 328 521 386 490 424 433 c 1xec
 441 459 458 486 475 511 c 1
 528 511 l 1xdc
 528 -180 l 1
 382 -180 l 1xec
190 300 m 2
 190 217 l 2
 190 136 232 96 286 96 c 0
 340 96 382 136 382 217 c 2
 382 300 l 2
 382 381 340 421 286 421 c 0
 232 421 190 381 190 300 c 2
EndSplineSet
Validated: 1
EndChar

StartChar: r
Encoding: 171 114 171
Width: 489
GlyphClass: 2
Flags: MW
HStem: 0 21G<66 210 66 66> 412 109<287 309> 491 20G<66 174 174 174>
VStem: 66 144<0 316 0 511> 353 126<313 409.5 336 409.5>
AnchorPoint: "Bottom" 138 0 basechar 0
LayerCount: 2
Fore
SplineSet
353 313 m 1xd8
 353 336 l 2
 353 371 336 412 282 412 c 0
 232 412 210 367 210 316 c 2xd8
 210 0 l 1
 66 0 l 1
 66 511 l 1
 174 511 l 1xb8
 192 436 l 1
 196 447 239 521 335 521 c 0
 430 521 479 455 479 364 c 0
 479 348 475 313 475 313 c 1
 353 313 l 1xd8
EndSplineSet
Validated: 1
EndChar

StartChar: racute
Encoding: 172 341 172
Width: 489
GlyphClass: 2
Flags: MW
HStem: 0 21G<66 210 66 66> 412 109<287 309> 491 20G<66 174 174 174> 575 145<176 185 84 305>
VStem: 66 144<0 316 0 511> 353 126<313 409.5 336 409.5>
AnchorPoint: "Bottom" 138 0 basechar 0
LayerCount: 2
Fore
SplineSet
176 720 m 1xdc
 305 720 l 1
 306 717 l 1
 185 575 l 1
 84 575 l 1
 176 720 l 1xdc
353 313 m 1
 353 336 l 2
 353 371 336 412 282 412 c 0
 232 412 210 367 210 316 c 2xdc
 210 0 l 1
 66 0 l 1
 66 511 l 1
 174 511 l 1xbc
 192 436 l 1
 196 447 239 521 335 521 c 0
 430 521 479 455 479 364 c 0
 479 348 475 313 475 313 c 1
 353 313 l 1
EndSplineSet
Validated: 1
EndChar

StartChar: rcaron
Encoding: 173 345 173
Width: 489
GlyphClass: 2
Flags: MW
HStem: 0 21G<66 210 66 66> 412 109<287 309> 491 20G<66 174 174 174> 575 145<-24 217 -24 114>
VStem: 66 144<0 316 0 511> 353 126<313 409.5 336 409.5>
AnchorPoint: "Bottom" 138 0 basechar 0
LayerCount: 2
Fore
SplineSet
81 720 m 1xdc
 166 637 l 1
 250 720 l 1
 354 720 l 1
 308 672 262 623 217 575 c 1
 114 575 l 1
 -24 720 l 1
 81 720 l 1xdc
353 313 m 1
 353 336 l 2
 353 371 336 412 282 412 c 0
 232 412 210 367 210 316 c 2xdc
 210 0 l 1
 66 0 l 1
 66 511 l 1
 174 511 l 1xbc
 192 436 l 1
 196 447 239 521 335 521 c 0
 430 521 479 455 479 364 c 0
 479 348 475 313 475 313 c 1
 353 313 l 1
EndSplineSet
Validated: 1
EndChar

StartChar: rcommaaccent
Encoding: 174 343 174
Width: 489
GlyphClass: 2
Flags: MW
HStem: -167 137<71 134 71 217> 0 21G<66 210 66 66> 412 109<287 309> 491 20G<66 174 174 174>
VStem: 66 144<0 316 0 511> 353 126<313 409.5 336 409.5>
AnchorPoint: "Bottom" 138 0 basechar 0
LayerCount: 2
Fore
SplineSet
353 313 m 1x6c
 353 336 l 2
 353 371 336 412 282 412 c 0
 232 412 210 367 210 316 c 2xec
 210 0 l 1
 66 0 l 1
 66 511 l 1
 174 511 l 1x5c
 192 436 l 1
 196 447 239 521 335 521 c 0
 430 521 479 455 479 364 c 0
 479 348 475 313 475 313 c 1
 353 313 l 1x6c
134 -167 m 1
 71 -167 l 1
 71 -30 l 1
 217 -30 l 1
 217 -143 l 1
 192 -250 l 1
 118 -250 l 1
 134 -167 l 1
EndSplineSet
Validated: 1
EndChar

StartChar: s
Encoding: 175 115 175
Width: 539
GlyphClass: 2
Flags: MW
HStem: -10 100<239.5 244 244 277> 201.6 118.5 421 100<267 287 287 299.5>
VStem: 29 129<130.5 148> 45 133<329.5 390 329.5 413> 363 130<377.5 382> 369 135<120.5 190.5>
AnchorPoint: "Bottom" 270 0 basechar 0
LayerCount: 2
Fore
SplineSet
158 163 m 1xf2
 158 156 l 2xf2
 158 105 213 90 266 90 c 0
 310 90 369 101 369 140 c 0xea
 369 241 45 150 45 359 c 0
 45 467 151 521 267 521 c 2
 287 521 l 2
 391 521 493 467 493 383 c 0
 493 372 491 362 491 361 c 2
 363 361 l 1xec
 363 403 328 421 271 421 c 0
 216 421 178 404 178 376 c 0xea
 178 283 504 374 504 162 c 0
 504 32 395 -10 277 -10 c 2
 244 -10 l 2
 119 -10 29 51 29 143 c 0
 29 153 30 159 30 163 c 1
 158 163 l 1xf2
EndSplineSet
Validated: 1
EndChar

StartChar: sacute
Encoding: 176 347 176
Width: 539
GlyphClass: 2
Flags: MW
HStem: -10 100<239.5 244 244 277> 201.6 118.5 421 100<267 287 287 299.5> 575 145<281 290 189 410>
VStem: 29 129<130.5 148> 45 133<329.5 390 329.5 413> 363 130<377.5 382> 369 135<120.5 190.5>
AnchorPoint: "Bottom" 270 0 basechar 0
LayerCount: 2
Fore
SplineSet
281 720 m 1xf5
 410 720 l 1
 411 717 l 1
 290 575 l 1
 189 575 l 1
 281 720 l 1xf5
158 163 m 1xf9
 158 156 l 2xf9
 158 105 213 90 266 90 c 0
 310 90 369 101 369 140 c 0xf5
 369 241 45 150 45 359 c 0
 45 467 151 521 267 521 c 2
 287 521 l 2
 391 521 493 467 493 383 c 0
 493 372 491 362 491 361 c 2
 363 361 l 1xf6
 363 403 328 421 271 421 c 0
 216 421 178 404 178 376 c 0xf5
 178 283 504 374 504 162 c 0
 504 32 395 -10 277 -10 c 2
 244 -10 l 2
 119 -10 29 51 29 143 c 0
 29 153 30 159 30 163 c 1
 158 163 l 1xf9
EndSplineSet
Validated: 1
EndChar

StartChar: scaron
Encoding: 177 353 177
Width: 541
GlyphClass: 2
Flags: MW
HStem: -10 100<239.5 244 244 277> 201.6 118.5 421 100<267 287 287 299.5> 575 145<80 321 80 218>
VStem: 29 129<130.5 148> 45 133<329.5 390 329.5 413> 363 130<377.5 382> 369 135<120.5 190.5>
LayerCount: 2
Fore
SplineSet
185 720 m 1xf5
 270 637 l 1
 354 720 l 1
 458 720 l 1
 412 672 366 623 321 575 c 1
 218 575 l 1
 80 720 l 1
 185 720 l 1xf5
158 163 m 1xf9
 158 156 l 2xf9
 158 105 213 90 266 90 c 0
 310 90 369 101 369 140 c 0xf5
 369 241 45 150 45 359 c 0
 45 467 151 521 267 521 c 2
 287 521 l 2
 391 521 493 467 493 383 c 0
 493 372 491 362 491 361 c 2
 363 361 l 1xf6
 363 403 328 421 271 421 c 0
 216 421 178 404 178 376 c 0xf5
 178 283 504 374 504 162 c 0
 504 32 395 -10 277 -10 c 2
 244 -10 l 2
 119 -10 29 51 29 143 c 0
 29 153 30 159 30 163 c 1
 158 163 l 1xf9
EndSplineSet
Validated: 1
EndChar

StartChar: scedilla
Encoding: 178 351 178
Width: 539
GlyphClass: 2
Flags: MW
HStem: -197 55<245.5 273.5 236.5 286> -68 51<244 264 244 267> -10 100<239.5 244 244 277> 201.6 118.5 421 100<267 287 287 299.5>
VStem: 29 129<130.5 148> 45 133<329.5 390 329.5 413> 309 74<-117.5 -92.5> 363 130<377.5 382> 369 135<120.5 190.5>
AnchorPoint: "Bottom" 270 0 basechar 0
LayerCount: 2
Fore
SplineSet
158 163 m 1xbc40
 158 156 l 2xbd
 158 105 213 90 266 90 c 0
 310 90 369 101 369 140 c 0xba40
 369 241 45 150 45 359 c 0
 45 467 151 521 267 521 c 2
 287 521 l 2
 391 521 493 467 493 383 c 0
 493 372 491 362 491 361 c 2
 363 361 l 1xba80
 363 403 328 421 271 421 c 0
 216 421 178 404 178 376 c 0xba40
 178 283 504 374 504 162 c 0
 504 32 395 -10 277 -10 c 2
 244 -10 l 2
 119 -10 29 51 29 143 c 0
 29 153 30 159 30 163 c 1
 158 163 l 1xbc40
156 -168 m 1
 177 -116 l 1
 183 -119 213 -142 260 -142 c 0
 287 -142 309 -131 309 -104 c 0
 309 -81 292 -68 264 -68 c 2
 244 -68 l 1
 244 -17 l 1
 267 -17 l 2xdb
 324 -17 383 -34 383 -107 c 0
 383 -182 308 -197 264 -197 c 0
 227 -197 183 -187 156 -168 c 1
EndSplineSet
Validated: 1
EndChar

StartChar: scommaaccent
Encoding: 179 537 179
Width: 539
GlyphClass: 2
Flags: MW
HStem: -167 137<203 266 203 349> -10 100<239.5 244 244 277> 201.6 118.5 421 100<267 287 287 299.5>
VStem: 29 129<130.5 148> 45 133<329.5 390 329.5 413> 203 146<-143 -30 -143 -30 -143 -30> 363 130<377.5 382> 369 135<120.5 190.5>
AnchorPoint: "Bottom" 270 0 basechar 0
LayerCount: 2
Fore
SplineSet
158 163 m 1x7a
 158 156 l 2x7a
 158 105 213 90 266 90 c 0
 310 90 369 101 369 140 c 0x7680
 369 241 45 150 45 359 c 0
 45 467 151 521 267 521 c 2
 287 521 l 2
 391 521 493 467 493 383 c 0
 493 372 491 362 491 361 c 2
 363 361 l 1x77
 363 403 328 421 271 421 c 0
 216 421 178 404 178 376 c 0
 178 283 504 374 504 162 c 0x7680
 504 32 395 -10 277 -10 c 2
 244 -10 l 2
 119 -10 29 51 29 143 c 0
 29 153 30 159 30 163 c 1
 158 163 l 1x7a
266 -167 m 1xfa
 203 -167 l 1
 203 -30 l 1
 349 -30 l 1
 349 -143 l 1
 324 -250 l 1
 250 -250 l 1
 266 -167 l 1xfa
EndSplineSet
Validated: 1
EndChar

StartChar: germandbls
Encoding: 180 223 180
Width: 622
GlyphClass: 2
Flags: MW
HStem: -66 166<85 330> 0 100<279 330 330 352 279 330> 331 100<279 325 325 330 279 325> 411 100<25 85 25 85> 628 100<296 351.5>
VStem: 85 146<-66 411 411 411 511 511> 419 142<515.5 562.5> 440 145<184.5 252 145.5 257>
LayerCount: 2
Fore
SplineSet
585 214 m 0x5d
 585 77 485 0 352 0 c 2
 279 0 l 1
 279 100 l 1
 330 100 l 2
 391 100 440 145 440 224 c 0x6d
 440 290 391 331 330 331 c 2
 279 331 l 1
 279 431 l 1
 325 431 l 2x6e
 377 431 419 473 419 534 c 0
 419 591 378 628 325 628 c 0
 267 628 231 584 231 526 c 2
 231 -66 l 1
 85 -66 l 1
 85 411 l 1
 25 411 l 1
 25 511 l 1
 85 511 l 1
 89 648 203 728 329 728 c 0
 445 728 561 671 561 550 c 0x9e
 561 481 522 417 464 393 c 1
 465 388 l 1
 536 363 585 290 585 214 c 0x5d
EndSplineSet
Validated: 1
EndChar

StartChar: t
Encoding: 181 116 181
Width: 371
GlyphClass: 2
Flags: MW
HStem: -10 100<184 288.5> 411 100<22 78 22 83 224 343>
VStem: 78 146<133 158 158 411>
AnchorPoint: "Bottom" 186 0 basechar 0
LayerCount: 2
Fore
SplineSet
343 103 m 1
 343 9 l 1
 316 -2 265 -10 233 -10 c 0
 135 -10 78 27 78 133 c 2
 78 411 l 1
 22 411 l 1
 22 511 l 1
 83 511 l 1
 134 674 l 1
 224 674 l 1
 224 511 l 1
 343 511 l 1
 343 411 l 1
 224 411 l 1
 224 158 l 2
 224 99 253 90 281 90 c 0
 296 90 327 96 343 103 c 1
EndSplineSet
Validated: 1
EndChar

StartChar: tcaron
Encoding: 182 357 182
Width: 371
GlyphClass: 2
Flags: MW
HStem: -10 21G<184 249> -10 100<184 288.5> 411 100<22 78 22 83 224 343> 539 147<350 413 350 496>
VStem: 78 146<133 158 158 411> 350 146<563 686 563 686 563 686>
AnchorPoint: "Bottom" 186 0 basechar 0
LayerCount: 2
Fore
SplineSet
454 395 m 1xac
 381 395 l 1
 391 443 402 491 413 539 c 1
 350 539 l 1
 350 686 l 1
 496 686 l 1x7c
 496 563 l 1
 454 395 l 1xac
343 103 m 1
 343 9 l 1
 316 -2 265 -10 233 -10 c 0
 135 -10 78 27 78 133 c 2
 78 411 l 1
 22 411 l 1
 22 511 l 1
 83 511 l 1
 134 674 l 1
 224 674 l 1
 224 511 l 1
 343 511 l 1
 343 411 l 1
 224 411 l 1xac
 224 158 l 2
 224 99 253 90 281 90 c 0
 296 90 327 96 343 103 c 1
EndSplineSet
Validated: 1
EndChar

StartChar: tcedilla
Encoding: 183 355 183
Width: 371
GlyphClass: 2
Flags: MW
HStem: -197 55<161.5 189.5 152.5 202> -68 51<160 180 160 183> -10 21G<184 249> -10 100<184 288.5> 411 100<22 78 22 83 224 343>
VStem: 78 146<133 158 158 411> 160 183<-68 103 -17 103> 225 74<-117.5 -92.5>
AnchorPoint: "Bottom" 186 0 basechar 0
LayerCount: 2
Fore
SplineSet
343 103 m 1x9a
 343 9 l 1xaa
 316 -2 265 -10 233 -10 c 0
 135 -10 78 27 78 133 c 2
 78 411 l 1
 22 411 l 1
 22 511 l 1
 83 511 l 1
 134 674 l 1
 224 674 l 1
 224 511 l 1
 343 511 l 1
 343 411 l 1
 224 411 l 1
 224 158 l 2
 224 99 253 90 281 90 c 0x9c
 296 90 327 96 343 103 c 1x9a
72 -168 m 1
 93 -116 l 1
 99 -119 129 -142 176 -142 c 0
 203 -142 225 -131 225 -104 c 0
 225 -81 208 -68 180 -68 c 2xc9
 160 -68 l 1
 160 -17 l 1xca
 183 -17 l 2
 240 -17 299 -34 299 -107 c 0xc9
 299 -182 224 -197 180 -197 c 0
 143 -197 99 -187 72 -168 c 1
EndSplineSet
Validated: 1
EndChar

StartChar: tcommaaccent
Encoding: 184 539 184
Width: 371
GlyphClass: 2
Flags: MW
HStem: -167 137<119 182 119 265> -10 21G<184 249> -10 100<184 288.5> 411 100<22 78 22 83 224 343>
VStem: 78 146<133 158 158 411> 119 146<-143 -30 -143 -30 -143 -30>
AnchorPoint: "Bottom" 186 0 basechar 0
LayerCount: 2
Fore
SplineSet
343 103 m 1x38
 343 9 l 1
 316 -2 265 -10 233 -10 c 0
 135 -10 78 27 78 133 c 2
 78 411 l 1
 22 411 l 1
 22 511 l 1
 83 511 l 1
 134 674 l 1
 224 674 l 1
 224 511 l 1
 343 511 l 1
 343 411 l 1
 224 411 l 1
 224 158 l 2
 224 99 253 90 281 90 c 0
 296 90 327 96 343 103 c 1x38
182 -167 m 1xd4
 119 -167 l 1
 119 -30 l 1
 265 -30 l 1
 265 -143 l 1
 240 -250 l 1
 166 -250 l 1
 182 -167 l 1xd4
EndSplineSet
Validated: 1
EndChar

StartChar: u
Encoding: 185 117 185
Width: 612
GlyphClass: 2
Flags: MW
HStem: -10 100<478 567.5> -10 106<266.5 279> 491 20G<64 210 210 210 385 531 531 531>
VStem: 64 146<160 186 186 511> 385 146<197 511>
LayerCount: 2
Fore
SplineSet
531 511 m 1x78
 531 120 l 2
 531 98 547 90 560 90 c 0
 575 90 595 98 601 101 c 1xb8
 601 11 l 1
 594 7 563 -10 513 -10 c 0
 443 -10 407 18 397 63 c 1
 364 25 315 -10 243 -10 c 0
 145 -10 64 43 64 154 c 2
 64 511 l 1
 210 511 l 1
 210 186 l 2
 210 134 243 96 290 96 c 0
 341 96 385 140 385 197 c 2
 385 511 l 1
 531 511 l 1x78
EndSplineSet
Validated: 1
EndChar

StartChar: uacute
Encoding: 186 250 186
Width: 611
GlyphClass: 2
Flags: MW
HStem: -10 100<478 567.5> -10 106<266.5 279> 491 20G<64 210 210 210 385 531 531 531> 575 145<335 344 243 464>
VStem: 64 146<160 186 186 511> 385 146<197 511>
LayerCount: 2
Fore
SplineSet
335 720 m 1x7c
 464 720 l 1
 465 717 l 1
 344 575 l 1
 243 575 l 1
 335 720 l 1x7c
531 511 m 1
 531 120 l 2
 531 98 547 90 560 90 c 0
 575 90 595 98 601 101 c 1xbc
 601 11 l 1
 594 7 563 -10 513 -10 c 0
 443 -10 407 18 397 63 c 1
 364 25 315 -10 243 -10 c 0
 145 -10 64 43 64 154 c 2
 64 511 l 1
 210 511 l 1
 210 186 l 2
 210 134 243 96 290 96 c 0
 341 96 385 140 385 197 c 2
 385 511 l 1
 531 511 l 1
EndSplineSet
Validated: 1
EndChar

StartChar: ucircumflex
Encoding: 187 251 187
Width: 611
GlyphClass: 2
Flags: MW
HStem: -10 100<478 567.5> -10 106<266.5 279> 491 20G<64 210 210 210 385 531 531 531> 575 145<107 348 107 348 245 485 245 380>
VStem: 64 146<160 186 186 511> 385 146<197 511>
LayerCount: 2
Fore
SplineSet
245 720 m 1x7c
 348 720 l 1
 393 672 439 623 485 575 c 1
 380 575 l 1
 296 658 l 1
 211 575 l 1
 107 575 l 1
 245 720 l 1x7c
531 511 m 1
 531 120 l 2
 531 98 547 90 560 90 c 0
 575 90 595 98 601 101 c 1xbc
 601 11 l 1
 594 7 563 -10 513 -10 c 0
 443 -10 407 18 397 63 c 1
 364 25 315 -10 243 -10 c 0
 145 -10 64 43 64 154 c 2
 64 511 l 1
 210 511 l 1
 210 186 l 2
 210 134 243 96 290 96 c 0
 341 96 385 140 385 197 c 2
 385 511 l 1
 531 511 l 1
EndSplineSet
Validated: 1
EndChar

StartChar: udieresis
Encoding: 188 252 188
Width: 611
GlyphClass: 2
Flags: MW
HStem: -10 100<478 567.5> -10 106<266.5 279> 491 20G<64 210 210 210 385 531 531 531> 598 122<135 256 135 256 135 339 339 460>
VStem: 64 146<160 186 186 511> 135 121<598 720 598 720> 339 121<598 720 598 720> 385 146<197 511>
LayerCount: 2
Fore
SplineSet
256 720 m 1x76
 256 598 l 1
 135 598 l 1
 135 720 l 1
 256 720 l 1x76
460 720 m 1
 460 598 l 1
 339 598 l 1
 339 720 l 1
 460 720 l 1
531 511 m 1x79
 531 120 l 2
 531 98 547 90 560 90 c 0
 575 90 595 98 601 101 c 1xb9
 601 11 l 1
 594 7 563 -10 513 -10 c 0
 443 -10 407 18 397 63 c 1
 364 25 315 -10 243 -10 c 0
 145 -10 64 43 64 154 c 2
 64 511 l 1
 210 511 l 1
 210 186 l 2
 210 134 243 96 290 96 c 0
 341 96 385 140 385 197 c 2
 385 511 l 1
 531 511 l 1x79
EndSplineSet
Validated: 1
EndChar

StartChar: ugrave
Encoding: 189 249 189
Width: 611
GlyphClass: 2
Flags: MW
HStem: -10 100<478 567.5> -10 106<266.5 279> 491 20G<64 210 210 210 385 531 531 531> 575 145<252 261 133 354 252 252>
VStem: 64 146<160 186 186 511> 385 146<197 511>
LayerCount: 2
Fore
SplineSet
132 717 m 1x7c
 133 720 l 1
 261 720 l 1
 354 575 l 1
 252 575 l 1
 132 717 l 1x7c
531 511 m 1
 531 120 l 2
 531 98 547 90 560 90 c 0
 575 90 595 98 601 101 c 1xbc
 601 11 l 1
 594 7 563 -10 513 -10 c 0
 443 -10 407 18 397 63 c 1
 364 25 315 -10 243 -10 c 0
 145 -10 64 43 64 154 c 2
 64 511 l 1
 210 511 l 1
 210 186 l 2
 210 134 243 96 290 96 c 0
 341 96 385 140 385 197 c 2
 385 511 l 1
 531 511 l 1
EndSplineSet
Validated: 1
EndChar

StartChar: uhungarumlaut
Encoding: 190 369 190
Width: 612
GlyphClass: 2
Flags: MW
HStem: -10 100<478 567.5> -10 106<266.5 279> 491 20G<64 210 210 210 385 531 531 531> 575 145<222 231 129 350 320 320 320 350 413 422>
VStem: 64 146<160 186 186 511> 385 146<197 511>
LayerCount: 2
Fore
SplineSet
222 720 m 1x7c
 350 720 l 1
 352 717 l 1
 231 575 l 1
 129 575 l 1
 222 720 l 1x7c
413 720 m 1
 541 720 l 1
 543 717 l 1
 422 575 l 1
 320 575 l 1
 413 720 l 1
531 511 m 1
 531 120 l 2
 531 98 547 90 560 90 c 0
 575 90 595 98 601 101 c 1xbc
 601 11 l 1
 594 7 563 -10 513 -10 c 0
 443 -10 407 18 397 63 c 1
 364 25 315 -10 243 -10 c 0
 145 -10 64 43 64 154 c 2
 64 511 l 1
 210 511 l 1
 210 186 l 2
 210 134 243 96 290 96 c 0
 341 96 385 140 385 197 c 2
 385 511 l 1
 531 511 l 1
EndSplineSet
Validated: 1
EndChar

StartChar: umacron
Encoding: 191 363 191
Width: 612
GlyphClass: 2
Flags: MW
HStem: -10 100<478 567.5> -10 106<266.5 279> 491 20G<64 210 210 210 385 531 531 531> 662 74<147 465 147 465>
VStem: 64 146<160 186 186 511> 385 146<197 511>
LayerCount: 2
Fore
SplineSet
147 736 m 1x7c
 465 736 l 1
 465 662 l 1
 147 662 l 1
 147 736 l 1x7c
531 511 m 1
 531 120 l 2
 531 98 547 90 560 90 c 0
 575 90 595 98 601 101 c 1xbc
 601 11 l 1
 594 7 563 -10 513 -10 c 0
 443 -10 407 18 397 63 c 1
 364 25 315 -10 243 -10 c 0
 145 -10 64 43 64 154 c 2
 64 511 l 1
 210 511 l 1
 210 186 l 2
 210 134 243 96 290 96 c 0
 341 96 385 140 385 197 c 2
 385 511 l 1
 531 511 l 1
EndSplineSet
Validated: 1
EndChar

StartChar: uogonek
Encoding: 192 371 192
Width: 612
GlyphClass: 2
Flags: MW
HStem: -143 50<537.5 548.5> -10 106<266.5 279> -7 21G 491 20G<64 210 210 210 385 531 531 531>
VStem: 64 146<160 186 186 511> 385 146<197 511> 435 69<-71 -57.5>
LayerCount: 2
Fore
SplineSet
615 -79 m 1xbc
 628 -119 l 1
 599 -135 565 -143 532 -143 c 0
 486 -143 435 -126 435 -71 c 0
 435 -44 457 -23 478 -7 c 1xba
 431 1 405 26 397 63 c 1xda
 364 25 315 -10 243 -10 c 0
 145 -10 64 43 64 154 c 2
 64 511 l 1
 210 511 l 1
 210 186 l 2
 210 134 243 96 290 96 c 0
 341 96 385 140 385 197 c 2
 385 511 l 1
 531 511 l 1
 531 120 l 2
 531 98 547 90 560 90 c 0
 575 90 595 98 601 101 c 1
 601 11 l 1xdc
 595 8 573 -5 537 -9 c 1
 520 -20 504 -37 504 -57 c 0
 504 -85 527 -93 548 -93 c 0xba
 572 -93 594 -87 615 -79 c 1xbc
EndSplineSet
Validated: 1
EndChar

StartChar: uring
Encoding: 193 367 193
Width: 612
GlyphClass: 2
Flags: MW
HStem: -10 100<478 567.5> -10 106<266.5 279> 491 20G<64 210 210 210 385 531 531 531> 544 57<294 318 294 334> 689 57<294 318>
VStem: 64 146<160 186 186 511> 205 57<633 657 633 673> 350 57<633 657> 385 146<197 511>
LayerCount: 2
Fore
SplineSet
205 645 m 0x7b
 205 701 250 746 306 746 c 0
 362 746 407 701 407 645 c 0
 407 589 362 544 306 544 c 0
 250 544 205 589 205 645 c 0x7b
262 645 m 0
 262 621 282 601 306 601 c 0
 330 601 350 621 350 645 c 0
 350 669 330 689 306 689 c 0
 282 689 262 669 262 645 c 0
531 511 m 1x7c80
 531 120 l 2
 531 98 547 90 560 90 c 0
 575 90 595 98 601 101 c 1xbc80
 601 11 l 1
 594 7 563 -10 513 -10 c 0
 443 -10 407 18 397 63 c 1
 364 25 315 -10 243 -10 c 0
 145 -10 64 43 64 154 c 2
 64 511 l 1
 210 511 l 1
 210 186 l 2
 210 134 243 96 290 96 c 0
 341 96 385 140 385 197 c 2
 385 511 l 1
 531 511 l 1x7c80
EndSplineSet
Validated: 1
EndChar

StartChar: v
Encoding: 194 118 194
Width: 536
GlyphClass: 2
Flags: MW
HStem: 0 21G<185 185 185 350> 0 169<185 277 272 277 272 350> 491 20G<6 161 161 161 388 530 530 530>
VStem: 6 524<511 511>
LayerCount: 2
Fore
SplineSet
185 0 m 1xb0
 6 511 l 1
 161 511 l 1
 272 169 l 1
 277 169 l 1x70
 388 511 l 1
 530 511 l 1
 350 0 l 1
 185 0 l 1xb0
EndSplineSet
Validated: 1
EndChar

StartChar: w
Encoding: 195 119 195
Width: 820
GlyphClass: 2
Flags: MW
HStem: 0 21G<162 325 162 162 497 497 497 658> 0 195<245 251 245 325 162 251 577 583> 491 20G<6 157 157 157 342 488 488 488 672 814 814 814>
VStem: 6 808<511 511>
LayerCount: 2
Fore
SplineSet
413 285 m 1xb0
 407 285 l 1
 380 190 353 95 325 0 c 1
 162 0 l 1
 6 511 l 1
 157 511 l 1
 187 405 216 300 245 195 c 1
 251 195 l 1
 281 300 312 405 342 511 c 1
 488 511 l 1
 518 405 547 300 577 195 c 1
 583 195 l 1x70
 613 300 643 405 672 511 c 1
 814 511 l 1
 658 0 l 1
 497 0 l 1
 413 285 l 1xb0
EndSplineSet
Validated: 1
EndChar

StartChar: x
Encoding: 196 120 196
Width: 553
GlyphClass: 2
Flags: MW
HStem: 0 21G<6 164 6 6 377 546 377 377> 491 20G<20 190 190 190 378 536 536 536>
VStem: 6 540<0 0>
LayerCount: 2
Fore
SplineSet
185 264 m 1
 20 511 l 1
 190 511 l 1
 221 462 250 413 281 365 c 1
 285 365 l 1
 317 413 347 462 378 511 c 1
 536 511 l 1
 369 265 l 1
 546 0 l 1
 377 0 l 1
 273 165 l 1
 269 165 l 1
 234 110 200 55 164 0 c 1
 6 0 l 1
 185 264 l 1
EndSplineSet
Validated: 1
EndChar

StartChar: y
Encoding: 197 121 197
Width: 536
GlyphClass: 2
Flags: MW
HStem: -187 104<109.5 129.5 96 181.5> 491 20G<6 161 161 161 386 530 530 530>
VStem: 6 524<511 511>
LayerCount: 2
Fore
SplineSet
530 511 m 1
 348 28 l 2
 303 -92 236 -187 127 -187 c 0
 92 -187 63 -182 41 -172 c 1
 41 -69 l 1
 55 -75 84 -83 108 -83 c 0
 151 -83 181 -53 199 10 c 1
 6 511 l 1
 161 511 l 1
 274 190 l 1
 280 190 l 1
 386 511 l 1
 530 511 l 1
EndSplineSet
Validated: 1
EndChar

StartChar: yacute
Encoding: 198 253 198
Width: 545
GlyphClass: 2
Flags: MW
HStem: -187 104<113.5 133.5 100 185.5> 491 20G<10 165 165 165 390 534 534 534> 575 145<316 325 224 445>
VStem: 10 524<511 511>
LayerCount: 2
Fore
SplineSet
316 720 m 1
 445 720 l 1
 446 717 l 1
 325 575 l 1
 224 575 l 1
 316 720 l 1
534 511 m 1
 352 28 l 2
 307 -92 240 -187 131 -187 c 0
 96 -187 67 -182 45 -172 c 1
 45 -69 l 1
 59 -75 88 -83 112 -83 c 0
 155 -83 185 -53 203 10 c 1
 10 511 l 1
 165 511 l 1
 278 190 l 1
 284 190 l 1
 390 511 l 1
 534 511 l 1
EndSplineSet
Validated: 1
EndChar

StartChar: ydieresis
Encoding: 199 255 199
Width: 545
GlyphClass: 2
Flags: MW
HStem: -187 104<113.5 133.5 100 185.5> 491 20G<10 165 165 165 390 534 534 534> 598 122<114 235 114 235 114 318 318 439>
VStem: 114 121<598 720 598 720> 318 121<598 720 598 720>
LayerCount: 2
Fore
SplineSet
235 720 m 1
 235 598 l 1
 114 598 l 1
 114 720 l 1
 235 720 l 1
439 720 m 1
 439 598 l 1
 318 598 l 1
 318 720 l 1
 439 720 l 1
534 511 m 1
 352 28 l 2
 307 -92 240 -187 131 -187 c 0
 96 -187 67 -182 45 -172 c 1
 45 -69 l 1
 59 -75 88 -83 112 -83 c 0
 155 -83 185 -53 203 10 c 1
 10 511 l 1
 165 511 l 1
 278 190 l 1
 284 190 l 1
 390 511 l 1
 534 511 l 1
EndSplineSet
Validated: 1
EndChar

StartChar: z
Encoding: 200 122 200
Width: 486
GlyphClass: 2
Flags: MW
HStem: 0 100<228 455 228 455> 411 100<49 254 49 447>
VStem: 36 419<0 50 50 50>
LayerCount: 2
Fore
SplineSet
36 50 m 1
 254 411 l 1
 49 411 l 1
 49 511 l 1
 447 511 l 1
 447 462 l 1
 228 100 l 1
 455 100 l 1
 455 0 l 1
 36 0 l 1
 36 50 l 1
EndSplineSet
Validated: 1
EndChar

StartChar: zacute
Encoding: 201 378 201
Width: 486
GlyphClass: 2
Flags: MW
HStem: 0 100<228 455 228 455> 411 100<49 254 49 447> 575 145<254 263 162 383>
VStem: 36 419<0 50 50 50>
LayerCount: 2
Fore
SplineSet
254 720 m 1
 383 720 l 1
 384 717 l 1
 263 575 l 1
 162 575 l 1
 254 720 l 1
36 50 m 1
 254 411 l 1
 49 411 l 1
 49 511 l 1
 447 511 l 1
 447 462 l 1
 228 100 l 1
 455 100 l 1
 455 0 l 1
 36 0 l 1
 36 50 l 1
EndSplineSet
Validated: 1
EndChar

StartChar: zcaron
Encoding: 202 382 202
Width: 486
GlyphClass: 2
Flags: MW
HStem: 0 100<228 455 228 455> 411 100<49 254 49 447> 575 145<58 299 58 196>
VStem: 36 419<0 50 50 50>
LayerCount: 2
Fore
SplineSet
163 720 m 1
 248 637 l 1
 332 720 l 1
 436 720 l 1
 390 672 344 623 299 575 c 1
 196 575 l 1
 58 720 l 1
 163 720 l 1
36 50 m 1
 254 411 l 1
 49 411 l 1
 49 511 l 1
 447 511 l 1
 447 462 l 1
 228 100 l 1
 455 100 l 1
 455 0 l 1
 36 0 l 1
 36 50 l 1
EndSplineSet
Validated: 1
EndChar

StartChar: zdotaccent
Encoding: 203 380 203
Width: 486
GlyphClass: 2
Flags: MW
HStem: 0 100<228 455 228 455> 411 100<49 254 49 447> 604 132<224.5 260.5>
VStem: 177 132<652 688 651 688.5>
LayerCount: 2
Fore
SplineSet
309 670 m 0
 309 632 279 604 242 604 c 0
 207 604 177 634 177 670 c 0
 177 707 206 736 243 736 c 0
 280 736 309 706 309 670 c 0
36 50 m 1
 254 411 l 1
 49 411 l 1
 49 511 l 1
 447 511 l 1
 447 462 l 1
 228 100 l 1
 455 100 l 1
 455 0 l 1
 36 0 l 1
 36 50 l 1
EndSplineSet
Validated: 1
EndChar

StartChar: fi
Encoding: 204 64257 204
Width: 641
GlyphClass: 3
Flags: MW
HStem: 0 21G<85 231 85 85 429 429 429 575> 411 100<25 85 25 85 231 350> 605 115<428 576 428 576> 629 99<190.5 295.5>
VStem: 85 146<0 411 0 411 511 569> 429 146<0 511 0 511>
LayerCount: 2
Fore
SplineSet
350 707 m 1xdc
 350 618 l 1
 334 623 303 629 288 629 c 0
 264 629 231 623 231 569 c 2
 231 511 l 1
 350 511 l 1
 350 411 l 1
 231 411 l 1
 231 0 l 1
 85 0 l 1
 85 411 l 1
 25 411 l 1
 25 511 l 1
 85 511 l 1
 85 578 l 2
 85 684 142 728 239 728 c 0
 270 728 322 720 350 707 c 1xdc
576 720 m 1xec
 576 605 l 1
 428 605 l 1
 428 720 l 1
 576 720 l 1xec
429 511 m 1
 575 511 l 1
 575 0 l 1
 429 0 l 1
 429 511 l 1
EndSplineSet
Validated: 1
Ligature2: "'liga' Standard Ligatures lookup 4 subtable" f i
EndChar

StartChar: fl
Encoding: 205 64258 205
Width: 642
GlyphClass: 3
Flags: MW
HStem: 0 21G<85 231 85 85 429 429 429 575> 411 100<25 85 25 85 231 350> 629 99<190.5 295.5>
VStem: 85 146<0 411 0 411 511 569> 429 146<0 720 0 720>
LayerCount: 2
Fore
SplineSet
350 707 m 1
 350 618 l 1
 334 623 303 629 288 629 c 0
 264 629 231 623 231 569 c 2
 231 511 l 1
 350 511 l 1
 350 411 l 1
 231 411 l 1
 231 0 l 1
 85 0 l 1
 85 411 l 1
 25 411 l 1
 25 511 l 1
 85 511 l 1
 85 578 l 2
 85 684 142 728 239 728 c 0
 270 728 322 720 350 707 c 1
429 720 m 1
 575 720 l 1
 575 0 l 1
 429 0 l 1
 429 720 l 1
EndSplineSet
Validated: 1
Ligature2: "'liga' Standard Ligatures lookup 4 subtable" f l
EndChar

StartChar: ordfeminine
Encoding: 206 170 206
Width: 389
GlyphClass: 2
Flags: MW
HStem: 374 60<147 155.5> 519 50<193.5 231> 635 61<171 184 184 196.5>
VStem: 25 92<457.5 488.5 457.5 508.5> 35 86<595 632> 231 87<502 519 519 519 569 589 589 600>
LayerCount: 2
Fore
SplineSet
231 569 m 1xf4
 231 589 l 2
 231 615 217 635 176 635 c 0
 140 635 121 613 121 600 c 2
 121 595 l 1
 36 595 l 2
 35 598 35 601 35 606 c 0xec
 35 658 90 696 171 696 c 2
 184 696 l 2
 274 696 318 657 318 600 c 2
 318 456 l 2
 318 441 327 434 335 434 c 0
 344 434 356 439 360 441 c 1
 360 386 l 1
 356 384 337 374 307 374 c 0
 260 374 239 394 235 426 c 1
 214 400 180 374 131 374 c 0
 81 374 25 386 25 464 c 0
 25 553 106 569 231 569 c 1xf4
231 502 m 2
 231 519 l 1
 156 519 117 506 117 471 c 0xf4
 117 444 132 434 162 434 c 0
 192 434 231 461 231 502 c 2
EndSplineSet
Validated: 1
EndChar

StartChar: ordmasculine
Encoding: 207 186 207
Width: 367
GlyphClass: 2
Flags: MW
HStem: 374 60<166.5 180 180 191> 635 61<180 191 191 204>
VStem: 29 90<526 544 544 560 485 592> 252 90<510 526 526 544 477.5 560 477.5 585>
LayerCount: 2
Fore
SplineSet
342 544 m 2
 342 526 l 2
 342 429 276 374 191 374 c 2
 180 374 l 2
 95 374 29 429 29 526 c 2
 29 544 l 2
 29 640 95 696 180 696 c 2
 191 696 l 2
 276 696 342 640 342 544 c 2
252 510 m 2
 252 560 l 2
 252 610 223 635 185 635 c 0
 148 635 119 610 119 560 c 2
 119 510 l 2
 119 460 148 434 185 434 c 0
 223 434 252 460 252 510 c 2
EndSplineSet
Validated: 1
EndChar

StartChar: Delta
Encoding: 208 916 208
Width: 700
GlyphClass: 2
Flags: MW
HStem: 0 92<177 523 177 639> 561 125<350 350> 666 20G<289 410 410 410>
VStem: 61 578<0 79 0 79>
LayerCount: 2
Fore
SplineSet
289 686 m 1xb0
 410 686 l 1
 639 79 l 1
 639 0 l 1
 61 0 l 1
 61 79 l 1
 289 686 l 1xb0
523 92 m 1
 350 561 l 1xd0
 177 92 l 1
 523 92 l 1
EndSplineSet
Validated: 1
Position2: "'cpsp' Capital Spacing lookup 0 subtable" dx=5 dy=0 dh=10 dv=0
EndChar

StartChar: Omega
Encoding: 209 937 209
Width: 724
GlyphClass: 2
Flags: MW
HStem: 0 111 0 126<36 59 36 321 36 59 664 687> 574 120<344 380 380 410.5>
VStem: 56 165<347 381 229 382 229 482> 403 284<0 67 67 67> 504 164<292.5 343 343 381 381 382 292.5 445.5>
LayerCount: 2
Fore
SplineSet
668 382 m 2x74
 668 343 l 2x74
 668 242 628 167 566 111 c 1xb8
 599 116 631 120 664 126 c 1
 687 126 l 1
 687 0 l 1
 403 0 l 1x78
 403 67 l 1
 489 91 504 166 504 289 c 2
 504 381 l 2
 504 510 459 574 362 574 c 0
 257 574 221 505 221 381 c 2
 221 289 l 2
 221 169 235 91 321 67 c 1
 321 0 l 1
 36 0 l 1
 36 126 l 1
 59 126 l 1x74
 91 121 121 116 158 111 c 1xb4
 95 167 56 243 56 347 c 2
 56 382 l 2
 56 582 185 694 344 694 c 2
 380 694 l 2
 539 694 668 582 668 382 c 2x74
EndSplineSet
Validated: 1
Position2: "'cpsp' Capital Spacing lookup 0 subtable" dx=5 dy=0 dh=10 dv=0
EndChar

StartChar: mu
Encoding: 210 956 210
Width: 610
GlyphClass: 2
Flags: MW
HStem: -10 100<478 567.5> -10 106<266.5 279> -3 21G 491 20G<64 210 210 210 385 531 531 531>
VStem: 64 146<-161 -57 160 186 186 511> 385 146<197 511>
LayerCount: 2
Fore
SplineSet
531 511 m 1x3c
 531 120 l 2
 531 98 547 90 560 90 c 0
 575 90 595 98 601 101 c 1x9c
 601 11 l 1
 594 7 563 -10 513 -10 c 0
 443 -10 407 18 397 63 c 1
 364 25 315 -10 243 -10 c 0x5c
 229 -10 214 -8 201 -3 c 1
 205 -16 210 -35 210 -57 c 2x3c
 210 -161 l 1
 64 -161 l 1
 64 511 l 1
 210 511 l 1
 210 186 l 2
 210 134 243 96 290 96 c 0x5c
 341 96 385 140 385 197 c 2
 385 511 l 1
 531 511 l 1x3c
EndSplineSet
Validated: 1
EndChar

StartChar: pi
Encoding: 211 960 211
Width: 679
GlyphClass: 2
Flags: MW
HStem: 0 21G<79 218 79 79 442 580 442 442> 411 100<120.5 660 288 424 288 288 566 648 566 566>
VStem: 148 140<411 411> 424 142<148 158 158 411>
LayerCount: 2
Fore
SplineSet
566 411 m 1
 566 158 l 2
 566 81 572 31 580 0 c 1
 442 0 l 1
 430 17 424 73 424 148 c 2
 424 411 l 1
 288 411 l 1
 283 290 254 83 218 0 c 1
 79 0 l 1
 115 103 146 295 148 411 c 1
 93 411 58 408 32 400 c 1
 17 478 l 1
 44 499 102 511 203 511 c 2
 660 511 l 1
 648 411 l 1
 566 411 l 1
EndSplineSet
Validated: 1
EndChar

StartChar: zero
Encoding: 212 48 212
Width: 612
Flags: MW
HStem: -10 117<275.5 291 291 320> 579 117<291 320 320 336.5>
VStem: 52 148<230 455 455 472> 412 148<214 230 230 455>
LayerCount: 2
Fore
SplineSet
560 455 m 2
 560 230 l 2
 560 94 454 -10 320 -10 c 2
 291 -10 l 2
 157 -10 52 94 52 230 c 2
 52 455 l 2
 52 591 157 696 291 696 c 2
 320 696 l 2
 454 696 560 591 560 455 c 2
412 214 m 2
 412 472 l 2
 412 532 367 579 306 579 c 0
 245 579 200 532 200 472 c 2
 200 214 l 2
 200 154 245 107 306 107 c 0
 367 107 412 154 412 214 c 2
EndSplineSet
Validated: 1
EndChar

StartChar: one
Encoding: 213 49 213
Width: 612
Flags: MW
HStem: 0 121<80 246 393 556 80 246> 514 89<79 246 79 79> 671 20G<340 393 393 393>
VStem: 246 147<121 514 514 514>
LayerCount: 2
Fore
SplineSet
80 121 m 1
 246 121 l 1
 246 514 l 1
 79 514 l 1
 79 603 l 1
 156 609 259 646 340 691 c 1
 393 691 l 1
 393 121 l 1
 556 121 l 1
 556 0 l 1
 80 0 l 1
 80 121 l 1
EndSplineSet
Validated: 1
Substitution2: "'sups' Superscript lookup 1 subtable" onesuperior
Substitution2: "'aalt' Access All Alternates lookup 0 subtable" onesuperior
EndChar

StartChar: two
Encoding: 214 50 214
Width: 612
Flags: MW
HStem: 0 128<267 561 267 561> 573 123<317 332 332 344.5>
VStem: 59 137<467 487 467 510.5> 406 153<461.5 503>
LayerCount: 2
Fore
SplineSet
58 0 m 1
 58 30 l 2
 58 128 99 170 144 205 c 2
 339 358 l 2
 393 400 406 442 406 481 c 0
 406 525 379 573 310 573 c 0
 226 573 196 502 196 472 c 0
 196 462 196 454 197 445 c 1
 60 445 l 1
 59 453 59 458 59 464 c 0
 59 557 114 696 317 696 c 2
 332 696 l 2
 483 696 559 590 559 484 c 0
 559 407 534 351 459 288 c 0
 410 247 348 199 307 168 c 0
 298 161 267 134 267 128 c 1
 561 128 l 1
 561 0 l 1
 58 0 l 1
EndSplineSet
Validated: 1
Substitution2: "'sups' Superscript lookup 1 subtable" twosuperior
Substitution2: "'aalt' Access All Alternates lookup 0 subtable" twosuperior
EndChar

StartChar: three
Encoding: 215 51 215
Width: 612
Flags: MW
HStem: -10 119<252.5 286 286 313> 296 107<213 285 213 295> 577 119<294 313 313 320>
VStem: 37 137<191 205 172.5 205> 56 133<488 509 509 517 488 563> 398 147<472.5 521.5> 414 149<172.5 230 129.5 245.5>
LayerCount: 2
Fore
SplineSet
37 205 m 1xf2
 174 205 l 1
 174 140 213 109 292 109 c 0
 370 109 414 140 414 205 c 0xf2
 414 286 349 296 285 296 c 2
 213 296 l 1
 213 403 l 1
 295 403 l 2
 351 403 398 432 398 492 c 0
 398 551 348 577 292 577 c 0
 238 577 189 546 189 488 c 1
 56 488 l 1
 56 509 l 2
 56 617 154 696 294 696 c 2
 313 696 l 2
 448 696 545 617 545 510 c 0xec
 545 435 503 386 443 359 c 1
 443 354 l 1
 516 330 563 274 563 186 c 0
 563 73 466 -10 313 -10 c 2
 286 -10 l 2
 126 -10 37 76 37 191 c 2
 37 205 l 1xf2
EndSplineSet
Validated: 1
Substitution2: "'sups' Superscript lookup 1 subtable" threesuperior
Substitution2: "'aalt' Access All Alternates lookup 0 subtable" threesuperior
EndChar

StartChar: four
Encoding: 216 52 216
Width: 612
Flags: MW
HStem: 0 21G<335 478 335 335> 160 118<145 335 145 335 33 335 478 570> 676 20G<218 359 359 359>
VStem: 335 143<0 160 0 160 278 428 428 428>
LayerCount: 2
Fore
SplineSet
335 278 m 1
 335 428 l 1
 370 480 400 559 414 612 c 1
 478 612 l 1
 478 278 l 1
 570 278 l 1
 570 160 l 1
 478 160 l 1
 478 0 l 1
 335 0 l 1
 335 160 l 1
 33 160 l 1
 33 279 l 1
 102 388 182 570 218 696 c 1
 359 696 l 1
 326 551 204 347 145 278 c 1
 335 278 l 1
EndSplineSet
Validated: 1
EndChar

StartChar: five
Encoding: 217 53 217
Width: 612
Flags: MW
HStem: -10 121<270 297 297 312> 339 114<307.5 341> 556 130<220 517 220 220>
VStem: 413 148<192.5 257>
LayerCount: 2
Fore
SplineSet
341 453 m 0
 483 453 561 354 561 223 c 0
 561 89 461 -10 312 -10 c 2
 297 -10 l 2
 145 -10 50 92 49 219 c 1
 186 219 l 1
 187 155 241 111 299 111 c 0
 367 111 413 158 413 227 c 0
 413 287 376 339 306 339 c 0
 248 339 216 311 199 287 c 1
 76 305 l 1
 104 686 l 1
 517 686 l 1
 517 556 l 1
 220 556 l 1
 208 405 l 1
 227 420 274 453 341 453 c 0
EndSplineSet
Validated: 1
EndChar

StartChar: six
Encoding: 218 54 218
Width: 612
Flags: MW
HStem: -10 114<278 300 300 314> 332 102<314 337> 576 120<297 311 311 338>
VStem: 52 147<375 455 455 472> 409 138<469 497.5> 416 145<208 228 228 258.5>
LayerCount: 2
Fore
SplineSet
307 576 m 0xf4
 249 576 199 531 199 472 c 2
 199 375 l 1
 236 414 289 434 339 434 c 0
 462 434 561 355 561 225 c 0xf4
 561 80 452 -10 314 -10 c 2
 300 -10 l 2
 163 -10 52 87 52 231 c 2
 52 455 l 2
 52 591 161 696 297 696 c 2
 311 696 l 2
 442 696 547 614 547 469 c 1
 409 469 l 1xf8
 409 526 369 576 307 576 c 0xf4
416 208 m 2
 416 228 l 2
 416 289 368 332 306 332 c 0
 247 332 199 289 199 228 c 2
 199 208 l 2
 199 147 247 104 309 104 c 0
 368 104 416 147 416 208 c 2
EndSplineSet
Validated: 1
EndChar

StartChar: seven
Encoding: 219 55 219
Width: 612
Flags: MW
HStem: 0 21G<154 322 154 154> 555 131<66 391 66 562>
VStem: 154 167<50 106.5>
LayerCount: 2
Fore
SplineSet
562 686 m 1
 562 614 l 1
 445 464 321 267 321 55 c 0
 321 45 321 12 322 0 c 1
 154 0 l 1
 154 213 278 411 391 555 c 1
 66 555 l 1
 66 686 l 1
 562 686 l 1
EndSplineSet
Validated: 1
EndChar

StartChar: eight
Encoding: 220 56 220
Width: 612
Flags: MW
HStem: -10 110<276.5 335.5 276.5 385> 300 99<278 334 278 335.5> 586 110<278 334>
VStem: 51 149<163 192 192 208 163 230> 74 137<462.5 487 487 498 462.5 562.5> 401 137<487 498 498 522.5> 412 149<192 208 208 230 124 237>
LayerCount: 2
Fore
SplineSet
452 352 m 1xec
 452 348 l 1xec
 517 314 561 273 561 187 c 0
 561 61 464 -10 306 -10 c 0
 156 -10 51 61 51 187 c 0xf2
 51 273 95 315 160 348 c 1
 160 352 l 1
 111 385 74 420 74 500 c 0
 74 625 174 696 306 696 c 0
 438 696 538 625 538 500 c 0
 538 420 501 385 452 352 c 1xec
211 498 m 2
 211 487 l 2
 211 438 250 399 306 399 c 0
 362 399 401 438 401 487 c 2
 401 498 l 2
 401 547 362 586 306 586 c 0
 250 586 211 547 211 498 c 2
200 208 m 2xf2
 200 192 l 2
 200 134 247 100 306 100 c 0
 365 100 412 134 412 192 c 2
 412 208 l 2
 412 266 365 300 306 300 c 0
 247 300 200 266 200 208 c 2xf2
EndSplineSet
Validated: 1
EndChar

StartChar: nine
Encoding: 221 57 221
Width: 612
Flags: MW
HStem: -10 119<274.5 301 301 315> 251 103<273 298> 581 115<298 312 312 335>
VStem: 51 145<427 457 457 478 427 532.5> 65 138<187 216 187 216> 413 147<213 230 230 310 310 310>
LayerCount: 2
Fore
SplineSet
305 109 m 0xf4
 357 109 413 154 413 213 c 2
 413 310 l 1
 376 271 323 251 273 251 c 0
 150 251 51 331 51 460 c 0xf4
 51 605 160 696 298 696 c 2
 312 696 l 2
 449 696 560 598 560 454 c 2
 560 230 l 2
 560 94 451 -10 315 -10 c 2
 301 -10 l 2
 170 -10 65 71 65 216 c 1
 203 216 l 1xec
 203 158 244 109 305 109 c 0xf4
196 478 m 2
 196 457 l 2
 196 397 242 354 304 354 c 0
 363 354 413 397 413 457 c 2
 413 478 l 2
 413 538 366 581 304 581 c 0
 245 581 196 538 196 478 c 2
EndSplineSet
Validated: 1
EndChar

StartChar: fraction
Encoding: 222 8260 222
Width: 194
Flags: MW
HStem: 0 21G<-151 -151 -151 -77> 666 20G<269 340 340 340>
VStem: -151 491
LayerCount: 2
Fore
SplineSet
-151 0 m 1
 269 686 l 1
 340 686 l 1
 -77 0 l 1
 -151 0 l 1
EndSplineSet
Validated: 1
EndChar

StartChar: onehalf
Encoding: 223 189 223
Width: 765
Flags: MW
HStem: 0 70<551 722 551 722> 306 66<28 119 200 290 28 119> 316 67<585 593 593 598.5> 588 49<27 119 27 27> 665 20G<171 200 200 200> 666 20G<559 628 628 628>
VStem: 119 81<372 588 588 588> 449 75<255.5 261 247 278.5> 640 81<254.5 281>
LayerCount: 2
Fore
SplineSet
139 0 m 1xd6
 559 686 l 1
 628 686 l 1
 211 0 l 1
 139 0 l 1xd6
28 372 m 1
 119 372 l 1
 119 588 l 1
 27 588 l 1
 27 637 l 1
 70 640 126 661 171 685 c 1
 200 685 l 1xda80
 200 372 l 1
 290 372 l 1
 290 306 l 1
 28 306 l 1
 28 372 l 1
449 0 m 1
 449 16 l 2
 449 64 472 92 496 112 c 0
 528 144 568 171 604 199 c 0
 631 220 640 243 640 266 c 0
 640 296 615 316 582 316 c 0
 534 316 524 275 524 261 c 2
 524 247 l 1
 450 247 l 1
 449 251 449 254 449 257 c 0
 449 300 478 383 585 383 c 2
 593 383 l 2xb780
 679 383 721 326 721 268 c 0
 721 199 676 167 582 96 c 0
 576 92 557 78 551 70 c 1
 722 70 l 1
 722 0 l 1
 449 0 l 1
EndSplineSet
Validated: 1
Ligature2: "'frac' Diagonal Fractions lookup 2 subtable" one slash two
EndChar

StartChar: onequarter
Encoding: 224 188 224
Width: 745
Flags: MW
HStem: 0 153<586 586 664 664> 88 65<482 586 420 420 664 715> 306 66<28 119 200 290 28 119> 588 49<27 119 27 27> 665 20G<171 200 200 200> 666 20G<567 636 636 636>
VStem: 119 81<372 588 588 588> 586 78<0 88 0 88 153 235 235 235>
LayerCount: 2
Fore
SplineSet
147 0 m 1xb7
 567 686 l 1
 636 686 l 1
 219 0 l 1
 147 0 l 1xb7
28 372 m 1
 119 372 l 1
 119 588 l 1
 27 588 l 1
 27 637 l 1
 70 640 126 661 171 685 c 1
 200 685 l 1xbb
 200 372 l 1
 290 372 l 1
 290 306 l 1
 28 306 l 1
 28 372 l 1
586 153 m 1
 586 235 l 1
 605 264 622 307 629 336 c 1
 664 336 l 1
 664 153 l 1
 715 153 l 1xb7
 715 88 l 1
 664 88 l 1x77
 664 0 l 1
 586 0 l 1xb7
 586 88 l 1
 420 88 l 1
 420 153 l 1x77
 458 213 502 313 522 382 c 1
 599 382 l 1
 581 303 514 190 482 153 c 1
 586 153 l 1
EndSplineSet
Validated: 1
Ligature2: "'frac' Diagonal Fractions lookup 2 subtable" one slash four
EndChar

StartChar: threequarters
Encoding: 225 190 225
Width: 755
Flags: MW
HStem: 0 153<586 586 664 664> 88 65<482 586 420 420 664 715> 301 65<155.5 174 174 189> 469 59<134 173 134 179> 624 65<178 189 189 192.5> 666 20G<570 639 639 639>
VStem: 37 75<412 419 401.5 419> 47 74<575 586 586 591 575 616> 134 126<500 505 500 528 500 528> 235 81<566.5 593> 244 82<401.5 433 378 441.5> 586 78<0 88 0 88 153 235 235 235>
LayerCount: 2
Fore
SplineSet
37 419 m 1xba30
 112 419 l 1
 112 384 134 366 177 366 c 0
 220 366 244 384 244 419 c 0
 244 464 208 469 173 469 c 2xb630
 134 469 l 1
 134 528 l 1
 179 528 l 2
 210 528 235 544 235 577 c 0
 235 609 208 624 177 624 c 0
 147 624 121 607 121 575 c 1
 47 575 l 1
 47 586 l 2
 47 646 101 689 178 689 c 2
 189 689 l 2
 263 689 316 646 316 587 c 0xb950
 316 546 293 520 260 505 c 1
 260 500 l 1xba90
 300 487 326 457 326 409 c 0
 326 347 273 301 189 301 c 2
 174 301 l 2
 86 301 37 348 37 412 c 2
 37 419 l 1xba30
150 0 m 1
 570 686 l 1
 639 686 l 1
 222 0 l 1
 150 0 l 1
586 153 m 1
 586 235 l 1
 605 264 622 307 629 336 c 1
 664 336 l 1
 664 153 l 1
 715 153 l 1xba30
 715 88 l 1
 664 88 l 1x7a30
 664 0 l 1
 586 0 l 1xba30
 586 88 l 1
 420 88 l 1
 420 153 l 1x7a30
 458 213 502 313 522 382 c 1
 599 382 l 1
 581 303 514 190 482 153 c 1
 586 153 l 1
EndSplineSet
Validated: 1
Ligature2: "'frac' Diagonal Fractions lookup 2 subtable" three slash four
EndChar

StartChar: onesuperior
Encoding: 226 185 226
Width: 319
Flags: MW
HStem: 422 65<40 130 210 289 40 130> 700 48<40 130 40 40>
VStem: 130 80<487 700 700 700>
LayerCount: 2
Fore
SplineSet
40 487 m 1
 130 487 l 1
 130 700 l 1
 40 700 l 1
 40 748 l 1
 82 751 137 772 181 796 c 1
 210 796 l 1
 210 487 l 1
 289 487 l 1
 289 422 l 1
 40 422 l 1
 40 487 l 1
EndSplineSet
Validated: 1
EndChar

StartChar: twosuperior
Encoding: 227 178 227
Width: 505
Flags: MW
HStem: 419 70<144 315 144 315> 735 67<178 186 186 191.5>
VStem: 42 75<674.5 680 666 697.5> 233 81<673.5 700>
LayerCount: 2
Fore
SplineSet
42 419 m 1
 42 435 l 2
 42 483 65 511 89 531 c 0
 121 563 161 590 197 618 c 0
 224 639 233 662 233 685 c 0
 233 715 208 735 175 735 c 0
 127 735 117 694 117 680 c 2
 117 666 l 1
 43 666 l 1
 42 670 42 673 42 676 c 0
 42 719 71 802 178 802 c 2
 186 802 l 2
 272 802 314 745 314 687 c 0
 314 618 269 586 175 515 c 0
 169 511 150 497 144 489 c 1
 315 489 l 1
 315 419 l 1
 42 419 l 1
EndSplineSet
Validated: 1
EndChar

StartChar: threesuperior
Encoding: 228 179 228
Width: 506
Flags: MW
HStem: 412 65<154.5 173 173 188> 580 59<133 172 133 178> 735 65<177 188 188 191.5>
VStem: 36 75<523 530 512.5 530> 46 74<686 697 697 702 686 727> 133 126<611 616 611 639 611 639> 234 81<677.5 704> 243 82<512.5 544 489 552.5>
LayerCount: 2
Fore
SplineSet
36 530 m 1xf1
 111 530 l 1
 111 495 133 477 176 477 c 0
 219 477 243 495 243 530 c 0
 243 575 207 580 172 580 c 2xf1
 133 580 l 1
 133 639 l 1
 178 639 l 2
 209 639 234 655 234 688 c 0
 234 720 207 735 176 735 c 0
 146 735 120 718 120 686 c 1
 46 686 l 1
 46 697 l 2
 46 757 100 800 177 800 c 2
 188 800 l 2
 262 800 315 757 315 698 c 0xea
 315 657 292 631 259 616 c 1
 259 611 l 1xec
 299 598 325 568 325 520 c 0
 325 458 272 412 188 412 c 2
 173 412 l 2
 85 412 36 459 36 523 c 2
 36 530 l 1xf1
EndSplineSet
Validated: 1
EndChar

StartChar: asterisk
Encoding: 229 42 229
Width: 583
Flags: MW
HStem: 666 20G<242 341 341 341>
VStem: 248.5 85
LayerCount: 2
Fore
SplineSet
455 339 m 1
 373 279 l 1
 289 417 l 1
 207 280 l 1
 125 339 l 1
 230 458 l 1
 75 496 l 1
 107 589 l 1
 255 526 l 1
 242 686 l 1
 341 686 l 1
 326 526 l 1
 479 588 l 1
 508 494 l 1
 350 458 l 1
 455 339 l 1
EndSplineSet
Validated: 1
EndChar

StartChar: backslash
Encoding: 230 92 230
Width: 560
Flags: MW
HStem: 666 20G<-11 95 95 95>
VStem: -11 596
LayerCount: 2
Fore
SplineSet
95 686 m 1
 585 -171 l 1
 478 -171 l 1
 -11 686 l 1
 95 686 l 1
EndSplineSet
Validated: 1
EndChar

StartChar: periodcentered
Encoding: 231 183 231
Width: 277
Flags: MW
HStem: 214 148<65 211 65 211>
VStem: 65 146<214 362 214 362>
LayerCount: 2
Fore
SplineSet
211 362 m 1
 211 214 l 1
 65 214 l 1
 65 362 l 1
 211 362 l 1
EndSplineSet
Validated: 1
EndChar

StartChar: bullet
Encoding: 232 8226 232
Width: 544
Flags: MW
HStem: 181 324<226.5 315.5>
VStem: 111 321<298.5 388>
LayerCount: 2
Fore
SplineSet
432 343 m 0
 432 254 360 181 271 181 c 0
 182 181 111 254 111 343 c 0
 111 433 182 505 271 505 c 0
 360 505 432 433 432 343 c 0
EndSplineSet
Validated: 1
EndChar

StartChar: colon
Encoding: 233 58 233
Width: 277
Flags: MW
HStem: 0 147<65 211 65 211> 363 148<65 211 65 211>
VStem: 65 146<0 147 0 147 363 511>
LayerCount: 2
Fore
SplineSet
211 511 m 1
 211 363 l 1
 65 363 l 1
 65 511 l 1
 211 511 l 1
211 147 m 1
 211 0 l 1
 65 0 l 1
 65 147 l 1
 211 147 l 1
EndSplineSet
Validated: 1
EndChar

StartChar: comma
Encoding: 234 44 234
Width: 277
Flags: MW
HStem: 0 147<65 128 65 211>
VStem: 65 146<24 147 24 147 24 147>
LayerCount: 2
Fore
SplineSet
169 -144 m 1
 96 -144 l 1
 106 -96 117 -48 128 0 c 1
 65 0 l 1
 65 147 l 1
 211 147 l 1
 211 24 l 1
 169 -144 l 1
EndSplineSet
Validated: 1
EndChar

StartChar: ellipsis
Encoding: 235 8230 235
Width: 874
Flags: MW
HStem: 0 147<73 220 73 220 73 364 364 510 654 800>
VStem: 73 147<0 147 0 147> 364 146<0 147 0 147> 654 146<0 147 0 147>
LayerCount: 2
Fore
SplineSet
220 147 m 1
 220 0 l 1
 73 0 l 1
 73 147 l 1
 220 147 l 1
510 147 m 1
 510 0 l 1
 364 0 l 1
 364 147 l 1
 510 147 l 1
800 147 m 1
 800 0 l 1
 654 0 l 1
 654 147 l 1
 800 147 l 1
EndSplineSet
Validated: 1
EndChar

StartChar: exclam
Encoding: 236 33 236
Width: 290
Flags: MW
HStem: 0 147<72 218 72 218> 666 20G<56 233 233 233>
VStem: 72 146<0 147 0 147>
LayerCount: 2
Fore
SplineSet
233 686 m 1
 192 202 l 1
 95 202 l 1
 56 686 l 1
 233 686 l 1
218 147 m 1
 218 0 l 1
 72 0 l 1
 72 147 l 1
 218 147 l 1
EndSplineSet
Validated: 1
EndChar

StartChar: exclamdown
Encoding: 237 161 237
Width: 290
Flags: MW
HStem: 364 147<72 218 72 218>
VStem: 72 146<364 511 364 511>
LayerCount: 2
Fore
SplineSet
72 364 m 1
 72 511 l 1
 218 511 l 1
 218 364 l 1
 72 364 l 1
57 -175 m 1
 98 309 l 1
 195 309 l 1
 234 -175 l 1
 57 -175 l 1
EndSplineSet
Validated: 1
EndChar

StartChar: numbersign
Encoding: 238 35 238
Width: 600
Flags: MW
HStem: 0 21G<69 166 69 69 296 392 296 296> 172 92<3 107 3 128 3 334 3 203 452 562> 402 92<45 159 45 178 500 598> 676 20G<223 320 320 320 450 546 546 546>
VStem: 3 595<172 494 264 494>
LayerCount: 2
Fore
SplineSet
178 494 m 1
 223 696 l 1
 320 696 l 1
 275 494 l 1
 405 494 l 1
 450 696 l 1
 546 696 l 1
 531 628 516 561 500 494 c 1
 598 494 l 1
 598 402 l 1
 482 402 l 1
 452 264 l 1
 562 264 l 1
 562 172 l 1
 430 172 l 1
 418 115 405 57 392 0 c 1
 296 0 l 1
 309 57 322 115 334 172 c 1
 203 172 l 1
 166 0 l 1
 69 0 l 1
 107 172 l 1
 3 172 l 1
 3 264 l 1
 128 264 l 1
 159 402 l 1
 45 402 l 1
 45 494 l 1
 178 494 l 1
355 263 m 1
 386 401 l 1
 254 401 l 1
 224 263 l 1
 355 263 l 1
EndSplineSet
Validated: 1
EndChar

StartChar: period
Encoding: 239 46 239
Width: 277
Flags: MW
HStem: 0 147<65 211 65 211>
VStem: 65 146<0 147 0 147>
LayerCount: 2
Fore
SplineSet
211 147 m 1
 211 0 l 1
 65 0 l 1
 65 147 l 1
 211 147 l 1
EndSplineSet
Validated: 1
EndChar

StartChar: question
Encoding: 240 63 240
Width: 572
Flags: MW
HStem: 0 147<216 363 216 363> 582 114<274 296 296 306.5>
VStem: 38 143<480.5 502.5 478.5 540.5> 216 147<0 147 0 147> 222 136<201 233 201 259 201 308.5> 365 156<440 518>
LayerCount: 2
Fore
SplineSet
222 201 m 1xc8
 222 259 l 2xc8
 222 358 365 387 365 493 c 0
 365 543 338 582 275 582 c 0
 196 582 181 521 181 484 c 0
 181 473 182 452 182 452 c 1
 41 452 l 1
 40 461 38 472 38 489 c 0
 38 592 130 696 274 696 c 2
 296 696 l 2xe4
 442 696 521 599 521 491 c 0
 521 325 358 307 358 233 c 2
 358 201 l 1
 222 201 l 1xc8
363 147 m 1xd0
 363 0 l 1
 216 0 l 1
 216 147 l 1
 363 147 l 1xd0
EndSplineSet
Validated: 1
EndChar

StartChar: questiondown
Encoding: 241 191 241
Width: 572
Flags: MW
HStem: -185 114<264.5 275 275 297> 364 147<208 355 208 355>
VStem: 50 156<-7 71 -7 103> 208 147<364 511 364 511> 213 136<278 310 202.5 310> 390 143<8.5 30.5 -29.5 32.5>
LayerCount: 2
Fore
SplineSet
208 364 m 1xd0
 208 511 l 1
 355 511 l 1
 355 364 l 1
 208 364 l 1xd0
349 310 m 1xc8
 349 252 l 2xc8
 349 153 206 124 206 18 c 0
 206 -32 233 -71 296 -71 c 0
 375 -71 390 -10 390 27 c 0
 390 38 389 59 389 59 c 1
 530 59 l 1
 531 50 533 39 533 22 c 0
 533 -81 441 -185 297 -185 c 2
 275 -185 l 2xe4
 129 -185 50 -88 50 20 c 0
 50 186 213 204 213 278 c 2
 213 310 l 1
 349 310 l 1xc8
EndSplineSet
Validated: 1
EndChar

StartChar: quotedbl
Encoding: 242 34 242
Width: 461
Flags: MW
HStem: 401 285<116 166 116 116 294 294 294 344>
VStem: 82 118<539 686 539 686> 260 119<539 686 539 686>
LayerCount: 2
Fore
SplineSet
166 401 m 1
 116 401 l 1
 104 447 94 492 82 539 c 1
 82 686 l 1
 200 686 l 1
 200 539 l 1
 189 492 178 447 166 401 c 1
344 401 m 1
 294 401 l 1
 283 447 272 492 260 539 c 1
 260 686 l 1
 379 686 l 1
 379 539 l 1
 367 492 355 447 344 401 c 1
EndSplineSet
Validated: 1
EndChar

StartChar: quotesingle
Encoding: 243 39 243
Width: 272
Flags: MW
HStem: 666 20G<76 195 195 195>
VStem: 76 119<539 686 539 686>
LayerCount: 2
Fore
SplineSet
160 401 m 1
 110 401 l 1
 99 447 88 492 76 539 c 1
 76 686 l 1
 195 686 l 1
 195 539 l 1
 183 492 172 447 160 401 c 1
EndSplineSet
Validated: 1
EndChar

StartChar: semicolon
Encoding: 244 59 244
Width: 277
Flags: MW
HStem: 0 147<65 128 65 211> 363 148<65 211 65 211>
VStem: 65 146<24 147 24 147 24 147 363 511>
LayerCount: 2
Fore
SplineSet
211 511 m 1
 211 363 l 1
 65 363 l 1
 65 511 l 1
 211 511 l 1
169 -144 m 1
 96 -144 l 1
 106 -96 117 -48 128 0 c 1
 65 0 l 1
 65 147 l 1
 211 147 l 1
 211 24 l 1
 169 -144 l 1
EndSplineSet
Validated: 1
EndChar

StartChar: slash
Encoding: 245 47 245
Width: 564
Flags: MW
HStem: 666 20G<465 570 570 570>
VStem: -25 595
LayerCount: 2
Fore
SplineSet
-25 -171 m 1
 465 686 l 1
 570 686 l 1
 81 -171 l 1
 -25 -171 l 1
EndSplineSet
Validated: 1
EndChar

StartChar: underscore
Encoding: 246 95 246
Width: 500
Flags: MW
HStem: -126 61<0 500 0 500>
VStem: 0 500<-126 -65 -126 -65>
LayerCount: 2
Fore
SplineSet
0 -65 m 1
 500 -65 l 1
 500 -126 l 1
 0 -126 l 1
 0 -65 l 1
EndSplineSet
Validated: 1
EndChar

StartChar: braceleft
Encoding: 247 123 247
Width: 347
Flags: MW
HStem: -159 59<283.5 307 283.5 307> 224 79<40 57.5> 627 59<283.5 307>
VStem: 40 86<259 268 259 303 259 303> 117 107.5
LayerCount: 2
Fore
SplineSet
40 224 m 1xf0
 40 303 l 1
 75 303 117 319 117 360 c 2
 117 560 l 2
 117 678 226 686 307 686 c 1
 307 627 l 1
 260 627 231 618 228 545 c 2
 221 371 l 2xe8
 218 306 192 268 126 268 c 1
 126 259 l 1xf0
 192 259 218 221 221 156 c 2
 228 -18 l 2
 231 -91 260 -100 307 -100 c 1
 307 -159 l 1
 226 -159 117 -152 117 -33 c 2
 117 168 l 2xe8
 117 206 75 224 40 224 c 1xf0
EndSplineSet
Validated: 1
EndChar

StartChar: braceright
Encoding: 248 125 248
Width: 347
Flags: MW
HStem: -159 59<39 62.5 39 79.5> 224 79<288.5 306> 627 59<39 62.5>
VStem: 121.5 107.5 220 86<259 268 268 268>
LayerCount: 2
Fore
SplineSet
306 303 m 1xe8
 306 224 l 1
 271 224 229 206 229 168 c 2
 229 -33 l 2
 229 -152 120 -159 39 -159 c 1
 39 -100 l 1
 86 -100 115 -91 118 -18 c 2
 125 156 l 2xf0
 128 221 154 259 220 259 c 1
 220 268 l 1xe8
 154 268 128 306 125 371 c 2
 118 545 l 2
 115 618 86 627 39 627 c 1
 39 686 l 1
 120 686 229 678 229 560 c 2
 229 360 l 2xf0
 229 319 271 303 306 303 c 1xe8
EndSplineSet
Validated: 1
EndChar

StartChar: bracketleft
Encoding: 249 91 249
Width: 338
Flags: MW
HStem: -161 69<177 265 177 265> 617 69<177 265 177 177>
VStem: 62 115<-92 617 -92 686 -92 686>
LayerCount: 2
Fore
SplineSet
62 686 m 1
 265 686 l 1
 265 617 l 1
 177 617 l 1
 177 -92 l 1
 265 -92 l 1
 265 -161 l 1
 62 -161 l 1
 62 686 l 1
EndSplineSet
Validated: 1
EndChar

StartChar: bracketright
Encoding: 250 93 250
Width: 338
Flags: MW
HStem: -161 69<71 159 71 274 71 159> 617 69<71 159 71 274>
VStem: 159 115<-92 617 617 617>
LayerCount: 2
Fore
SplineSet
71 -92 m 1
 159 -92 l 1
 159 617 l 1
 71 617 l 1
 71 686 l 1
 274 686 l 1
 274 -161 l 1
 71 -161 l 1
 71 -92 l 1
EndSplineSet
Validated: 1
EndChar

StartChar: parenleft
Encoding: 251 40 251
Width: 326
Flags: MW
HStem: 666 20G<195 275 275 275>
VStem: 36 119<194 335.5 194 341.5>
LayerCount: 2
Fore
SplineSet
36 264 m 0
 36 419 93 570 195 686 c 1
 275 686 l 1
 205 570 155 406 155 265 c 0
 155 123 205 -42 275 -157 c 1
 195 -157 l 1
 93 -41 36 109 36 264 c 0
EndSplineSet
Validated: 1
EndChar

StartChar: parenright
Encoding: 252 41 252
Width: 326
Flags: MW
HStem: 666 20G<46 126 126 126>
VStem: 165 120<194 335.5>
LayerCount: 2
Fore
SplineSet
285 264 m 0
 285 109 228 -42 126 -158 c 1
 46 -158 l 1
 115 -43 165 123 165 265 c 0
 165 406 115 570 46 686 c 1
 126 686 l 1
 228 570 285 419 285 264 c 0
EndSplineSet
Validated: 1
EndChar

StartChar: emdash
Encoding: 253 8212 253
Width: 911
Flags: MW
HStem: 209 126<0 910 0 910>
VStem: 0 910<209 335 209 335>
LayerCount: 2
Fore
SplineSet
0 335 m 1
 910 335 l 1
 910 209 l 1
 0 209 l 1
 0 335 l 1
EndSplineSet
Validated: 1
EndChar

StartChar: endash
Encoding: 254 8211 254
Width: 500
Flags: MW
HStem: 209 127<0 500 0 500>
VStem: 0 500<209 336 209 336>
LayerCount: 2
Fore
SplineSet
0 336 m 1
 500 336 l 1
 500 209 l 1
 0 209 l 1
 0 336 l 1
EndSplineSet
Validated: 1
EndChar

StartChar: hyphen
Encoding: 255 45 255
Width: 260
Flags: MW
HStem: 208 128<0 253 0 253>
VStem: 0 253<208 336 208 336>
LayerCount: 2
Fore
SplineSet
253 336 m 1
 253 208 l 1
 0 208 l 1
 0 336 l 1
 253 336 l 1
EndSplineSet
Validated: 1
EndChar

StartChar: softhyphen
Encoding: 256 173 256
Width: 260
Flags: MW
HStem: 208 128<0 253 0 253>
VStem: 0 253<208 336 208 336>
LayerCount: 2
Fore
SplineSet
253 336 m 1
 253 208 l 1
 0 208 l 1
 0 336 l 1
 253 336 l 1
EndSplineSet
Validated: 1
EndChar

StartChar: guillemetleft
Encoding: 257 171 257
Width: 459
Flags: MW
HStem: 491 20G<168 230 230 230 350 412 412 412>
VStem: 47 365<163 337>
LayerCount: 2
Fore
SplineSet
47 337 m 1
 168 511 l 1
 230 511 l 1
 141 337 l 1
 230 163 l 1
 168 163 l 1
 47 337 l 1
228 337 m 1
 350 511 l 1
 412 511 l 1
 323 337 l 1
 412 163 l 1
 350 163 l 1
 228 337 l 1
EndSplineSet
Validated: 1
EndChar

StartChar: guillemetright
Encoding: 258 187 258
Width: 459
Flags: MW
HStem: 491 20G<47 109 109 109 229 291 291 291>
VStem: 47 365<163 337 337 511>
LayerCount: 2
Fore
SplineSet
136 337 m 1
 47 511 l 1
 109 511 l 1
 231 337 l 1
 109 163 l 1
 47 163 l 1
 136 337 l 1
318 337 m 1
 229 511 l 1
 291 511 l 1
 412 337 l 1
 291 163 l 1
 229 163 l 1
 318 337 l 1
EndSplineSet
Validated: 1
EndChar

StartChar: guilsinglleft
Encoding: 259 8249 259
Width: 277
Flags: MW
HStem: 491 20G<168 230 230 230>
VStem: 47 183<163 337>
LayerCount: 2
Fore
SplineSet
47 337 m 1
 168 511 l 1
 230 511 l 1
 141 337 l 1
 230 163 l 1
 168 163 l 1
 47 337 l 1
EndSplineSet
Validated: 1
EndChar

StartChar: guilsinglright
Encoding: 260 8250 260
Width: 277
Flags: MW
HStem: 491 20G<47 109 109 109>
VStem: 47 183<163 337 337 511>
LayerCount: 2
Fore
SplineSet
136 337 m 1
 47 511 l 1
 109 511 l 1
 230 337 l 1
 109 163 l 1
 47 163 l 1
 136 337 l 1
EndSplineSet
Validated: 1
EndChar

StartChar: quotedblbase
Encoding: 261 8222 261
Width: 472
Flags: MW
HStem: 0 147<65 128 65 211 65 260 260 323>
VStem: 65 146<24 147 24 147 24 147> 260 146<24 147 24 147 24 147>
LayerCount: 2
Fore
SplineSet
169 -144 m 1
 96 -144 l 1
 106 -96 117 -48 128 0 c 1
 65 0 l 1
 65 147 l 1
 211 147 l 1
 211 24 l 1
 169 -144 l 1
364 -144 m 1
 291 -144 l 1
 301 -96 312 -48 323 0 c 1
 260 0 l 1
 260 147 l 1
 406 147 l 1
 406 24 l 1
 364 -144 l 1
EndSplineSet
Validated: 1
EndChar

StartChar: quotedblleft
Encoding: 262 8220 262
Width: 472
Flags: MW
HStem: 395 147<148 211 148 211 65 211 148 260 343 406> 666 20G<107 180 180 180 302 375 375 375>
VStem: 65 146<395 518 518 518> 260 146<395 518 518 518>
LayerCount: 2
Fore
SplineSet
107 686 m 1
 180 686 l 1
 170 638 159 590 148 542 c 1
 211 542 l 1
 211 395 l 1
 65 395 l 1
 65 518 l 1
 107 686 l 1
302 686 m 1
 375 686 l 1
 365 638 354 590 343 542 c 1
 406 542 l 1
 406 395 l 1
 260 395 l 1
 260 518 l 1
 302 686 l 1
EndSplineSet
Validated: 1
EndChar

StartChar: quotedblright
Encoding: 263 8221 263
Width: 472
Flags: MW
HStem: 539 147<65 128 65 211 65 260 260 323>
VStem: 65 146<563 686 563 686 563 686> 260 146<563 686 563 686 563 686>
LayerCount: 2
Fore
SplineSet
169 395 m 1
 96 395 l 1
 106 443 117 491 128 539 c 1
 65 539 l 1
 65 686 l 1
 211 686 l 1
 211 563 l 1
 169 395 l 1
364 395 m 1
 291 395 l 1
 301 443 312 491 323 539 c 1
 260 539 l 1
 260 686 l 1
 406 686 l 1
 406 563 l 1
 364 395 l 1
EndSplineSet
Validated: 1
EndChar

StartChar: quoteleft
Encoding: 264 8216 264
Width: 277
Flags: MW
HStem: 395 147<148 211 148 211 65 211> 666 20G<107 180 180 180>
VStem: 65 146<395 518 518 518>
LayerCount: 2
Fore
SplineSet
107 686 m 1
 180 686 l 1
 170 638 159 590 148 542 c 1
 211 542 l 1
 211 395 l 1
 65 395 l 1
 65 518 l 1
 107 686 l 1
EndSplineSet
Validated: 1
EndChar

StartChar: quoteright
Encoding: 265 8217 265
Width: 277
Flags: MW
HStem: 539 147<65 128 65 211>
VStem: 65 146<563 686 563 686 563 686>
LayerCount: 2
Fore
SplineSet
169 395 m 1
 96 395 l 1
 106 443 117 491 128 539 c 1
 65 539 l 1
 65 686 l 1
 211 686 l 1
 211 563 l 1
 169 395 l 1
EndSplineSet
Validated: 1
EndChar

StartChar: quotesinglbase
Encoding: 266 8218 266
Width: 277
Flags: MW
HStem: 0 147<65 128 65 211>
VStem: 65 146<24 147 24 147 24 147>
LayerCount: 2
Fore
SplineSet
169 -144 m 1
 96 -144 l 1
 106 -96 117 -48 128 0 c 1
 65 0 l 1
 65 147 l 1
 211 147 l 1
 211 24 l 1
 169 -144 l 1
EndSplineSet
Validated: 1
EndChar

StartChar: cent
Encoding: 269 162 269
Width: 571
Flags: MW
HStem: -8 184<258.5 319 258.5 343 242 319> 77 99<254 319 258.5 331> 507 98<254 321> 507 186<259 321> 605 88<254 254 330 330>
VStem: 45 148<327 356 356 382 260.5 428.5> 388 138<251 289>
LayerCount: 2
Fore
SplineSet
193 382 m 2x96
 193 293 l 2
 193 228 228 176 289 176 c 0x96
 349 176 388 213 388 289 c 1
 526 289 l 1
 526 152 435 86 331 77 c 1x56
 343 -8 l 1
 242 -8 l 1
 254 77 l 1
 126 91 45 181 45 327 c 2
 45 356 l 2
 45 501 131 591 254 605 c 1x8e
 242 693 l 1
 343 693 l 1x96
 330 605 l 1xa6
 435 595 526 520 526 393 c 1
 381 393 l 1
 381 459 352 507 290 507 c 0
 228 507 193 451 193 382 c 2x96
EndSplineSet
Validated: 1
EndChar

StartChar: currency
Encoding: 270 164 270
Width: 663
Flags: MW
HStem: 90 89<302 358.5> 496 90<303 358.5 303 374>
VStem: 82 95<309.5 365.5> 484 94<310.5 365.5 310.5 381>
LayerCount: 2
Fore
SplineSet
82 338 m 0
 82 393 99 447 130 483 c 1
 76 538 l 1
 131 593 l 1
 185 539 l 1
 221 567 276 586 330 586 c 0
 387 586 440 567 474 539 c 1
 530 595 l 1
 549 575 568 556 588 537 c 1
 533 482 l 1
 561 447 578 393 578 338 c 0
 578 283 561 230 531 192 c 1
 549 173 568 155 586 137 c 1
 532 83 l 1
 514 101 494 120 476 139 c 1
 440 108 387 90 330 90 c 0
 274 90 222 107 185 137 c 1
 166 119 148 101 130 82 c 1
 75 137 l 1
 131 192 l 1
 100 230 82 281 82 338 c 0
177 338 m 0
 177 250 244 179 330 179 c 0
 418 179 484 251 484 338 c 0
 484 424 418 496 330 496 c 0
 244 496 177 425 177 338 c 0
EndSplineSet
Validated: 1
EndChar

StartChar: dollar
Encoding: 271 36 271
Width: 586
Flags: MW
HStem: -66 203<246 329 246 337 236 329> 560 198<265 329.5>
VStem: 35 135<195 219.5> 50 143<440 517 440 541> 399 134<476 485 485 487 476 507> 402 145<187.5 266.5>
LayerCount: 2
Fore
SplineSet
399 476 m 1xd8
 399 485 l 2xd8
 399 529 361 560 298 560 c 0
 232 560 193 534 193 500 c 0xd4
 193 380 547 460 547 228 c 0
 547 89 455 28 324 20 c 1
 328 -8 332 -37 337 -66 c 1
 236 -66 l 1
 249 21 l 1
 131 31 35 89 35 216 c 0
 35 223 36 236 36 236 c 1
 171 236 l 2
 171 234 170 226 170 221 c 0xe4
 170 169 209 137 283 137 c 0
 375 137 402 170 402 205 c 0xd4
 402 328 50 242 50 485 c 0
 50 597 136 658 249 671 c 1
 245 700 241 729 236 758 c 1
 337 758 l 1
 332 729 328 701 324 672 c 1
 441 664 533 607 533 487 c 2
 533 476 l 1
 399 476 l 1xd8
EndSplineSet
Validated: 1
EndChar

StartChar: euro
Encoding: 272 8364 272
Width: 582
Flags: MW
HStem: -8 126<426.5 462.5> 231 79<30 114 30 125 30 114 281 445 281 281> 371 78<30 114 30 125 278 445> 567 125<415 448.5 362.5 468>
VStem: 114 147<310 371 310 371>
LayerCount: 2
Fore
SplineSet
30 449 m 1
 125 449 l 1
 164 620 298 692 427 692 c 0
 470 692 509 686 540 679 c 1
 540 554 l 1
 518 560 485 567 451 567 c 0
 379 567 309 530 278 449 c 1
 445 449 l 1
 445 371 l 1
 261 371 l 1
 260 362 260 351 260 342 c 0
 260 330 260 320 261 310 c 1
 445 310 l 1
 445 231 l 1
 281 231 l 1
 316 150 390 118 463 118 c 0
 491 118 518 127 540 137 c 1
 540 8 l 1
 512 0 480 -8 445 -8 c 0
 316 -8 169 45 125 231 c 1
 30 231 l 1
 30 310 l 1
 114 310 l 1
 114 371 l 1
 30 371 l 1
 30 449 l 1
EndSplineSet
Validated: 1
EndChar

StartChar: florin
Encoding: 273 402 273
Width: 381
Flags: MW
HStem: -184 20 -184 98<-15.5 72.5> 402 109<72 119 57 133 279 384> 630 98<272 360.5>
VStem: -81 506
LayerCount: 2
Fore
SplineSet
425 707 m 1xb8
 413 618 l 1
 399 623 368 630 353 630 c 0
 326 630 295 625 287 569 c 2
 279 511 l 1
 399 511 l 1
 384 402 l 1
 264 402 l 1
 200 -46 l 2
 186 -144 118 -184 27 -184 c 0
 -5 -184 -56 -177 -81 -164 c 1xb8
 -69 -74 l 1
 -54 -80 -23 -86 -8 -86 c 0
 18 -86 49 -82 57 -25 c 2x78
 119 402 l 1
 57 402 l 1
 72 511 l 1
 133 511 l 1
 144 589 l 2
 158 688 226 728 318 728 c 0
 349 728 400 720 425 707 c 1xb8
EndSplineSet
Validated: 1
EndChar

StartChar: sterling
Encoding: 274 163 274
Width: 654
Flags: MW
HStem: 0 118<39 116 245 538 39 116> 279 118<6 116 6 116 264 406> 579 119<323.5 370.5>
VStem: 116 148<118 279 279 279 397 476 476 499> 429 149<478 496 478 499 478 520>
LayerCount: 2
Fore
SplineSet
116 397 m 1
 116 476 l 2
 116 613 209 698 348 698 c 0
 477 698 578 621 578 496 c 2
 578 478 l 1
 429 478 l 1
 429 499 l 2
 429 541 393 579 348 579 c 0
 299 579 264 546 264 499 c 2
 264 397 l 1
 406 397 l 1
 406 279 l 1
 264 279 l 1
 245 118 l 1
 538 118 l 1
 538 0 l 1
 39 0 l 1
 39 118 l 1
 116 118 l 1
 116 279 l 1
 6 279 l 1
 6 397 l 1
 116 397 l 1
EndSplineSet
Validated: 1
EndChar

StartChar: yen
Encoding: 275 165 275
Width: 642
Flags: MW
HStem: 0 21G<245 398 245 245> 231 79<49 219 49 245 49 219 424 598> 370 78<49 142 49 185 49 142 500 598> 666 20G<10 184 184 184 474 632 632 632>
VStem: 245 153<0 231 0 231>
LayerCount: 2
Fore
SplineSet
142 448 m 1
 10 686 l 1
 184 686 l 1
 231 595 279 504 327 414 c 1
 331 414 l 1
 379 504 427 595 474 686 c 1
 632 686 l 1
 500 448 l 1
 598 448 l 1
 598 370 l 1
 457 370 l 1
 424 310 l 1
 598 310 l 1
 598 231 l 1
 398 231 l 1
 398 0 l 1
 245 0 l 1
 245 231 l 1
 49 231 l 1
 49 310 l 1
 219 310 l 1
 208 330 197 350 185 370 c 1
 49 370 l 1
 49 448 l 1
 142 448 l 1
EndSplineSet
Validated: 1
EndChar

StartChar: Ohm
Encoding: 276 8486 276
Width: 724
Flags: MW
HStem: 0 111 0 126<36 59 36 321 36 59 664 687> 574 120<344 380 380 410.5>
VStem: 56 165<347 381 229 382 229 482> 403 284<0 67 67 67> 504 164<292.5 343 343 381 381 382 292.5 445.5>
LayerCount: 2
Fore
SplineSet
668 382 m 2x74
 668 343 l 2x74
 668 242 628 167 566 111 c 1xb8
 599 116 631 120 664 126 c 1
 687 126 l 1
 687 0 l 1
 403 0 l 1x78
 403 67 l 1
 489 91 504 166 504 289 c 2
 504 381 l 2
 504 510 459 574 362 574 c 0
 257 574 221 505 221 381 c 2
 221 289 l 2
 221 169 235 91 321 67 c 1
 321 0 l 1
 36 0 l 1
 36 126 l 1
 59 126 l 1x74
 91 121 121 116 158 111 c 1xb4
 95 167 56 243 56 347 c 2
 56 382 l 2
 56 582 185 694 344 694 c 2
 380 694 l 2
 539 694 668 582 668 382 c 2x74
EndSplineSet
Validated: 1
EndChar

StartChar: approxequal
Encoding: 277 8776 277
Width: 714
Flags: MW
HStem: 65 105<433.5 523.5> 131 105<190.5 280.5 190.5 282> 280 105<433.5 523.5> 346 105<190.5 280.5 190.5 282>
VStem: 75 564<143 158 158 158 358 373 373 373>
LayerCount: 2
Fore
SplineSet
639 463 m 1x68
 639 358 l 1
 639 358 571 280 476 280 c 0xa8
 391 280 326 346 238 346 c 0
 143 346 75 268 75 268 c 1
 75 373 l 1
 75 373 143 451 238 451 c 0x58
 323 451 388 385 476 385 c 0
 571 385 639 463 639 463 c 1x68
639 248 m 1
 639 143 l 1
 639 143 571 65 476 65 c 0x98
 391 65 326 131 238 131 c 0
 143 131 75 53 75 53 c 1
 75 158 l 1
 75 158 143 236 238 236 c 0x58
 323 236 388 170 476 170 c 0
 571 170 639 248 639 248 c 1
EndSplineSet
Validated: 1
EndChar

StartChar: asciitilde
Encoding: 278 126 278
Width: 714
Flags: MW
HStem: 212 106<433.5 523.5> 278 106<190.5 280.5 190.5 282>
VStem: 75 564<290 306 306 306>
LayerCount: 2
Fore
SplineSet
639 396 m 1xa0
 639 290 l 1
 639 290 571 212 476 212 c 0xa0
 391 212 326 278 238 278 c 0
 143 278 75 200 75 200 c 1
 75 306 l 1
 75 306 143 384 238 384 c 0x60
 323 384 388 318 476 318 c 0
 571 318 639 396 639 396 c 1xa0
EndSplineSet
Validated: 1
EndChar

StartChar: bulletoperator
Encoding: 279 8729 279
Width: 277
Flags: MW
HStem: 214 148<65 211 65 211>
VStem: 65 146<214 362 214 362>
LayerCount: 2
Fore
SplineSet
211 362 m 1
 211 214 l 1
 65 214 l 1
 65 362 l 1
 211 362 l 1
EndSplineSet
Validated: 1
EndChar

StartChar: divide
Encoding: 280 247 280
Width: 600
Flags: MW
HStem: 34 108<248 353 248 353> 203 106<44 556 44 556> 369 109<248 353 248 353>
VStem: 248 105<34 142 34 142 369 478>
LayerCount: 2
Fore
SplineSet
353 478 m 1
 353 369 l 1
 248 369 l 1
 248 478 l 1
 353 478 l 1
44 309 m 1
 556 309 l 1
 556 203 l 1
 44 203 l 1
 44 309 l 1
353 142 m 1
 353 34 l 1
 248 34 l 1
 248 142 l 1
 353 142 l 1
EndSplineSet
Validated: 1
EndChar

StartChar: divisionslash
Encoding: 281 8725 281
Width: 194
Flags: MW
HStem: 0 21G<-151 -151 -151 -77> 666 20G<269 340 340 340>
VStem: -151 491
LayerCount: 2
Fore
SplineSet
-151 0 m 1
 269 686 l 1
 340 686 l 1
 -77 0 l 1
 -151 0 l 1
EndSplineSet
Validated: 1
EndChar

StartChar: equal
Encoding: 282 61 282
Width: 600
Flags: MW
HStem: 93 106<46 554 46 554> 309 106<46 554 46 554>
VStem: 46 508<93 199 93 199 309 415 93 415>
LayerCount: 2
Fore
SplineSet
46 415 m 1
 554 415 l 1
 554 309 l 1
 46 309 l 1
 46 415 l 1
46 199 m 1
 554 199 l 1
 554 93 l 1
 46 93 l 1
 46 199 l 1
EndSplineSet
Validated: 1
EndChar

StartChar: greater
Encoding: 283 62 283
Width: 600
Flags: MW
HStem: -3 21G<45 45> 492 20G<45 45>
VStem: 45 509<-3 315 110 315 192 512 192 512>
LayerCount: 2
Fore
SplineSet
554 315 m 1
 554 192 l 1
 384 127 215 61 45 -3 c 1
 45 110 l 1
 433 254 l 1
 303 302 174 349 45 398 c 1
 45 512 l 1
 554 315 l 1
EndSplineSet
Validated: 1
EndChar

StartChar: greaterequal
Encoding: 284 8805 284
Width: 600
Flags: MW
HStem: 0 105<45 555 45 555> 500 20G<45 45>
VStem: 45 510<0 105 0 105 0 240 0 240 0 520 0 520>
LayerCount: 2
Fore
SplineSet
45 126 m 1
 45 240 l 1
 174 267 303 294 433 322 c 1
 303 350 174 377 45 405 c 1
 45 520 l 1
 554 384 l 1
 554 261 l 1
 45 126 l 1
45 0 m 1
 45 105 l 1
 555 105 l 1
 555 0 l 1
 45 0 l 1
EndSplineSet
Validated: 1
EndChar

StartChar: increment
Encoding: 285 8710 285
Width: 700
Flags: MW
HStem: 0 92<177 523 177 639> 561 125<350 350> 666 20G<289 410 410 410>
VStem: 61 578<0 79 0 79>
LayerCount: 2
Fore
SplineSet
289 686 m 1xb0
 410 686 l 1
 639 79 l 1
 639 0 l 1
 61 0 l 1
 61 79 l 1
 289 686 l 1xb0
523 92 m 1
 350 561 l 1xd0
 177 92 l 1
 523 92 l 1
EndSplineSet
Validated: 1
EndChar

StartChar: infinity
Encoding: 286 8734 286
Width: 812
Flags: MW
HStem: 102 81<196 251.5 196 255.5 570.5 622> 382 80<194 248.5 561 616.5>
VStem: 47 82<254 311 254 334> 681 83<258 310>
LayerCount: 2
Fore
SplineSet
764 287 m 0
 764 170 680 102 592 102 c 0
 537 102 474 123 404 216 c 1
 351 152 297 102 214 102 c 0
 126 102 47 173 47 280 c 0
 47 388 123 462 223 462 c 0
 302 462 359 418 411 350 c 1
 455 396 503 462 595 462 c 0
 689 462 764 391 764 287 c 0
223 183 m 0
 280 183 328 234 361 276 c 1
 349 294 l 2
 315 345 277 382 220 382 c 0
 168 382 129 342 129 280 c 0
 129 228 169 183 223 183 c 0
589 382 m 0
 533 382 482 321 452 283 c 1
 513 205 547 183 594 183 c 0
 650 183 681 236 681 280 c 0
 681 340 644 382 589 382 c 0
EndSplineSet
Validated: 1
EndChar

StartChar: integral
Encoding: 287 8747 287
Width: 355
Flags: MW
HStem: -250 59<56 70 56 93.5> 692 58<290 304>
VStem: 114 131
LayerCount: 2
Fore
SplineSet
114 638 m 0
 114 744 230 750 304 750 c 1
 304 692 l 1
 276 692 218 684 218 643 c 2
 218 643 245 17 245 -138 c 0
 245 -244 131 -250 56 -250 c 1
 56 -191 l 1
 84 -191 141 -183 141 -141 c 2
 141 -141 114 483 114 638 c 0
EndSplineSet
Validated: 1
EndChar

StartChar: less
Encoding: 288 60 288
Width: 599
Flags: MW
HStem: -3 21G<554 554> 492 20G<554 554>
VStem: 45 509<-3 315 -3 315>
LayerCount: 2
Fore
SplineSet
554 512 m 1
 554 398 l 1
 165 254 l 1
 554 110 l 1
 554 -3 l 1
 384 61 215 127 45 192 c 1
 45 315 l 1
 554 512 l 1
EndSplineSet
Validated: 1
EndChar

StartChar: lessequal
Encoding: 289 8804 289
Width: 600
Flags: MW
HStem: 0 105<45 555 45 555> 500 20G<555 555>
VStem: 45 510<0 105 0 105>
LayerCount: 2
Fore
SplineSet
555 520 m 1
 555 405 l 1
 167 322 l 1
 296 294 426 267 555 240 c 1
 555 126 l 1
 46 261 l 1
 46 384 l 1
 555 520 l 1
555 105 m 1
 555 0 l 1
 45 0 l 1
 45 105 l 1
 555 105 l 1
EndSplineSet
Validated: 1
EndChar

StartChar: logicalnot
Encoding: 290 172 290
Width: 600
Flags: MW
HStem: 347 121<35 447 35 564>
VStem: 447 117<166 347 347 347>
LayerCount: 2
Fore
SplineSet
447 166 m 1
 447 347 l 1
 35 347 l 1
 35 468 l 1
 564 468 l 1
 564 166 l 1
 447 166 l 1
EndSplineSet
Validated: 1
EndChar

StartChar: micro
Encoding: 291 181 291
Width: 610
Flags: MW
HStem: -10 100<478 567.5> -10 106<266.5 279> -3 21G 491 20G<64 210 210 210 385 531 531 531>
VStem: 64 146<-161 -57 160 186 186 511> 385 146<197 511>
LayerCount: 2
Fore
SplineSet
531 511 m 1x3c
 531 120 l 2
 531 98 547 90 560 90 c 0
 575 90 595 98 601 101 c 1x9c
 601 11 l 1
 594 7 563 -10 513 -10 c 0
 443 -10 407 18 397 63 c 1
 364 25 315 -10 243 -10 c 0x5c
 229 -10 214 -8 201 -3 c 1
 205 -16 210 -35 210 -57 c 2x3c
 210 -161 l 1
 64 -161 l 1
 64 511 l 1
 210 511 l 1
 210 186 l 2
 210 134 243 96 290 96 c 0x5c
 341 96 385 140 385 197 c 2
 385 511 l 1
 531 511 l 1x3c
EndSplineSet
Validated: 1
EndChar

StartChar: minus
Encoding: 292 8722 292
Width: 625
Flags: MW
HStem: 217 120<56 568 56 568>
VStem: 56 512<217 337 217 337>
LayerCount: 2
Fore
SplineSet
568 337 m 1
 568 217 l 1
 56 217 l 1
 56 337 l 1
 568 337 l 1
EndSplineSet
Validated: 1
EndChar

StartChar: multiply
Encoding: 293 215 293
Width: 600
Flags: MW
HStem: 37 437<155 155>
VStem: 82 435<112 112 112 399>
LayerCount: 2
Fore
SplineSet
300 330 m 1
 444 474 l 1
 469 449 493 424 517 399 c 1
 373 255 l 1
 517 112 l 1
 492 87 468 62 444 37 c 1
 396 85 347 132 300 180 c 1
 155 37 l 1
 131 62 107 87 82 112 c 1
 226 255 l 1
 82 399 l 1
 107 424 131 449 155 474 c 1
 300 330 l 1
EndSplineSet
Validated: 1
EndChar

StartChar: notequal
Encoding: 294 8800 294
Width: 600
Flags: MW
HStem: 0 199<79 175 79 79> 93 106<46 143 46 214 309 553 46 240> 309 106<46 291 46 361 455 553 46 386> 309 202<46 521 428 521 428 553 386 521>
VStem: 46 507<93 199 93 199 309 415 93 415>
LayerCount: 2
Fore
SplineSet
553 415 m 1x68
 553 309 l 1
 386 309 l 1
 309 199 l 1
 553 199 l 1
 553 93 l 1
 240 93 l 1x68
 175 0 l 1
 79 0 l 1xa8
 143 93 l 1
 46 93 l 1
 46 199 l 1
 214 199 l 1
 239 236 265 272 291 309 c 1
 46 309 l 1
 46 415 l 1
 361 415 l 1x68
 428 511 l 1
 521 511 l 1x58
 455 415 l 1
 553 415 l 1x68
EndSplineSet
Validated: 1
EndChar

StartChar: partialdiff
Encoding: 295 8706 295
Width: 600
Flags: MW
HStem: -10 111<268 290 290 308> 339 95<266 289.5 203.5 328.5> 578 118<182 302 182 311>
VStem: 45 144<175.5 205 205 235 175.5 290.5> 408 146<205 230 230 235 235 264.5 371 455>
LayerCount: 2
Fore
SplineSet
182 696 m 1
 311 696 l 2
 448 696 554 595 554 455 c 2
 554 230 l 2
 554 89 446 -10 308 -10 c 2
 290 -10 l 2
 152 -10 45 83 45 224 c 0
 45 357 142 434 265 434 c 0
 314 434 372 413 408 371 c 1
 408 474 l 2
 408 523 360 578 302 578 c 2
 182 578 l 1
 182 696 l 1
408 205 m 2
 408 235 l 2
 408 294 361 339 296 339 c 0
 236 339 189 294 189 235 c 2
 189 205 l 2
 189 146 236 101 300 101 c 0
 361 101 408 146 408 205 c 2
EndSplineSet
Validated: 1
EndChar

StartChar: percent
Encoding: 296 37 296
Width: 739
Flags: MW
HStem: -1 63<549.5 556 556 571> 285 63<556 571 571 578.5> 336 64<159.5 166 166 181> 622 63<166 181 181 188.5>
VStem: 44 81<458 563 563 573> 222 81<449 458 458 563> 434 81<121 226 226 235> 612 81<111 121 121 226>
LayerCount: 2
Fore
SplineSet
119 0 m 1xdf
 538 686 l 1
 618 686 l 1
 202 0 l 1
 119 0 l 1xdf
303 563 m 2
 303 458 l 2
 303 391 251 336 181 336 c 2
 166 336 l 2xbf
 96 336 44 391 44 458 c 2
 44 563 l 2
 44 630 96 685 166 685 c 2
 181 685 l 2
 251 685 303 630 303 563 c 2
222 449 m 2
 222 573 l 2
 222 600 203 622 174 622 c 0
 145 622 125 600 125 573 c 2
 125 449 l 2
 125 421 145 400 174 400 c 0
 203 400 222 421 222 449 c 2
693 226 m 2
 693 121 l 2
 693 54 641 -1 571 -1 c 2
 556 -1 l 2
 486 -1 434 54 434 121 c 2
 434 226 l 2
 434 293 486 348 556 348 c 2
 571 348 l 2xdf
 641 348 693 293 693 226 c 2
612 111 m 2
 612 235 l 2
 612 263 593 285 564 285 c 0
 535 285 515 263 515 235 c 2
 515 111 l 2
 515 84 535 62 564 62 c 0
 593 62 612 84 612 111 c 2
EndSplineSet
Validated: 1
EndChar

StartChar: perthousand
Encoding: 297 8240 297
Width: 1080
Flags: MW
HStem: -1 63<549.5 556 556 571 886 893 893 907> 285 63<556 571 571 578.5 893 907 907 915> 336 64<159.5 166 166 181> 622 63<166 181 181 188.5>
VStem: 44 81<458 563 563 573> 222 81<449 458 458 563> 434 81<121 226 226 235> 612 81<111 121 121 226> 771 81<121 226 226 235> 949 81<111 121 121 226>
LayerCount: 2
Fore
SplineSet
119 0 m 1xdfc0
 538 686 l 1
 618 686 l 1
 202 0 l 1
 119 0 l 1xdfc0
303 563 m 2
 303 458 l 2
 303 391 251 336 181 336 c 2
 166 336 l 2x3d
 96 336 44 391 44 458 c 2
 44 563 l 2
 44 630 96 685 166 685 c 2
 181 685 l 2
 251 685 303 630 303 563 c 2
222 449 m 2
 222 573 l 2
 222 600 203 622 174 622 c 0
 145 622 125 600 125 573 c 2
 125 449 l 2
 125 421 145 400 174 400 c 0
 203 400 222 421 222 449 c 2
693 226 m 2
 693 121 l 2
 693 54 641 -1 571 -1 c 2
 556 -1 l 2
 486 -1 434 54 434 121 c 2
 434 226 l 2
 434 293 486 348 556 348 c 2
 571 348 l 2xc3c0
 641 348 693 293 693 226 c 2
1030 226 m 2
 1030 121 l 2
 1030 54 978 -1 907 -1 c 2
 893 -1 l 2
 823 -1 771 54 771 121 c 2
 771 226 l 2
 771 293 823 348 893 348 c 2
 907 348 l 2
 978 348 1030 293 1030 226 c 2
612 111 m 2
 612 235 l 2
 612 263 593 285 564 285 c 0
 535 285 515 263 515 235 c 2
 515 111 l 2
 515 84 535 62 564 62 c 0
 593 62 612 84 612 111 c 2
949 111 m 2
 949 235 l 2
 949 263 930 285 900 285 c 0
 872 285 852 263 852 235 c 2
 852 111 l 2
 852 84 872 62 900 62 c 0
 930 62 949 84 949 111 c 2
EndSplineSet
Validated: 1
EndChar

StartChar: plus
Encoding: 298 43 298
Width: 600
Flags: MW
HStem: 0 21G<247 352 247 247> 202 106<44 247 44 247 352 556 44 352> 491 20G<247 352 352 352>
VStem: 247 105<0 202 0 202 308 511>
LayerCount: 2
Fore
SplineSet
556 308 m 1
 556 202 l 1
 352 202 l 1
 352 0 l 1
 247 0 l 1
 247 202 l 1
 44 202 l 1
 44 308 l 1
 247 308 l 1
 247 511 l 1
 352 511 l 1
 352 308 l 1
 556 308 l 1
EndSplineSet
Validated: 1
EndChar

StartChar: plusminus
Encoding: 299 177 299
Width: 600
Flags: MW
HStem: 0 105<46 553 46 553> 276 106<44 247 44 247 352 556 44 352> 491 20G<247 352 352 352>
VStem: 247 105<147 276 147 276 382 511>
LayerCount: 2
Fore
SplineSet
556 382 m 1
 556 276 l 1
 352 276 l 1
 352 147 l 1
 247 147 l 1
 247 276 l 1
 44 276 l 1
 44 382 l 1
 247 382 l 1
 247 511 l 1
 352 511 l 1
 352 382 l 1
 556 382 l 1
46 105 m 1
 553 105 l 1
 553 0 l 1
 46 0 l 1
 46 105 l 1
EndSplineSet
Validated: 1
EndChar

StartChar: product
Encoding: 300 8719 300
Width: 818
Flags: MW
HStem: 581 138<22 138 22 797 296 521 296 296 679 679 679 797>
VStem: 138 158<-100 581 -100 581> 521 158<-100 581>
LayerCount: 2
Fore
SplineSet
679 -100 m 1
 521 -100 l 1
 521 581 l 1
 296 581 l 1
 296 -100 l 1
 138 -100 l 1
 138 581 l 1
 22 581 l 1
 22 719 l 1
 797 719 l 1
 797 581 l 1
 679 581 l 1
 679 -100 l 1
EndSplineSet
Validated: 1
EndChar

StartChar: radical
Encoding: 301 8730 301
Width: 683
Flags: MW
HStem: -150 971<315 707 315 707>
VStem: 28 679<325 821>
LayerCount: 2
Fore
SplineSet
707 821 m 1
 440 -150 l 1
 315 -150 l 1
 255 -6 195 138 136 282 c 1
 55 249 l 1
 28 325 l 1
 228 409 l 1
 279 274 334 136 379 1 c 1
 447 275 521 548 593 821 c 1
 707 821 l 1
EndSplineSet
Validated: 1
EndChar

StartChar: summation
Encoding: 302 8721 302
Width: 643
Flags: MW
HStem: -100 142<237 625 237 625> 584 135<260 603 260 260>
VStem: 23 602<-100 -9 -9 -9>
LayerCount: 2
Fore
SplineSet
23 -9 m 1
 289 309 l 1
 35 617 l 1
 35 719 l 1
 603 719 l 1
 603 584 l 1
 260 584 l 1
 260 580 l 1
 471 327 l 1
 237 46 l 1
 237 42 l 1
 625 42 l 1
 625 -100 l 1
 23 -100 l 1
 23 -9 l 1
EndSplineSet
Validated: 1
EndChar

StartChar: lozenge
Encoding: 303 9674 303
Width: 568
Flags: MW
HStem: 0 21G<223 344 223 223> 0 97<285 285 285 344 223 285> 588 98 666 20G<223 344 344 344>
VStem: 55 457<343 343>
LayerCount: 2
Fore
SplineSet
55 343 m 1x98
 223 686 l 1
 344 686 l 1
 512 343 l 1
 344 0 l 1
 223 0 l 1
 55 343 l 1x98
285 588 m 1x68
 244 506 205 424 164 343 c 1
 285 97 l 1
 324 179 364 261 404 343 c 1
 364 424 324 506 285 588 c 1x68
EndSplineSet
Validated: 1
EndChar

StartChar: bar
Encoding: 305 124 304
Width: 250
Flags: MW
HStem: -199 919<75 175 75 175>
VStem: 75 100<-199 720 -199 720>
LayerCount: 2
Fore
SplineSet
75 720 m 1
 175 720 l 1
 175 -199 l 1
 75 -199 l 1
 75 720 l 1
EndSplineSet
Validated: 1
EndChar

StartChar: brokenbar
Encoding: 306 166 305
Width: 277
Flags: MW
HStem: 0 21G<78 198 78 78> 0 270<78 198 78 198> 415 271<78 198 78 198> 666 20G<78 198 198 198>
VStem: 78 120<0 270 0 270 415 686>
LayerCount: 2
Fore
SplineSet
198 686 m 1x98
 198 415 l 1
 78 415 l 1x68
 78 686 l 1
 198 686 l 1x98
198 270 m 1
 198 0 l 1
 78 0 l 1
 78 270 l 1
 198 270 l 1
EndSplineSet
Validated: 1
EndChar

StartChar: at
Encoding: 307 64 306
Width: 927
Flags: MW
HStem: -153 58<329.5 462.5> 22 92<425 437.5> 247 77<496 553> 431 90<462 482 482 502> 639 58<364 574.5>
VStem: 48 66<142.5 388.5 142.5 421> 236 141<150 199.5 150 231> 251 133<364 421.5> 553 135<225 247 247 247 324 360 360 371> 813 66<233.5 433.5>
LayerCount: 2
Fore
SplineSet
688 371 m 2xfec0
 688 150 l 2
 688 124 704 113 723 113 c 0
 758 113 813 146 813 321 c 0
 813 546 674 639 475 639 c 0
 253 639 114 516 114 261 c 0
 114 24 218 -95 441 -95 c 0
 487 -95 570 -81 606 -63 c 1
 606 -126 l 1
 564 -142 484 -153 441 -153 c 0
 198 -153 48 -27 48 262 c 0
 48 580 245 697 476 697 c 0
 707 697 879 588 879 320 c 0
 879 91 766 22 676 22 c 0
 598 22 574 57 563 103 c 1
 559 103 l 1
 518 56 476 22 399 22 c 0
 322 22 236 42 236 162 c 0xfec0
 236 300 361 324 553 324 c 1
 553 360 l 2
 553 395 536 431 468 431 c 0
 403 431 384 391 384 371 c 2
 384 364 l 1
 252 364 l 1
 251 370 251 375 251 381 c 0xfdc0
 251 462 336 521 462 521 c 2
 482 521 l 2
 621 521 688 461 688 371 c 2xfec0
553 225 m 2
 553 247 l 1
 439 247 377 227 377 172 c 0
 377 128 404 114 446 114 c 0
 501 114 553 157 553 225 c 2
EndSplineSet
Validated: 1
EndChar

StartChar: ampersand
Encoding: 308 38 307
Width: 670
Flags: MW
HStem: 0 113<226.5 418 325 418 325 566> 292 116<300 304 304 418 566 660> 577 119<277 300.5 231.5 312> 671 20G<347 347>
VStem: 37 148<166.5 227.5 166.5 239.5> 55 146<476.5 521.5 476.5 569> 418 148<113 292 0 292>
LayerCount: 2
Fore
SplineSet
347 691 m 1xd2
 347 570 l 1
 334 574 320 577 304 577 c 0
 250 577 201 550 201 493 c 0
 201 460 234 408 300 408 c 2xe6
 422 408 l 1
 436 452 450 495 463 539 c 1
 566 539 l 1
 566 408 l 1
 660 408 l 1
 660 292 l 1
 566 292 l 1
 566 0 l 1
 294 0 l 2
 159 0 37 51 37 195 c 0xda
 37 284 88 332 163 357 c 1
 98 381 55 433 55 507 c 0
 55 631 172 696 291 696 c 0xe6
 310 696 329 694 347 691 c 1xd2
418 292 m 1
 304 292 l 2
 222 292 185 251 185 204 c 0xda
 185 129 256 113 325 113 c 2
 418 113 l 1
 418 292 l 1
EndSplineSet
Validated: 1
EndChar

StartChar: paragraph
Encoding: 309 182 308
Width: 526
Flags: MW
HStem: 616 70<301 375 301 301 450 516 450 450>
VStem: 225 76<-165 251 251 251> 375 75<-165 616 -165 616>
LayerCount: 2
Fore
SplineSet
225 -165 m 1
 225 251 l 1
 113 260 26 353 26 468 c 0
 26 588 122 686 243 686 c 2
 516 686 l 1
 516 616 l 1
 450 616 l 1
 450 -165 l 1
 375 -165 l 1
 375 616 l 1
 301 616 l 1
 301 -165 l 1
 225 -165 l 1
EndSplineSet
Validated: 1
EndChar

StartChar: copyright
Encoding: 310 169 309
Width: 740
Flags: MW
HStem: -10 52<282.5 456 282.5 467.5> 130 74<350 370 370 379> 482 74<368 376 376 400> 643 53<282.5 456>
VStem: 16 58<254.5 431.5 254.5 441.5> 189 98<314 373 373 386 268.5 431.5> 458 85<266.5 299> 665 59<254.5 431.5>
LayerCount: 2
Fore
SplineSet
724 344 m 0
 724 147 565 -10 370 -10 c 0
 174 -10 16 147 16 344 c 0
 16 539 174 696 370 696 c 0
 565 696 724 539 724 344 c 0
665 344 m 0
 665 519 542 643 370 643 c 0
 195 643 74 519 74 344 c 0
 74 165 195 42 370 42 c 0
 542 42 665 165 665 344 c 0
287 386 m 2
 287 300 l 2
 287 237 326 204 374 204 c 0
 432 204 458 234 458 299 c 1
 543 299 l 1
 543 189 471 130 379 130 c 2
 370 130 l 2
 267 130 189 193 189 314 c 2
 189 373 l 2
 189 490 269 556 368 556 c 2
 376 556 l 2
 470 556 543 500 543 386 c 1
 455 386 l 1
 455 449 426 482 374 482 c 0
 325 482 287 449 287 386 c 2
EndSplineSet
Validated: 1
EndChar

